<svg width="56" height="63" viewBox="0 0 56 63" fill="none" xmlns="http://www.w3.org/2000/svg">
<path d="M6.19922 24.9297C6.37736 25.3454 6.61489 25.9095 6.88211 26.6023C6.85242 26.147 6.84252 25.7016 6.87221 25.2464C6.64458 25.1474 6.41695 25.0386 6.19922 24.9297Z" fill="#90CA77"/>
<path d="M16.7395 37.0136L12.9391 43.8919L14.8888 36.6474C14.1861 36.4396 13.4933 36.1624 12.8302 35.816C12.5531 35.6676 12.2859 35.5092 12.0187 35.341L11.9395 37.8548L11.3358 34.8659C10.2669 34.0643 9.37619 33.0944 8.6735 32.0156C9.9898 36.875 10.9201 43.1596 9.10897 48.395C7.4067 53.3336 4.98195 56.7579 3.91309 58.1138L8.65371 60.6177L21.0447 36.6672C19.6591 37.0532 18.1943 37.1818 16.7395 37.0136Z" fill="#90CA77"/>
<path d="M28.6649 44.6538L26.636 45.4059L27.408 44.149C27.2595 44.0797 27.1111 44.0105 26.9626 43.9313C26.2204 43.5453 25.5474 43.0801 24.9437 42.5655L19.2232 48.0583L23.6274 41.2096C22.6377 40.022 21.9152 38.6463 21.4797 37.1915L20.5692 38.7552L21.45 37.0925C21.4006 36.9243 21.3412 36.7659 21.3016 36.5977C21.2125 36.6273 21.1333 36.6372 21.0443 36.6669L8.65332 60.6175L13.0871 62.9631C13.7403 61.2014 15.3535 57.5198 18.4513 53.6698C22.222 48.9886 28.7441 46.4352 33.742 45.0991C32.0694 45.3366 30.3375 45.208 28.6649 44.6538Z" fill="#6FAF57"/>
<path d="M40.601 43.7439L38.3841 43.249C37.5527 43.823 36.6521 44.2783 35.7119 44.6049C38.5919 43.9517 40.601 43.7439 40.601 43.7439Z" fill="#6FAF57"/>
<path d="M21.292 36.5878C21.2722 36.4888 21.2425 36.3998 21.2227 36.3008L21.0347 36.6571C21.1237 36.6274 21.2128 36.6076 21.292 36.5878Z" fill="#286F37"/>
<path d="M11.326 34.856C11.5438 35.0243 11.7714 35.1826 12.0089 35.3311C12.2662 35.4993 12.5434 35.6577 12.8205 35.8061C13.4935 36.1624 14.1863 36.4395 14.879 36.6375C15.4926 36.8156 16.1162 36.9344 16.7298 37.0036C18.1846 37.1719 19.6494 37.0432 21.025 36.6474L21.2131 36.2911C20.8073 34.3513 20.9162 32.2927 21.599 30.343C19.6296 30.4717 17.6007 30.0857 15.7203 29.096C14.2654 28.3339 13.058 27.275 12.1178 26.0576C10.3759 26.216 8.57469 25.9587 6.87242 25.2461C6.84273 25.7014 6.85263 26.1566 6.88232 26.602C7.01098 28.522 7.61469 30.3826 8.66377 32.0057C9.36645 33.0845 10.2572 34.0544 11.326 34.856Z" fill="#257F3E"/>
<path d="M12.1177 26.0582C10.4154 23.8611 9.57417 21.1097 9.782 18.3386C9.89087 16.8738 10.2867 15.4091 10.9993 14.0235C11.1082 13.8157 11.2369 13.6177 11.3556 13.4198C10.8509 10.9852 11.1379 8.36247 12.3651 5.98721C12.7214 5.30432 13.1371 4.67092 13.6022 4.0969C8.78241 2.93896 3.63601 5.14597 1.25085 9.75794C-1.56977 15.221 0.538277 21.9707 5.98159 24.8409C6.05086 24.8804 6.13004 24.9101 6.20921 24.9398C6.43684 25.0487 6.65457 25.1576 6.8822 25.2565C8.57458 25.9592 10.3758 26.2165 12.1177 26.0582Z" fill="#329946"/>
<path d="M11.3559 13.4097C13.2264 10.2922 16.4033 8.40187 19.8078 8.09507C21.0746 7.9763 22.3711 8.08517 23.638 8.42167C25.0334 5.82867 27.2998 4.00764 29.8928 3.1565C29.1505 2.43403 28.2895 1.79073 27.3295 1.28598C22.579 -1.22784 16.8586 0.0686609 13.6025 4.08681C13.1373 4.66083 12.7216 5.29424 12.3654 5.97712C11.1381 8.35239 10.8511 10.9751 11.3559 13.4097Z" fill="#3AB44A"/>
<path d="M21.5992 30.3433C20.9262 32.3029 20.8075 34.3516 21.2132 36.2914L24.3506 30.2345C24.3011 30.1157 24.2615 29.9871 24.212 29.8584C23.3708 30.1355 22.4899 30.2939 21.5992 30.3433Z" fill="#257F3E"/>
<path d="M52.2992 25.1768C52.1013 25.8893 51.8242 26.592 51.4679 27.2749C49.7458 30.6102 46.5689 32.6885 43.1149 33.1438C43.293 35.1825 42.9268 37.2906 41.9173 39.2403C41.1652 40.6852 40.1458 41.8927 38.9482 42.8329C39.2254 43.011 39.5025 43.1793 39.7994 43.3376C45.2328 46.2077 51.933 44.1096 54.7536 38.6465C57.1388 34.0444 55.9809 28.5219 52.2992 25.1768Z" fill="#217038"/>
<path d="M41.9173 39.2407C42.9267 37.291 43.2929 35.183 43.1148 33.1442C43.0653 33.1541 43.0257 33.164 42.9762 33.164C40.8187 35.6976 37.6715 37.0832 34.4253 37.0337C32.7329 37.0139 31.0306 36.6081 29.4273 35.757C28.2001 35.1137 27.1609 34.2626 26.29 33.2828C25.4785 32.3623 24.8253 31.3331 24.3502 30.2246L21.2129 36.2815C21.2327 36.3805 21.2624 36.4696 21.2822 36.5685C21.3218 36.7368 21.3811 36.8951 21.4306 37.0634C21.4405 37.0931 21.4504 37.1327 21.4603 37.1624C21.8958 38.6271 22.6183 39.9929 23.6079 41.1805C24.0137 41.6655 24.4393 42.1207 24.9242 42.5364C25.5378 43.0609 26.2108 43.5162 26.9432 43.9022C27.0917 43.9813 27.2401 44.0506 27.3886 44.1199C27.8042 44.3178 28.2199 44.4861 28.6455 44.6246C30.3181 45.1789 32.05 45.3075 33.7226 45.0601C34.3956 44.9611 35.0587 44.7929 35.6921 44.5752C36.6323 44.2486 37.5428 43.7933 38.3643 43.2193C38.5523 43.0906 38.7403 42.9521 38.9185 42.8135C40.1358 41.8931 41.1651 40.6857 41.9173 39.2407Z" fill="#257F3E"/>
<path d="M23.6377 27.7891C23.5882 27.5021 23.5387 27.2052 23.509 26.9082C23.3606 25.3445 23.5387 23.7313 24.0731 22.1775C24.2513 21.6728 24.4492 21.1779 24.6967 20.693C24.6967 20.6831 24.7066 20.6732 24.7066 20.6732C23.5783 19.2381 22.8261 17.5656 22.4995 15.794C22.2323 14.3787 22.2323 12.9041 22.5391 11.4591C22.7371 10.4794 23.0637 9.50945 23.5486 8.56925C23.5783 8.51976 23.608 8.48017 23.6278 8.43069C22.361 8.09419 21.0645 7.98533 19.7977 8.10409C16.3931 8.41089 13.2162 10.3012 11.3457 13.4187C11.2269 13.6167 11.0983 13.8146 10.9894 14.0225C10.2768 15.408 9.88096 16.8728 9.77209 18.3375C9.57416 21.1086 10.4154 23.8699 12.1078 26.0571C13.0579 27.2843 14.2653 28.3334 15.7102 29.0955C17.5907 30.0852 19.6195 30.4711 21.589 30.3425C22.4797 30.2831 23.3606 30.1247 24.2018 29.8575C23.9544 29.1944 23.7664 28.4918 23.6377 27.7891Z" fill="#33A749"/>
<path d="M24.2119 29.8682C24.2614 29.9968 24.301 30.1156 24.3505 30.2443L24.6177 29.7197C24.489 29.7692 24.3505 29.8187 24.2119 29.8682Z" fill="#29803F"/>
<path d="M28.1805 23.5834C28.0815 23.5339 27.9924 23.4647 27.8935 23.4053L27.7153 23.7517C27.8638 23.6923 28.0221 23.6428 28.1805 23.5834Z" fill="#29803F"/>
<path d="M24.0833 22.1782C23.5488 23.732 23.3608 25.3353 23.5191 26.9089C23.5488 27.2058 23.5884 27.4928 23.6478 27.7897C23.7765 28.5023 23.9645 29.1951 24.2218 29.8681C24.3604 29.8285 24.4989 29.7691 24.6276 29.7196L25.1125 28.7893L27.7154 23.7617L27.8936 23.4153C27.0919 22.9501 26.3596 22.4058 25.7262 21.7823C25.3699 21.4359 25.0334 21.0598 24.7266 20.6738C24.7266 20.6837 24.7167 20.6936 24.7167 20.6936C24.4593 21.1786 24.2515 21.6734 24.0833 22.1782Z" fill="#249045"/>
<path d="M43.2434 18.9609C43.2434 18.9708 43.2335 18.9807 43.2335 18.9807C44.0253 19.9803 44.629 21.1086 45.0348 22.2962C45.9948 25.097 45.8562 28.2542 44.4013 31.0748C44.0352 31.7775 43.5997 32.4307 43.1147 33.0245C43.1147 33.0641 43.1147 33.1037 43.1246 33.1432C46.5787 32.688 49.7457 30.6096 51.4776 27.2744C51.8339 26.5915 52.111 25.8888 52.309 25.1762C53.7242 20.1882 51.5073 14.7053 46.7469 12.1914C45.9156 11.756 45.0545 11.4492 44.1935 11.2314C44.7774 13.7552 44.5201 16.4867 43.2434 18.9609Z" fill="#268340"/>
<path d="M42.9761 33.1737C43.0256 33.1638 43.0651 33.1539 43.1146 33.1539C43.1146 33.1143 43.1146 33.0747 43.1047 33.0352C43.0652 33.0747 43.0157 33.1242 42.9761 33.1737Z" fill="#29803F"/>
<path d="M44.3919 31.0853C45.8467 28.2646 45.9853 25.0976 45.0253 22.3067C44.6195 21.1191 44.0158 19.9908 43.224 18.9912C42.7391 19.9116 42.1453 20.7331 41.4723 21.4555C40.2945 22.7125 38.8595 23.6527 37.2958 24.2366C35.2669 24.9887 33.0203 25.1471 30.843 24.6127C30.7638 24.5929 30.6846 24.5731 30.6054 24.5533C30.0017 24.3949 29.4079 24.1772 28.8339 23.9001C28.6558 23.8209 28.4677 23.7417 28.2896 23.6527C28.25 23.6329 28.2203 23.6131 28.1807 23.5933C28.0224 23.6527 27.864 23.7021 27.7057 23.7714L25.1028 28.7991L24.6178 29.7294L24.3506 30.2539C24.8256 31.3624 25.4788 32.3916 26.2904 33.3121C27.1613 34.2919 28.2005 35.143 29.4277 35.7863C31.031 36.6275 32.7333 37.0333 34.4257 37.063C37.662 37.1125 40.8191 35.7269 42.9766 33.1933C43.0162 33.1438 43.0657 33.1042 43.1053 33.0547C43.5902 32.4411 44.0257 31.7879 44.3919 31.0853Z" fill="#249045"/>
<path d="M23.6378 8.43145C23.6081 8.48093 23.5784 8.52052 23.5586 8.57C23.0737 9.50032 22.7471 10.4702 22.5491 11.4599C22.2522 12.9049 22.2423 14.3795 22.5095 15.7948C22.846 17.5663 23.5982 19.2389 24.7166 20.6739C25.0234 21.0599 25.35 21.436 25.7161 21.7824C26.3594 22.4059 27.0819 22.9502 27.8836 23.4154L28.418 22.3762L30.1797 18.9618L31.5256 16.3589L32.258 14.9535L33.0795 13.3601L35.2964 9.06485L38.0774 3.69082C35.4151 2.42401 32.4856 2.30525 29.8728 3.16628C27.2996 4.01742 25.0333 5.82855 23.6378 8.43145Z" fill="#45B649"/>
<path d="M33.089 13.35L32.2675 14.9434L31.5351 16.3487L30.1892 18.9516L28.4275 22.3661L27.8931 23.4052C27.992 23.4646 28.0811 23.524 28.1801 23.5834C28.2197 23.6032 28.2494 23.623 28.289 23.6428C28.4671 23.7417 28.6452 23.811 28.8333 23.8902C29.4172 24.1574 30.011 24.3751 30.6048 24.5434C30.684 24.5632 30.7632 24.583 30.8424 24.6028C33.0197 25.1372 35.2663 24.9788 37.2951 24.2267C38.8589 23.6428 40.2939 22.7026 41.4716 21.4456C42.1446 20.7232 42.7484 19.9017 43.2234 18.9813C43.2234 18.9714 43.2333 18.9615 43.2333 18.9615C44.51 16.4972 44.7673 13.7656 44.1735 11.2419C43.451 8.19366 41.4815 5.45221 38.5026 3.8786C38.364 3.80932 38.2255 3.74994 38.0869 3.68066L35.3059 9.05469L33.089 13.35ZM30.7533 24.2465C30.6741 23.8308 30.6147 23.4052 30.5751 22.9797C30.8127 22.95 31.0601 22.9302 31.2976 22.9104C31.1591 23.3656 30.971 23.811 30.7533 24.2465Z" fill="#45B649"/>
<path d="M30.7537 24.2471C30.9714 23.8116 31.1496 23.3663 31.3079 22.9209C31.0605 22.9407 30.823 22.9605 30.5854 22.9902C30.6151 23.4058 30.6745 23.8314 30.7537 24.2471Z" fill="#45B649"/>
</svg>
