<svg width="56" height="61" viewBox="0 0 56 61" fill="none" xmlns="http://www.w3.org/2000/svg">
<path d="M10.9355 32.7647C12.6381 32.3217 14.3927 32.0785 16.1647 32.0437C16.1473 31.8005 16.1299 31.566 16.1299 31.3228C16.1299 24.6865 21.5067 19.3097 28.143 19.3097C34.7793 19.3097 40.1561 24.6865 40.1561 31.3228C40.1561 35.4661 38.054 39.123 34.8662 41.2772C36.6555 43.7181 37.9411 46.4803 38.6534 49.4075L51.483 21.6724L22.3145 8.18262L10.9355 32.7647Z" fill="#FAAC19"/>
<path d="M54.9747 18.8234L22.1841 3.65723L22.3057 8.17408L51.4741 21.6638L55.0007 18.8321L54.9747 18.8234Z" fill="#FAAC19"/>
<path d="M1.02498 41.251L0 43.4747L1.8328 42.8753L2.56244 44.656L4.39524 44.0566L5.12489 45.846L6.95769 45.2466L7.68733 47.0273L9.52013 46.428L10.2498 48.2087L12.0826 47.618L12.8122 49.3987L14.645 48.7993L15.3747 50.5887L17.2075 49.9893L17.9371 51.77L19.7699 51.1707L20.5082 52.96L22.341 52.3607L23.0707 54.1414L24.9035 53.5507L25.6331 55.3314L27.4659 54.732L28.1955 56.5127L30.0283 55.922L30.7667 57.7027L32.5995 57.1034L33.3291 58.8927L35.1619 58.2934L35.8916 60.0741L36.9252 57.8504L4.13466 42.6842L1.02498 41.251Z" fill="#EF484F"/>
<path d="M22.1845 3.65691L54.9751 18.8231L56 16.5994L54.1759 17.1988L53.4376 15.4181L51.6135 16.0088L50.8752 14.2281L49.0424 14.8274L48.3127 13.0467L46.4799 13.6374L45.7503 11.8567L43.9175 12.4561L43.1878 10.6754L41.355 11.2661L40.6254 9.48538L38.7926 10.0847L38.0629 8.30405L36.2301 8.89472L35.5005 7.11404L33.6677 7.71339L32.9294 5.93271L31.0966 6.52337L30.3669 4.74269L28.5341 5.34204L27.8045 3.56136L25.9717 4.15203L25.2334 2.37135L23.4006 2.96201L22.6709 1.18133L20.8381 1.78068L20.1085 0L19.0835 2.21499L22.1845 3.65691Z" fill="#EF484F"/>
<path d="M28.1435 43.3351C21.7505 43.3351 16.5387 38.3405 16.1652 32.043C14.3932 32.0777 12.6386 32.3209 10.9361 32.7639L7.66138 39.8519L4.13477 42.6836L36.9253 57.8498L36.9514 57.8585L36.8298 53.333L38.6539 49.3894C37.9416 46.4708 36.6561 43.6999 34.8667 41.2591C32.947 42.5707 30.6278 43.3351 28.1435 43.3351Z" fill="#FAAC19"/>
<path d="M7.6612 39.8524L10.9359 32.7644L22.3062 8.17361L22.1846 3.65676L19.0836 2.21484L19.2052 6.74038L4.55152 38.4191L1.0249 41.2508L4.13458 42.6841L7.6612 39.8524Z" fill="#FAAC19"/>
<path d="M7.6612 39.8524L10.9359 32.7644L22.3062 8.17361L22.1846 3.65676L19.0836 2.21484L19.2052 6.74038L4.55152 38.4191L1.0249 41.2508L4.13458 42.6841L7.6612 39.8524Z" fill="#D6D7D7"/>
<path d="M22.1845 3.65676L19.0835 2.21484L22.1845 3.65676Z" fill="#FAAC19"/>
<path d="M22.1845 3.65676L19.0835 2.21484L22.1845 3.65676Z" fill="#D6D7D7"/>
<path d="M22.1845 3.65676L19.0835 2.21484L22.1845 3.65676Z" fill="#FAAC19"/>
<path d="M22.1845 3.65676L19.0835 2.21484L22.1845 3.65676Z" fill="#D6D7D7"/>
<path d="M28.1434 43.3348C30.6364 43.3348 32.9469 42.5791 34.8666 41.2761C38.0545 39.1132 40.1565 35.465 40.1565 31.3217C40.1565 24.6854 34.7797 19.3086 28.1434 19.3086C21.5072 19.3086 16.1304 24.6854 16.1304 31.3217C16.1304 31.5649 16.1564 31.7994 16.1651 32.0426C16.5386 38.3402 21.7504 43.3348 28.1434 43.3348ZM32.8514 34.6833C33.0599 34.996 33.1554 35.3695 33.1467 35.769C33.6853 37.0025 32.5821 38.7832 30.6017 39.7908C28.5778 40.8331 26.4236 40.6681 25.7895 39.4346C25.581 39.0264 25.581 38.5486 25.7287 38.0535C25.7808 36.9417 26.606 35.6561 27.9697 34.7441C29.8546 33.4932 32.0349 33.4672 32.8514 34.6833ZM24.973 22.7918C25.4507 22.5312 25.9632 22.4096 26.4844 22.453C28.5257 22.6354 29.9502 25.3542 29.6549 28.5247C29.6114 28.9764 29.5333 29.4107 29.4377 29.8276C29.0816 32.5464 27.4833 34.6051 25.5723 34.6051C23.3921 34.6051 21.6201 31.9471 21.6114 28.6637C21.6027 25.6843 23.062 23.2174 24.973 22.7918Z" fill="#EF484F"/>
<path d="M30.8882 39.1572C29.0033 40.408 26.8143 40.4427 26.0065 39.2267C25.7807 38.8879 25.7025 38.4883 25.7199 38.054C25.5722 38.5491 25.5722 39.0269 25.7806 39.4351C26.4147 40.6686 28.5689 40.8336 30.5928 39.7913C32.5646 38.775 33.6765 37.003 33.1379 35.7695C33.1292 36.8901 32.2867 38.2277 30.8882 39.1572Z" fill="#E09C26"/>
<path d="M25.7196 38.0542C25.7022 38.4799 25.7804 38.8881 26.0063 39.2269C26.8141 40.443 29.003 40.4169 30.8879 39.1574C32.2864 38.228 33.1203 36.8903 33.1377 35.7698C33.1464 35.3702 33.0508 35.0054 32.8423 34.684C32.0345 33.4679 29.8456 33.494 27.9607 34.7535C26.6056 35.6568 25.7804 36.9424 25.7196 38.0542Z" fill="#FAAC19"/>
<path d="M25.5631 34.6151C27.4828 34.6151 29.0724 32.5564 29.4285 29.8376C28.8118 32.3393 27.1788 34.0939 25.4328 33.9288C23.3916 33.7464 21.967 31.0276 22.2623 27.8572C22.4795 25.4945 23.5827 23.5575 24.9725 22.8018C23.0702 23.2274 21.6022 25.6943 21.6109 28.6737C21.6109 31.9571 23.3829 34.6151 25.5631 34.6151Z" fill="#E09C26"/>
<path d="M22.2537 27.8559C21.967 31.0264 23.3829 33.7452 25.4242 33.9276C27.1788 34.084 28.8118 32.3293 29.4198 29.8364C29.5241 29.4194 29.6022 28.9851 29.637 28.5334C29.9236 25.363 28.5078 22.6442 26.4665 22.4618C25.9453 22.4183 25.4328 22.5399 24.9551 22.8005C23.574 23.5562 22.4708 25.4933 22.2537 27.8559Z" fill="#FAAC19"/>
</svg>
