<svg width="921" height="611" viewBox="0 0 921 611" fill="none" xmlns="http://www.w3.org/2000/svg">
<path d="M429.185 0.806217C357.358 6.77054 321.597 38.7189 262.412 79.8499C133.078 169.73 -86.2857 313.777 35.704 413.397C106.67 471.349 184.68 395.12 269.795 429.032C337.933 456.179 352.14 516.388 421.802 539.345C542.645 579.169 641.006 544.334 738.411 462.473C811.228 401.276 850.163 347.059 862.188 252.704C875.281 149.966 882.75 4.17025 779.235 0.806217C717.206 -1.20964 705.985 74.2321 645.035 85.9301C556.046 103.01 519.487 -6.69225 429.185 0.806217Z" fill="url(#paint0_diamond)"/>
<path d="M479.655 55.0284C407.828 60.9927 372.067 92.941 312.882 134.072C183.549 223.953 -35.8155 367.999 86.1742 467.619C157.14 525.571 235.15 449.342 320.265 483.254C388.403 510.401 402.61 570.61 472.272 593.567C593.115 633.392 691.476 598.556 788.881 516.695C861.698 455.498 900.634 401.281 912.658 306.926C925.751 204.188 933.22 58.3924 829.706 55.0284C767.676 53.0125 756.455 128.454 695.505 140.152C606.517 157.232 569.957 47.5299 479.655 55.0284Z" fill="url(#paint1_diamond)"/>
<defs>
<radialGradient id="paint0_diamond" cx="0" cy="0" r="1" gradientUnits="userSpaceOnUse" gradientTransform="translate(517.349 187.992) rotate(-138.636) scale(329.26 552.661)">
<stop stop-color="#7C0AB1" stop-opacity="0.5"/>
<stop offset="1" stop-color="#BE84D8" stop-opacity="0"/>
</radialGradient>
<radialGradient id="paint1_diamond" cx="0" cy="0" r="1" gradientUnits="userSpaceOnUse" gradientTransform="translate(613.765 391.681) rotate(-128.605) scale(469.698 788.384)">
<stop stop-color="#FF3269" stop-opacity="0.5"/>
<stop offset="1" stop-color="#BE84D8" stop-opacity="0"/>
</radialGradient>
</defs>
</svg>
