<svg width="147" height="145" viewBox="0 0 147 145" fill="none" xmlns="http://www.w3.org/2000/svg">
<g filter="url(#filter0_d)">
<path d="M67.598 49.192C67.4316 49.1563 67.2699 49.1009 67.0216 49.0331C66.9821 47.5032 66.9456 45.9865 66.9015 44.3971C65.4648 44.1174 64.0039 43.8341 62.5386 43.5517L60.6637 47.5867C60.6637 47.5867 59.7922 49.1983 58.1982 48.8622C58.1982 48.8622 54.6368 48.4441 53.7196 51.9588C53.7196 51.9588 51.4998 60.9995 52.4998 61.4995L52.7268 66.3082C57.4259 67.2196 62.125 68.131 66.8231 69.038C68.4056 69.3443 70.2143 63.8029 70.5331 62.1943C70.9727 59.9856 71.408 57.778 71.8147 55.5677C72.4331 52.248 70.8775 49.9174 67.598 49.192Z" fill="#51B95C"/>
<path d="M75.9185 34.7816C72.3725 34.0902 68.8133 33.7415 65.242 33.9209C63.2739 34.6157 61.4218 35.4695 61.9378 36.0888C61.9378 36.0888 63.8208 38.0876 63.6764 40.4461L63.2742 42.9157C64.4526 43.1439 65.5871 43.3637 66.7512 43.5906C66.8291 43.2656 66.9556 42.9897 66.9534 42.7205C66.9344 41.2788 67.7014 40.5982 69.0534 40.2932C70.0293 40.0709 70.9571 39.6413 71.9372 39.2971C72.2626 40.4165 72.4695 41.5262 72.8966 42.5429C74.0267 45.2235 75.2498 47.8639 76.4387 50.5169C76.4864 50.622 76.5243 50.7852 76.6052 50.8129C77.0552 50.9687 77.5168 51.0939 77.975 51.2245C77.9616 50.7672 78.1331 50.1647 77.9004 49.884C75.3376 46.7414 74.6243 43.0339 74.4524 39.1354C74.4274 38.5878 74.5715 38.2475 75.1334 38.1447C75.1918 38.1358 75.2417 38.1102 75.298 38.0925C76.9326 37.5031 76.8908 37.5035 76.8391 35.7811C76.8199 35.0788 76.4638 34.8873 75.9185 34.7816Z" fill="#3FC7F4"/>
<path d="M79.3072 34.5377C78.6892 34.4396 78.0699 34.3558 77.3378 34.247C77.46 35.6322 77.5731 36.8986 77.6932 38.2749C78.9475 37.8298 80.1033 37.4215 81.2151 37.0235C81.2512 36.8989 81.2807 36.8455 81.2772 36.7905C81.2213 34.8506 81.2257 34.8495 79.3072 34.5377Z" fill="#54BA66"/>
<path d="M61.9377 36.0887C61.4217 35.4694 63.2781 34.6145 65.2418 33.9208C63.9048 33.9899 62.5655 34.1293 61.227 34.3521C60.7797 34.4283 60.3311 34.5791 59.917 34.7777C59.1297 35.1514 59.129 35.5282 59.6932 36.1549C60.4387 36.9813 61.1117 37.8757 61.7792 38.7667C62.3168 39.4787 62.4135 40.2746 62.1399 41.138C61.9961 41.5992 61.9429 42.0905 61.8383 42.6403C62.3256 42.7362 62.802 42.8254 63.2696 42.9166L63.6718 40.447C63.8207 38.0874 61.9377 36.0887 61.9377 36.0887Z" fill="#0892C0"/>
<path d="M53.7239 51.9579C54.6411 48.4432 58.2025 48.8613 58.2025 48.8613C59.7955 49.193 60.668 47.5858 60.668 47.5858L62.5429 43.5508C62.0753 43.4596 61.6033 43.3694 61.1357 43.2782C60.598 44.5052 60.0453 45.7079 59.5429 46.9268C59.3437 47.4101 59.1063 47.5491 58.564 47.4566C55.4553 46.9054 53.0261 48.5769 52.4039 51.6604C51.9491 53.9237 51.5183 56.1907 51.0876 58.4578C50.7965 59.9855 51.3788 60.8499 52.8781 61.1383C53.1606 61.1935 53.4475 61.2477 53.7301 61.3029L53.7219 61.2676C51.4452 60.5554 53.7239 51.9579 53.7239 51.9579Z" fill="#00AE69"/>
</g>
<path d="M70.8361 74.5907C70.8361 74.5907 71.7728 78.3763 67.1925 82.7888C67.1925 82.7888 64.7151 85.5227 66.5901 88.0465C66.6958 88.0356 66.8015 88.0248 66.9205 88.0079C67.0165 87.9934 67.112 87.9743 67.2122 87.9547C68.0395 87.7816 68.6849 87.8267 69.2386 88.2899C69.4214 88.443 69.5957 88.6479 69.7655 88.8998C69.7983 88.9475 69.8356 88.9948 69.8863 89.036C69.9886 89.1277 70.1225 89.2114 70.2694 89.2846C70.6412 89.4692 71.1071 89.5746 71.3532 89.4844C72.6558 89.0116 73.4383 89.4421 74.2852 90.4091C74.7061 90.8906 75.0817 91.1121 75.4563 91.0968C75.6461 91.0913 75.8293 91.0214 76.0256 90.8991C76.222 90.7767 76.4219 90.5983 76.63 90.3634C76.7427 90.2404 76.8449 90.1045 76.9465 89.9641C77.0436 89.8241 77.1361 89.6846 77.2331 89.5446C77.4707 89.1905 77.6651 88.8223 77.8171 88.4492C78.1304 87.7019 78.2915 86.9193 78.3767 86.1212C78.405 85.8536 78.424 85.587 78.4339 85.3213C78.4438 85.0556 78.4527 84.7807 78.4529 84.5114C78.4578 84.1069 78.4484 83.6993 78.4442 83.2958C78.401 80.7046 79.1249 78.4851 80.9911 76.6265C81.5095 76.1136 81.8492 75.4426 82.319 74.7721C82.4097 74.6607 82.4908 74.5456 82.5764 74.43L70.6771 70.5999C70.6062 71.7634 70.6107 73.1187 70.8361 74.5907Z" fill="#FA2961"/>
<path d="M69.6251 70.2576C69.6111 70.5283 69.617 70.6762 69.617 70.6762C69.6103 70.7465 69.6087 70.8209 69.6034 70.905C69.6087 70.8209 69.6103 70.7465 69.617 70.6762C69.6124 70.6767 69.6111 70.5283 69.6251 70.2576Z" fill="#E82C47"/>
<path d="M79.4598 57.5516C79.4598 57.5516 76.3783 59.196 73.9023 62.2594L84.6635 65.7234C84.6412 65.28 84.6065 64.8517 84.5126 64.4342C84.0582 62.4053 83.5169 60.39 82.9757 58.3746C81.8422 58.0081 80.7957 57.6745 79.6719 57.3116L79.4598 57.5516Z" fill="#FA2961"/>
<path d="M78.2699 57.4506C77.7045 57.9127 77.056 58.2904 76.5108 58.7689C76.2087 59.0367 75.9111 59.3041 75.6094 59.5765C75.9111 59.3041 76.2087 59.0367 76.5108 58.7689C77.056 58.2904 77.7045 57.9127 78.2699 57.4506Z" fill="#E82C47"/>
<path d="M67.6671 80.1307C67.4313 80.4567 67.1771 80.7846 66.9146 81.1227C66.7667 81.3097 66.6279 81.4957 66.4993 81.69C66.6325 81.4953 66.7713 81.3092 66.9146 81.1227C67.1771 80.7846 67.4313 80.4567 67.6671 80.1307Z" fill="#E82C47"/>
<path d="M65.1426 84.8474C65.2301 84.3881 65.3567 83.9479 65.5215 83.5177C65.3567 83.9479 65.2306 84.3926 65.1426 84.8474Z" fill="#E82C47"/>
<path d="M65.019 86.267C65.0154 85.7798 65.0596 85.3063 65.143 84.852C65.0596 85.3063 65.0154 85.7798 65.019 86.267C65.0264 87.1531 65.2061 87.6826 65.648 87.9158C65.2061 87.6826 65.0259 87.1485 65.019 86.267Z" fill="#E82C47"/>
<path d="M71.3751 66.8603C71.3751 66.8603 70.8547 68.3485 70.6915 70.6033L82.5908 74.4334C83.8975 72.688 84.4208 70.7305 84.6193 69.3171C84.6437 69.1475 84.6598 68.988 84.6769 68.8376C84.7696 67.9319 84.7327 67.346 84.7327 67.346C84.6925 66.7744 84.6884 66.2362 84.6636 65.7233L73.9023 62.2593C72.8601 63.5504 71.9266 65.0856 71.3751 66.8603Z" fill="#FCDDE2"/>
<path d="M69.7714 68.8774C69.8021 68.6793 69.8406 68.4665 69.8823 68.2394C69.8406 68.4665 69.8021 68.6793 69.7714 68.8774Z" fill="#FCDDE2"/>
<path d="M69.6673 69.6725C69.6902 69.4427 69.723 69.1748 69.7714 68.8774C69.723 69.1748 69.6902 69.4427 69.6673 69.6725Z" fill="#FCDDE2"/>
<path d="M69.6357 70.0895C69.6327 70.1501 69.6291 70.2062 69.6251 70.2576C69.6245 70.2066 69.6281 70.1506 69.6357 70.0895Z" fill="#FCDDE2"/>
<path d="M83.8793 55.5559C83.8608 55.5113 83.8382 55.4719 83.811 55.4329C83.7842 55.3985 83.7529 55.3646 83.7174 55.3357C83.0537 54.7956 82.0976 54.3923 81.1493 54.2018C80.6084 54.2248 80.0269 54.3495 79.624 54.767L78.2838 56.8641L78.3942 56.8992L78.6919 56.994C78.7305 57.0086 78.7687 57.0186 78.8073 57.0332L79.2728 57.1804C79.3786 57.216 79.484 57.2469 79.5852 57.283L79.662 57.3076C80.7812 57.6709 81.8323 58.0041 82.9657 58.3706C83.2201 58.4513 83.4796 58.5361 83.7436 58.6204C83.7557 58.1502 83.8324 57.6316 83.8936 57.1424C83.904 57.0624 83.9144 56.9824 83.9247 56.9024C83.9899 56.3617 84.018 55.8667 83.8793 55.5559Z" fill="#FCDDE2"/>
<path d="M77.9293 56.7565C78.0373 56.5876 78.1393 56.4054 78.2357 56.2144C78.1393 56.4054 78.0373 56.5876 77.9293 56.7565Z" fill="#FCDDE2"/>
<path opacity="0.37" d="M69.5232 76.6804C69.679 76.1629 69.7824 75.6323 69.8269 75.0705C69.7824 75.6323 69.6795 76.1675 69.5232 76.6804Z" fill="#010101"/>
<path opacity="0.37" d="M78.2895 56.873C78.1695 56.8343 78.0546 56.7997 77.9341 56.7563C78.1695 56.8343 78.3948 56.904 78.6206 56.9783C78.5484 56.9532 78.4721 56.9332 78.3999 56.9081L78.2895 56.873Z" fill="#010101"/>
<path opacity="0.37" d="M81.1542 54.2058C80.8462 54.1446 80.5401 54.1017 80.2419 54.0906C80.5401 54.1017 80.8462 54.1446 81.1542 54.2058Z" fill="#010101"/>
<path opacity="0.37" d="M72.7362 62.2072C72.3258 62.5975 71.9657 63.0246 71.6599 63.4831C71.9657 63.0246 72.3258 62.5975 72.7362 62.2072Z" fill="#010101"/>
<path opacity="0.37" d="M78.8123 57.0421C78.808 57.0426 78.8041 57.0473 78.7998 57.0478C78.8041 57.0473 78.808 57.0426 78.8123 57.0421Z" fill="#010101"/>
<path d="M67.1921 82.7842C71.7728 78.3763 70.8357 74.5861 70.8357 74.5861C70.6107 73.1187 70.6058 71.7587 70.6909 70.5985L69.6251 70.2575C69.6111 70.5282 69.617 70.6762 69.617 70.6762C69.6103 70.7466 69.6087 70.821 69.6034 70.9051C69.5981 70.9893 69.5974 71.0729 69.5926 71.1616C69.588 71.3432 69.5844 71.5339 69.5803 71.7201C69.5813 72.0915 69.5941 72.443 69.6379 72.6428C69.8254 73.5197 69.8795 74.3175 69.8263 75.0659C69.7864 75.6271 69.6835 76.1624 69.5226 76.6757C69.4188 77.0207 69.2905 77.3543 69.1388 77.6856C68.9158 78.1821 68.645 78.665 68.3328 79.1521C68.1246 79.4753 67.9025 79.7999 67.6667 80.1259C67.4309 80.4519 67.1766 80.7798 66.9142 81.1179C66.7662 81.3049 66.6275 81.4909 66.4988 81.6852C66.3656 81.88 66.2416 82.0738 66.1231 82.2764C65.8902 82.6764 65.6867 83.092 65.5215 83.5175C65.3562 83.9431 65.2301 84.3879 65.1426 84.8473C65.0551 85.3066 65.015 85.7751 65.0186 86.2623C65.026 87.1484 65.2058 87.6778 65.6476 87.9111C65.7456 87.9614 65.8565 88.001 65.9843 88.0251C66.1122 88.0491 66.2524 88.0579 66.4054 88.0561C66.4656 88.0546 66.5254 88.0485 66.5902 88.0464C64.7151 85.5226 67.1921 82.7842 67.1921 82.7842Z" fill="#BF1A46"/>
<path d="M79.4596 57.5516L79.6722 57.3162L79.5954 57.2915C79.49 57.2606 79.3842 57.225 79.283 57.189C79.1294 57.1397 78.9757 57.0905 78.8221 57.0413C78.818 57.0463 78.8134 57.0468 78.8088 57.0473C78.7872 57.0634 78.7657 57.0796 78.7441 57.0957C78.5969 57.199 78.4464 57.3166 78.2836 57.4494C77.7181 57.9115 77.0697 58.2892 76.5245 58.7677C76.2223 59.0355 75.9247 59.3029 75.623 59.5753C75.3213 59.8477 75.0196 60.1202 74.7184 60.3972C74.1875 60.8789 73.6487 61.3753 73.0926 61.8828C73.0628 61.9091 73.0334 61.94 72.999 61.9667L73.9163 62.2626C76.3781 59.196 79.4596 57.5516 79.4596 57.5516Z" fill="#BF1A46"/>
<path d="M70.6916 70.6031C70.8548 68.3483 71.3752 66.8601 71.3752 66.8601C71.9266 65.0854 72.8602 63.5502 73.9028 62.2637L72.9856 61.9678C72.9347 62.0149 72.8838 62.0619 72.8329 62.1089C72.799 62.1402 72.7701 62.1757 72.7367 62.2116C72.3264 62.602 71.9662 63.029 71.6604 63.4876C71.3262 63.9863 71.0519 64.5252 70.8259 65.0824C70.5076 65.8719 70.2734 66.6203 70.101 67.2927C70.015 67.6312 69.9455 67.9495 69.8829 68.2438C69.8361 68.4668 69.8022 68.6792 69.772 68.882C69.7236 69.1795 69.6907 69.4475 69.6679 69.6774C69.6513 69.8323 69.6425 69.9725 69.6318 70.0944C69.6287 70.155 69.6252 70.2111 69.6212 70.2626L70.6916 70.6031Z" fill="#FCDDE2"/>
<path opacity="0.37" d="M70.6916 70.6031C70.8548 68.3483 71.3752 66.8601 71.3752 66.8601C71.9266 65.0854 72.8602 63.5502 73.9028 62.2637L72.9856 61.9678C72.9347 62.0149 72.8838 62.0619 72.8329 62.1089C72.799 62.1402 72.7701 62.1757 72.7367 62.2116C72.3264 62.602 71.9662 63.029 71.6604 63.4876C71.3262 63.9863 71.0519 64.5252 70.8259 65.0824C70.5076 65.8719 70.2734 66.6203 70.101 67.2927C70.015 67.6312 69.9455 67.9495 69.8829 68.2438C69.8361 68.4668 69.8022 68.6792 69.772 68.882C69.7236 69.1795 69.6907 69.4475 69.6679 69.6774C69.6513 69.8323 69.6425 69.9725 69.6318 70.0944C69.6287 70.155 69.6252 70.2111 69.6212 70.2626L70.6916 70.6031Z" fill="#010101"/>
<path d="M72.9853 61.968C72.9345 62.015 72.8836 62.062 72.8327 62.109C72.7988 62.1403 72.77 62.1758 72.7365 62.2117C72.7704 62.1804 72.7988 62.1403 72.8327 62.109C72.8831 62.0574 72.9345 62.015 72.9853 61.968Z" fill="#FCDDE2"/>
<path opacity="0.37" d="M72.9853 61.968C72.9345 62.015 72.8836 62.062 72.8327 62.109C72.7988 62.1403 72.77 62.1758 72.7365 62.2117C72.7704 62.1804 72.7988 62.1403 72.8327 62.109C72.8831 62.0574 72.9345 62.015 72.9853 61.968Z" fill="#010101"/>
<path d="M79.6294 54.7713C80.0318 54.3492 80.6087 54.225 81.1547 54.206C80.8466 54.1448 80.5404 54.102 80.2421 54.0908C80.0697 54.0853 79.9029 54.0885 79.7416 54.1004C79.7002 54.1046 79.6548 54.114 79.6144 54.1274C79.5294 54.1593 79.451 54.2092 79.3744 54.2774C79.2978 54.3456 79.2185 54.4327 79.1457 54.5377C79.1091 54.5879 79.0729 54.6427 79.0368 54.6975C78.9649 54.8116 78.8894 54.9355 78.8194 55.068C78.7495 55.2006 78.6758 55.3428 78.6068 55.4845C78.5103 55.6755 78.4189 55.8706 78.3179 56.0621C78.2904 56.1114 78.2676 56.1601 78.2406 56.214C78.1395 56.4055 78.0375 56.5877 77.9341 56.7562C78.0542 56.795 78.1696 56.8342 78.2897 56.8729L79.6294 54.7713Z" fill="#FCDDE2"/>
<path opacity="0.37" d="M79.6294 54.7713C80.0318 54.3492 80.6087 54.225 81.1547 54.206C80.8466 54.1448 80.5404 54.102 80.2421 54.0908C80.0697 54.0853 79.9029 54.0885 79.7416 54.1004C79.7002 54.1046 79.6548 54.114 79.6144 54.1274C79.5294 54.1593 79.451 54.2092 79.3744 54.2774C79.2978 54.3456 79.2185 54.4327 79.1457 54.5377C79.1091 54.5879 79.0729 54.6427 79.0368 54.6975C78.9649 54.8116 78.8894 54.9355 78.8194 55.068C78.7495 55.2006 78.6758 55.3428 78.6068 55.4845C78.5103 55.6755 78.4189 55.8706 78.3179 56.0621C78.2904 56.1114 78.2676 56.1601 78.2406 56.214C78.1395 56.4055 78.0375 56.5877 77.9341 56.7562C78.0542 56.795 78.1696 56.8342 78.2897 56.8729L79.6294 54.7713Z" fill="#010101"/>
<path d="M78.6162 56.9786C78.6401 56.9854 78.6691 56.9964 78.693 57.0032L78.3955 56.9084C78.4718 56.9285 78.544 56.9535 78.6162 56.9786Z" fill="#FCDDE2"/>
<path opacity="0.37" d="M78.6162 56.9786C78.6401 56.9854 78.6691 56.9964 78.693 57.0032L78.3955 56.9084C78.4718 56.9285 78.544 56.9535 78.6162 56.9786Z" fill="#010101"/>
<path d="M79.2786 57.1892L78.8132 57.042C78.9714 57.0907 79.125 57.1399 79.2786 57.1892Z" fill="#FCDDE2"/>
<path opacity="0.37" d="M79.2786 57.1892L78.8132 57.042C78.9714 57.0907 79.125 57.1399 79.2786 57.1892Z" fill="#010101"/>
<path d="M78.6975 57.0029L78.812 57.0418C78.7737 57.0273 78.7358 57.0174 78.6975 57.0029Z" fill="#FCDDE2"/>
<path opacity="0.37" d="M78.6975 57.0029L78.812 57.0418C78.7737 57.0273 78.7358 57.0174 78.6975 57.0029Z" fill="#010101"/>
<g filter="url(#filter1_d)">
<path d="M23.9985 57.1481C24.126 57.1092 24.2478 57.0617 24.3758 57.0125C24.3607 56.8615 24.3456 56.7105 24.3305 56.5594C24.3034 56.6075 24.2763 56.6555 24.2452 56.7013C24.1581 56.837 24.0883 56.9982 23.9985 57.1481Z" fill="#C42F49"/>
<path d="M23.6875 58.9259C23.7482 58.9866 23.8108 59.0535 23.8716 59.1142C23.8951 59.138 23.9226 59.1641 23.9461 59.1879C24.2156 59.3558 24.5004 59.5059 24.7988 59.632C24.7274 59.2908 24.6545 58.896 24.5831 58.4704C24.4984 58.5176 24.4074 58.5666 24.321 58.6076C24.1507 58.7597 23.9169 58.8653 23.6875 58.9259Z" fill="#C42F49"/>
<path d="M14.8858 66.2757C14.8858 66.2757 13.8801 59.9547 19.6301 61.1871C19.7293 60.9738 19.8222 60.7623 19.9214 60.5491C19.9451 60.4041 19.9711 60.2551 19.9988 60.1124C19.978 60.1587 19.9571 60.205 19.9385 60.2473C19.9288 60.2365 19.923 60.228 19.9065 60.2292C19.5676 60.2967 19.2418 60.4719 18.9128 60.5872C18.5042 60.7314 18.0686 60.7549 17.6505 60.8411C17.0197 60.8178 16.3958 60.6137 15.8214 60.2844C12.8963 62.2977 13.4441 65.9586 13.4441 65.9586C16.9802 78.7797 26.6961 75.4239 28.8141 74.5231C24.5662 75.2413 17.2073 75.1019 14.8858 66.2757Z" fill="#BF1A46"/>
<path d="M22.4755 56.6851C23.1167 56.2128 23.5771 55.5276 23.8745 54.7663C22.7244 55.4953 22.0862 56.3177 21.7442 57.0644C21.9815 56.9712 22.2021 56.8423 22.4284 56.7218C22.4414 56.7081 22.4585 56.6966 22.4755 56.6851Z" fill="#BF1A46"/>
<path d="M22.1862 60.0902C22.1884 60.0862 22.1867 60.0799 22.1867 60.0799C22.1564 60.0681 22.1261 60.0563 22.0935 60.0485C22.0784 60.1033 22.0553 60.1536 22.0322 60.2039L22.034 60.2102C22.0295 60.2182 22.0272 60.2222 22.0227 60.2302C21.9828 60.3291 21.9371 60.4194 21.8771 60.507C21.7113 60.9414 21.5054 61.3531 21.2858 61.7518C22.9266 62.2867 25.4879 62.8553 25.1162 61.0251C25.1162 61.0251 25.0801 60.8833 25.02 60.6436C24.9807 60.6478 24.9374 60.6497 24.898 60.6539C23.9921 60.6972 23.0063 60.5264 22.1862 60.0902Z" fill="#BF1A46"/>
<path d="M21.8017 57.5613C22.0778 57.6801 22.3652 57.7788 22.6649 57.837C22.32 57.6531 21.9837 57.4633 21.6563 57.2575C21.6305 57.3221 21.6063 57.393 21.5827 57.4536C21.6027 57.4649 21.6228 57.4761 21.6468 57.4897C21.6971 57.5128 21.7514 57.5382 21.8017 57.5613Z" fill="#C42F49"/>
<path d="M25.2145 54.8994C25.992 54.4195 26.8754 53.9202 27.8444 53.4375C27.8444 53.4375 28.1256 53.3321 28.5897 53.3141C27.261 52.9183 26.0525 53.4138 25.3312 53.8409C25.3356 53.9173 25.3401 53.9937 25.3365 54.0656C25.3329 54.3433 25.286 54.623 25.2145 54.8994Z" fill="#BF1A46"/>
<path d="M28.5855 53.312C28.1191 53.3339 27.8403 53.4353 27.8403 53.4353C26.8712 53.918 25.9918 54.4196 25.2103 54.8972C25.0584 55.466 24.7694 56.0157 24.387 56.4598C24.3689 56.4918 24.3508 56.5238 24.3288 56.5536C24.3439 56.7046 24.3567 56.8597 24.3741 57.0067C25.0182 56.7631 25.6185 56.4101 26.1457 55.9527C26.249 55.8632 26.3586 55.7719 26.4641 55.6784C26.5027 55.6474 26.5373 55.6141 26.5737 55.5871C26.6684 55.5033 26.7632 55.4195 26.858 55.3357C26.8966 55.3047 26.9334 55.2675 26.968 55.2342C27.0565 55.1521 27.1451 55.0701 27.2296 54.9858C27.2642 54.9525 27.2965 54.9233 27.3271 54.8877C27.4292 54.7817 27.5335 54.6716 27.6235 54.5588C27.9124 54.215 28.1516 53.8379 28.2798 53.414C28.2738 53.4528 28.266 53.4854 28.2649 53.5059C28.2194 54.0451 28.1245 54.5035 27.902 55.0009C27.6029 55.6715 27.1071 56.2416 26.6093 56.7685C26.0962 57.3131 25.3696 58.0117 24.5692 58.4575C24.6405 58.8831 24.7134 59.2779 24.7849 59.6191C25.6537 59.9878 26.6167 60.1615 27.5562 60.1055C27.4595 60.146 27.361 60.1802 27.2603 60.2184C27.2438 60.2196 27.2273 60.2209 27.2085 60.2261C26.4924 60.4662 25.7044 60.5812 25.0083 60.6267C25.0661 60.8704 25.1045 61.0082 25.1045 61.0082C25.474 62.8424 22.9189 62.2721 21.2741 61.7349C20.9031 62.4019 20.4601 63.0282 19.9182 63.6146C19.3763 64.201 18.7521 64.6618 18.0574 65.0512C17.7038 65.2476 17.3247 65.3769 16.9421 65.4936C16.7309 65.5592 16.331 65.7348 16.0385 65.7387C16.0799 65.6934 16.1212 65.6481 16.1689 65.6011C16.1689 65.6011 16.1729 65.6034 16.1752 65.5994C16.4803 65.3017 16.8728 65.027 17.1366 64.7746C17.6687 64.2618 18.1359 63.6861 18.5614 63.0815C18.9892 62.473 19.3135 61.8325 19.6138 61.1784C13.8638 59.9461 14.8695 66.267 14.8695 66.267C17.195 75.0955 24.554 75.2348 28.7961 74.5081C29.0612 74.3938 29.2091 74.3188 29.2091 74.3188C29.399 74.2254 29.5832 74.1234 29.7554 74.0147C29.8782 73.9467 30.009 73.8832 30.1261 73.8067C35.2978 70.6273 37.0567 63.9814 34.5141 58.4667C32.3696 53.7996 29.8192 53.2583 28.5855 53.312Z" fill="#EA1E55"/>
<path d="M29.7653 74.0252C29.5891 74.1317 29.4089 74.2359 29.219 74.3293C29.4112 74.2319 29.5874 74.1254 29.7653 74.0252Z" fill="#EF4537"/>
<path d="M17.9568 51.9507C18.029 51.9069 18.1052 51.8655 18.1813 51.824C18.1052 51.8655 18.029 51.9069 17.9568 51.9507Z" fill="#109C49"/>
<path d="M20.0391 60.0034C20.0042 60.084 19.951 60.1596 19.9023 60.2271C19.9188 60.2259 19.9268 60.2304 19.9343 60.2452C19.9552 60.1989 19.976 60.1526 19.9946 60.1103C19.9686 60.2593 19.9449 60.4042 19.9172 60.547C19.822 60.7625 19.7228 60.9757 19.6259 61.185C19.3256 61.839 18.999 62.4835 18.5735 63.0881C18.148 63.6927 17.6807 64.2684 17.1487 64.7812C16.8849 65.0335 16.4901 65.3123 16.1872 65.606C16.5879 65.6631 17.017 65.3983 17.3408 65.1798C18.1464 64.6313 18.8509 63.9625 19.4632 63.2046C20.0777 62.4428 20.7455 61.5209 21.0477 60.5829C21.1407 60.287 21.2495 59.5513 21.6722 59.5786C21.9084 59.5904 22.0094 59.9166 22.0326 60.1936C22.0517 60.1411 22.0748 60.0907 22.0939 60.0382C22.1242 60.05 22.1545 60.0618 22.1871 60.0696C22.1848 60.0736 22.1865 60.0799 22.1865 60.0799C23.0067 60.5161 23.9925 60.6869 24.8989 60.6334C24.9383 60.6291 24.9816 60.6272 25.0209 60.623C25.7232 60.5757 26.505 60.4625 27.2211 60.2224C26.4337 60.3642 25.6233 60.3505 24.846 60.1284C24.3467 59.984 23.8749 59.7443 23.4756 59.4135C23.2224 59.2073 22.7797 58.757 22.9459 58.3968C23.2542 58.6551 23.5459 58.9147 23.8742 59.0999C23.8134 59.0392 23.7486 58.9763 23.6901 58.9116C23.9196 58.851 24.1471 58.7471 24.3196 58.591C24.4061 58.5501 24.497 58.5011 24.5818 58.4538C25.3822 58.008 26.1088 57.3094 26.6219 56.7648C27.1197 56.238 27.6115 55.6655 27.9146 54.9972C28.1371 54.4998 28.232 54.0414 28.2775 53.5022C28.2786 53.4817 28.2864 53.4491 28.2924 53.4103C28.1619 53.8382 27.925 54.2113 27.6361 54.5551C27.6469 54.5453 27.6537 54.5333 27.6645 54.5236C27.5738 54.7311 27.4751 54.9341 27.3685 55.1325C26.9485 55.9144 26.3113 56.5949 25.5554 57.0553C24.4511 57.7309 22.8214 57.8409 21.6335 57.2236C21.6415 57.2281 21.6495 57.2327 21.6575 57.2372C21.9849 57.4429 22.3212 57.6327 22.6661 57.8167C22.3624 57.7562 22.079 57.6597 21.8029 57.5409C21.8492 57.5617 21.8995 57.5848 21.9458 57.6057C20.0876 57.344 18.6404 55.8203 18.2459 53.9931C18.1335 53.481 18.2673 53.0286 18.3233 52.527C18.3526 52.2691 18.2026 52.0578 17.962 51.9696C17.9438 51.9646 17.9295 51.9618 17.9152 51.959C17.6067 52.1598 17.3744 52.4405 17.3524 52.882C17.3353 53.3052 17.4389 53.786 17.6277 54.2092C17.7297 54.3934 17.8465 54.5701 17.9637 54.7365C18.1636 55.1027 18.3766 55.4551 18.6396 55.7935C18.951 56.1961 19.2771 56.5912 19.6185 56.9685C20.1234 57.5331 20.7965 58.277 20.3946 59.0268C20.3824 58.983 20.3747 58.9311 20.378 58.9066C20.4455 58.5435 20.2965 58.1902 20.0802 57.8624C20.0646 57.9275 20.049 57.9926 20.0169 58.0589C19.9285 58.2624 19.7552 58.3917 19.586 58.5232C19.5497 58.5502 19.5156 58.5732 19.4753 58.598C19.4793 58.6002 19.477 58.6042 19.481 58.6065C19.4594 58.626 19.4401 58.6415 19.4146 58.6587L19.4151 58.6485C19.4156 58.6382 19.4179 58.6342 19.4201 58.6302C17.4559 59.829 14.6639 58.8083 13.5982 56.7767C13.5153 56.6243 13.4471 56.4644 13.3681 56.3143C13.3343 56.3744 13.3169 56.4332 13.3138 56.4948C13.7136 57.7232 14.7742 58.7438 15.8188 59.428C17.0522 60.2452 18.6458 60.4896 20.0391 60.0034Z" fill="#00AE69"/>
<path d="M22.036 60.2065L22.0343 60.2003C22.0299 60.2082 22.0294 60.2182 22.0249 60.2261C22.0294 60.2182 22.0338 60.2104 22.036 60.2065Z" fill="#C42F49"/>
<path d="M22.036 60.2065L22.0343 60.2003C22.0299 60.2082 22.0294 60.2182 22.0249 60.2261C22.0294 60.2182 22.0338 60.2104 22.036 60.2065Z" fill="#109C49"/>
<path d="M16.1787 65.6117C16.1334 65.6547 16.0897 65.704 16.0483 65.7493C16.0897 65.704 16.1414 65.6592 16.1827 65.6139C16.185 65.6099 16.1827 65.6139 16.1787 65.6117Z" fill="#EF4537"/>
<path d="M16.1787 65.6117C16.1334 65.6547 16.0897 65.704 16.0483 65.7493C16.0897 65.704 16.1414 65.6592 16.1827 65.6139C16.185 65.6099 16.1827 65.6139 16.1787 65.6117Z" fill="#109C49"/>
<path d="M22.0249 60.2262C22.0295 60.2182 22.03 60.2079 22.0345 60.1999C22.0073 59.9206 21.9102 59.5967 21.6741 59.5849C21.2491 59.5616 21.1425 60.2932 21.0495 60.5891C20.7474 61.5272 20.0773 62.453 19.4651 63.2109C18.8528 63.9688 18.1482 64.6376 17.3427 65.1861C17.0188 65.4046 16.5897 65.6693 16.1891 65.6122C16.1415 65.6593 16.0921 65.7 16.0547 65.7476C16.3472 65.7437 16.7494 65.5641 16.9583 65.5025C17.3409 65.3857 17.724 65.2587 18.0736 65.06C18.766 64.6747 19.3925 64.2098 19.9344 63.6234C20.4803 63.0393 20.9193 62.4107 21.2903 61.7437C21.5099 61.345 21.7158 60.9333 21.8816 60.499C21.9393 60.4154 21.9873 60.321 22.0249 60.2262Z" fill="#109C49"/>
<path d="M22.0249 60.2262C22.0295 60.2182 22.03 60.2079 22.0345 60.1999C22.0073 59.9206 21.9102 59.5967 21.6741 59.5849C21.2491 59.5616 21.1425 60.2932 21.0495 60.5891C20.7474 61.5272 20.0773 62.453 19.4651 63.2109C18.8528 63.9688 18.1482 64.6376 17.3427 65.1861C17.0188 65.4046 16.5897 65.6693 16.1891 65.6122C16.1415 65.6593 16.0921 65.7 16.0547 65.7476C16.3472 65.7437 16.7494 65.5641 16.9583 65.5025C17.3409 65.3857 17.724 65.2587 18.0736 65.06C18.766 64.6747 19.3925 64.2098 19.9344 63.6234C20.4803 63.0393 20.9193 62.4107 21.2903 61.7437C21.5099 61.345 21.7158 60.9333 21.8816 60.499C21.9393 60.4154 21.9873 60.321 22.0249 60.2262Z" fill="#109C49"/>
<path d="M21.6165 57.2351C21.6205 57.2373 21.6285 57.2418 21.6325 57.2441C21.5827 57.2107 21.5284 57.1854 21.4786 57.152C21.5266 57.1791 21.5684 57.208 21.6165 57.2351Z" fill="#109C49"/>
<path d="M25.5545 57.0757C26.3104 56.6153 26.9476 55.9349 27.3675 55.153C27.4742 54.9545 27.5689 54.7493 27.6635 54.544C27.6527 54.5538 27.646 54.5658 27.6352 54.5755C27.5411 54.6861 27.4408 54.7984 27.3388 54.9045C27.3042 54.9378 27.2696 54.971 27.2412 55.0026C27.1567 55.0869 27.0682 55.1689 26.9797 55.2509C26.9451 55.2842 26.9042 55.3192 26.8696 55.3525C26.7749 55.4363 26.6801 55.5201 26.5853 55.6039C26.5467 55.6349 26.5121 55.6681 26.4758 55.6951C26.3662 55.7864 26.2607 55.8799 26.1574 55.9695C25.6301 56.4269 25.0299 56.7798 24.3857 57.0235C24.2599 57.0687 24.1359 57.1201 24.0084 57.159C24.092 57.0109 24.1618 56.8496 24.2511 56.71C24.2822 56.6642 24.3093 56.6162 24.3364 56.5681C24.3545 56.5361 24.3766 56.5063 24.3946 56.4743C24.7771 56.0302 25.066 55.4806 25.218 54.9117C25.2934 54.6376 25.3364 54.3556 25.34 54.0779C25.3395 54.0038 25.3391 53.9296 25.3347 53.8532C25.3036 53.2814 25.1193 52.6443 24.707 52.2429C24.4656 52.0064 24.0601 51.6773 23.6587 51.5935C24.2802 52.2977 24.2944 53.4142 24.0376 54.3092C23.9906 54.4675 23.9356 54.6212 23.8743 54.7766C23.5768 55.5379 23.1164 56.223 22.4752 56.6953C22.4582 56.7068 22.4411 56.7183 22.4241 56.7298C22.1978 56.8503 21.9795 56.9752 21.74 57.0724C21.7126 57.0834 21.6871 57.1006 21.6558 57.1093C21.5971 57.1291 21.5385 57.1488 21.4741 57.16C21.5239 57.1933 21.576 57.2227 21.628 57.2521C22.8164 57.8591 24.4502 57.7514 25.5545 57.0757Z" fill="#109C49"/>
<path d="M25.5545 57.0757C26.3104 56.6153 26.9476 55.9349 27.3675 55.153C27.4742 54.9545 27.5689 54.7493 27.6635 54.544C27.6527 54.5538 27.646 54.5658 27.6352 54.5755C27.5411 54.6861 27.4408 54.7984 27.3388 54.9045C27.3042 54.9378 27.2696 54.971 27.2412 55.0026C27.1567 55.0869 27.0682 55.1689 26.9797 55.2509C26.9451 55.2842 26.9042 55.3192 26.8696 55.3525C26.7749 55.4363 26.6801 55.5201 26.5853 55.6039C26.5467 55.6349 26.5121 55.6681 26.4758 55.6951C26.3662 55.7864 26.2607 55.8799 26.1574 55.9695C25.6301 56.4269 25.0299 56.7798 24.3857 57.0235C24.2599 57.0687 24.1359 57.1201 24.0084 57.159C24.092 57.0109 24.1618 56.8496 24.2511 56.71C24.2822 56.6642 24.3093 56.6162 24.3364 56.5681C24.3545 56.5361 24.3766 56.5063 24.3946 56.4743C24.7771 56.0302 25.066 55.4806 25.218 54.9117C25.2934 54.6376 25.3364 54.3556 25.34 54.0779C25.3395 54.0038 25.3391 53.9296 25.3347 53.8532C25.3036 53.2814 25.1193 52.6443 24.707 52.2429C24.4656 52.0064 24.0601 51.6773 23.6587 51.5935C24.2802 52.2977 24.2944 53.4142 24.0376 54.3092C23.9906 54.4675 23.9356 54.6212 23.8743 54.7766C23.5768 55.5379 23.1164 56.223 22.4752 56.6953C22.4582 56.7068 22.4411 56.7183 22.4241 56.7298C22.1978 56.8503 21.9795 56.9752 21.74 57.0724C21.7126 57.0834 21.6871 57.1006 21.6558 57.1093C21.5971 57.1291 21.5385 57.1488 21.4741 57.16C21.5239 57.1933 21.576 57.2227 21.628 57.2521C22.8164 57.8591 24.4502 57.7514 25.5545 57.0757Z" fill="#109C49"/>
<path d="M18.3224 52.5476C18.2664 53.0491 18.1326 53.5015 18.245 54.0136C18.6417 55.8368 20.0827 57.3622 21.945 57.6262C21.8964 57.6094 21.8483 57.5822 21.802 57.5614C21.7517 57.5383 21.6992 57.5192 21.6471 57.4898C21.6271 57.4785 21.6071 57.4673 21.583 57.4537C21.5047 57.4148 21.4326 57.3741 21.3565 57.3312C21.3205 57.3109 21.2804 57.2883 21.2444 57.268C21.1145 57.1894 20.9891 57.1029 20.866 57.0123C20.8363 56.9902 20.8087 56.9641 20.779 56.9421C20.6879 56.8696 20.5928 56.7948 20.504 56.7183C20.4627 56.6792 20.4232 56.6464 20.3819 56.6073C20.3051 56.5375 20.2346 56.4661 20.16 56.3924C20.121 56.3492 20.0797 56.3101 20.0407 56.267C19.9684 56.1893 19.8984 56.1075 19.8244 56.0235C19.7934 55.9849 19.7601 55.9503 19.7291 55.9117C19.6303 55.7874 19.5355 55.6653 19.4453 55.5352C19.3531 55.3618 19.2717 55.1786 19.2005 54.996C19.197 54.9834 19.198 54.9629 19.1973 54.9361C19.1828 54.8963 19.1724 54.8587 19.1596 54.8251C18.9478 54.1619 18.8364 53.5079 18.9124 52.8117C18.9688 52.2999 19.5646 51.253 18.5143 51.674C18.4238 51.7127 18.3294 51.7491 18.2406 51.7941C18.2196 51.8034 18.1985 51.8126 18.1775 51.8218C18.0973 51.8611 18.0251 51.9048 17.9529 51.9485C17.9382 51.956 17.9234 51.9635 17.9103 51.9773C17.9246 51.9801 17.9429 51.9851 17.9572 51.9879C18.2017 52.0783 18.3517 52.2896 18.3224 52.5476Z" fill="#109C49"/>
<path d="M18.3224 52.5476C18.2664 53.0491 18.1326 53.5015 18.245 54.0136C18.6417 55.8368 20.0827 57.3622 21.945 57.6262C21.8964 57.6094 21.8483 57.5822 21.802 57.5614C21.7517 57.5383 21.6992 57.5192 21.6471 57.4898C21.6271 57.4785 21.6071 57.4673 21.583 57.4537C21.5047 57.4148 21.4326 57.3741 21.3565 57.3312C21.3205 57.3109 21.2804 57.2883 21.2444 57.268C21.1145 57.1894 20.9891 57.1029 20.866 57.0123C20.8363 56.9902 20.8087 56.9641 20.779 56.9421C20.6879 56.8696 20.5928 56.7948 20.504 56.7183C20.4627 56.6792 20.4232 56.6464 20.3819 56.6073C20.3051 56.5375 20.2346 56.4661 20.16 56.3924C20.121 56.3492 20.0797 56.3101 20.0407 56.267C19.9684 56.1893 19.8984 56.1075 19.8244 56.0235C19.7934 55.9849 19.7601 55.9503 19.7291 55.9117C19.6303 55.7874 19.5355 55.6653 19.4453 55.5352C19.3531 55.3618 19.2717 55.1786 19.2005 54.996C19.197 54.9834 19.198 54.9629 19.1973 54.9361C19.1828 54.8963 19.1724 54.8587 19.1596 54.8251C18.9478 54.1619 18.8364 53.5079 18.9124 52.8117C18.9688 52.2999 19.5646 51.253 18.5143 51.674C18.4238 51.7127 18.3294 51.7491 18.2406 51.7941C18.2196 51.8034 18.1985 51.8126 18.1775 51.8218C18.0973 51.8611 18.0251 51.9048 17.9529 51.9485C17.9382 51.956 17.9234 51.9635 17.9103 51.9773C17.9246 51.9801 17.9429 51.9851 17.9572 51.9879C18.2017 52.0783 18.3517 52.2896 18.3224 52.5476Z" fill="#109C49"/>
<path d="M17.9104 51.9773C17.9104 51.9773 17.9144 51.9796 17.9104 51.9773C17.9252 51.9698 17.9423 51.9582 17.9571 51.9507C17.9423 51.9582 17.9275 51.9658 17.9104 51.9773Z" fill="#109C49"/>
<path d="M17.9104 51.9773C17.9104 51.9773 17.9144 51.9796 17.9104 51.9773C17.9252 51.9698 17.9423 51.9582 17.9571 51.9507C17.9423 51.9582 17.9275 51.9658 17.9104 51.9773Z" fill="#109C49"/>
<path d="M21.5829 57.4536C21.5046 57.4147 21.4325 57.374 21.3564 57.3311C21.4302 57.378 21.5086 57.4169 21.5829 57.4536Z" fill="#109C49"/>
<path d="M21.5829 57.4536C21.5046 57.4147 21.4325 57.374 21.3564 57.3311C21.4302 57.378 21.5086 57.4169 21.5829 57.4536Z" fill="#109C49"/>
<path d="M23.8715 59.1142C23.895 59.138 23.9225 59.1641 23.946 59.1879C23.9225 59.1641 23.895 59.138 23.8715 59.1142Z" fill="#C42F49"/>
<path d="M23.8715 59.1142C23.895 59.138 23.9225 59.1641 23.946 59.1879C23.9225 59.1641 23.895 59.138 23.8715 59.1142Z" fill="#109C49"/>
<path d="M27.2765 60.2272C27.3749 60.193 27.4757 60.1548 27.5724 60.1143C27.4609 60.1623 27.3419 60.1954 27.2246 60.2349C27.2371 60.2314 27.2577 60.2324 27.2765 60.2272Z" fill="#EF4537"/>
<path d="M27.2765 60.2272C27.3749 60.193 27.4757 60.1548 27.5724 60.1143C27.4609 60.1623 27.3419 60.1954 27.2246 60.2349C27.2371 60.2314 27.2577 60.2324 27.2765 60.2272Z" fill="#109C49"/>
<path d="M23.9459 59.188C23.9224 59.1642 23.8949 59.1381 23.8714 59.1143C23.5408 58.9331 23.2491 58.6735 22.9431 58.4112C22.7769 58.7713 23.2196 59.2217 23.4728 59.4278C23.8744 59.7547 24.3439 59.9984 24.8431 60.1428C25.6205 60.3648 26.4309 60.3786 27.2182 60.2368C27.3355 60.1974 27.4545 60.1642 27.566 60.1162C26.6265 60.1722 25.6635 59.9985 24.7947 59.6298C24.5003 59.506 24.2155 59.3559 23.9459 59.188Z" fill="#109C49"/>
<path d="M23.9459 59.188C23.9224 59.1642 23.8949 59.1381 23.8714 59.1143C23.5408 58.9331 23.2491 58.6735 22.9431 58.4112C22.7769 58.7713 23.2196 59.2217 23.4728 59.4278C23.8744 59.7547 24.3439 59.9984 24.8431 60.1428C25.6205 60.3648 26.4309 60.3786 27.2182 60.2368C27.3355 60.1974 27.4545 60.1642 27.566 60.1162C26.6265 60.1722 25.6635 59.9985 24.7947 59.6298C24.5003 59.506 24.2155 59.3559 23.9459 59.188Z" fill="#109C49"/>
<path d="M18.9087 60.585C19.2354 60.4737 19.5634 60.2945 19.9024 60.2271C19.9533 60.1555 20.0042 60.0839 20.0391 60.0033C18.6435 60.4935 17.05 60.2492 15.8223 59.4405C14.78 58.7523 13.7171 57.7357 13.3174 56.5073C13.312 56.5729 13.3232 56.6373 13.3487 56.7044C13.4724 57.1121 13.6144 57.5247 13.795 57.9064C14.1632 58.6947 14.6742 59.5108 15.3938 60.0223C15.529 60.1196 15.6731 60.2009 15.8173 60.2823C16.3939 60.6075 17.0178 60.8116 17.6464 60.839C18.0667 60.7488 18.5023 60.7253 18.9087 60.585Z" fill="#109C49"/>
<path d="M18.9087 60.585C19.2354 60.4737 19.5634 60.2945 19.9024 60.2271C19.9533 60.1555 20.0042 60.0839 20.0391 60.0033C18.6435 60.4935 17.05 60.2492 15.8223 59.4405C14.78 58.7523 13.7171 57.7357 13.3174 56.5073C13.312 56.5729 13.3232 56.6373 13.3487 56.7044C13.4724 57.1121 13.6144 57.5247 13.795 57.9064C14.1632 58.6947 14.6742 59.5108 15.3938 60.0223C15.529 60.1196 15.6731 60.2009 15.8173 60.2823C16.3939 60.6075 17.0178 60.8116 17.6464 60.839C18.0667 60.7488 18.5023 60.7253 18.9087 60.585Z" fill="#109C49"/>
</g>
<g filter="url(#filter2_d)">
<path d="M42.7237 83.6182C43.286 82.7358 43.9519 81.9194 44.7098 81.1867C44.6037 81.0878 44.5012 80.9927 44.4027 80.8867C41.7155 77.9956 41.8807 73.4761 44.7717 70.7889C47.6628 68.1017 52.1823 68.2668 54.8695 71.1579C56.5473 72.9629 57.1123 75.4072 56.5958 77.6365C58.3637 77.9753 60.0423 78.6581 61.5379 79.6449L55.8963 62.3672L37.727 68.3015L42.7237 83.6182Z" fill="#FAAC19"/>
<path d="M56.2641 59.7119L35.8379 66.3826L37.7199 68.3011L55.8892 62.3667L56.2789 59.7051L56.2641 59.7119Z" fill="#FAAC19"/>
<path d="M41.8425 91.3284L42.2964 92.7121L42.8522 91.7089L43.8911 92.1892L44.4468 91.1859L45.4893 91.67L46.045 90.6668L47.0839 91.147L47.6397 90.1438L48.6786 90.6241L49.2379 89.6246L50.2768 90.1049L50.8325 89.1017L51.8749 89.5857L52.4307 88.5825L53.4696 89.0628L54.0254 88.0595L55.0716 88.5401L55.6273 87.5368L56.6662 88.0171L57.2255 87.0176L58.2644 87.4979L58.8202 86.4947L59.8591 86.975L60.4183 85.9755L61.461 86.4523L62.0168 85.449L63.0592 85.9331L63.615 84.9299L64.6539 85.4102L64.2037 84.0229L43.7776 90.6936L41.8425 91.3284Z" fill="#EF484F"/>
<path d="M35.8378 66.3826L56.264 59.7119L55.8101 58.3281L55.2581 59.3279L54.2154 58.8511L53.6599 59.847L52.6172 59.3703L52.0615 60.3735L51.0226 59.8932L50.4633 60.8927L49.4244 60.4124L48.8686 61.4157L47.8297 60.9354L47.2705 61.9348L46.2316 61.4545L45.6758 62.4578L44.6369 61.9775L44.0776 62.977L43.0387 62.4967L42.483 63.4999L41.4403 63.0232L40.881 64.0226L39.8421 63.5423L39.2863 64.5456L38.2474 64.0653L37.6882 65.0648L36.6455 64.588L36.0862 65.5875L35.0473 65.1072L34.4915 66.1104L33.4526 65.6301L33.903 67.0101L35.8378 66.3826Z" fill="#EF484F"/>
<path d="M54.501 81.2557C51.7159 83.8444 47.423 83.7789 44.7102 81.1867C43.9523 81.9193 43.2864 82.7358 42.7241 83.6182L44.1676 88.032L43.7779 90.6936L64.2041 84.0229L64.2189 84.0162L62.3335 82.0939L61.5313 79.6373C60.0392 78.6542 58.3571 77.9677 56.5892 77.6289C56.2841 78.9776 55.5832 80.2497 54.501 81.2557Z" fill="#FAAC19"/>
<path d="M44.1673 88.0316L42.7238 83.6177L37.7198 68.3008L35.8378 66.3823L33.903 67.0098L35.7885 68.9321L42.2323 88.6664L41.8426 91.328L43.7776 90.6932L44.1673 88.0316Z" fill="#FAAC19"/>
<path d="M44.1673 88.0316L42.7238 83.6177L37.7198 68.3008L35.8378 66.3823L33.903 67.0098L35.7885 68.9321L42.2323 88.6664L41.8426 91.328L43.7776 90.6932L44.1673 88.0316Z" fill="#D6D7D7"/>
<path d="M35.8376 66.3825L33.9028 67.01L35.8376 66.3825Z" fill="#FAAC19"/>
<path d="M35.8376 66.3825L33.9028 67.01L35.8376 66.3825Z" fill="#D6D7D7"/>
<path d="M35.8376 66.3825L33.9028 67.01L35.8376 66.3825Z" fill="#FAAC19"/>
<path d="M35.8376 66.3825L33.9028 67.01L35.8376 66.3825Z" fill="#D6D7D7"/>
<path d="M54.5008 81.2555C55.5868 80.246 56.2874 78.9812 56.5961 77.6363C57.1091 75.4032 56.5476 72.9627 54.8698 71.1577C52.1826 68.2666 47.663 68.1015 44.772 70.7887C41.8809 73.4759 41.7158 77.9954 44.403 80.8865C44.5015 80.9924 44.6078 81.0841 44.71 81.1865C47.4228 83.7787 51.7157 83.8442 54.5008 81.2555ZM53.0486 75.5802C53.266 75.632 53.4589 75.756 53.6169 75.9336C54.351 76.2529 54.5914 77.4753 54.1366 78.7162C53.677 79.9898 52.6717 80.7902 51.896 80.5096C51.6399 80.4162 51.4465 80.2081 51.3103 79.9326C50.8828 79.4271 50.7217 78.5329 50.9465 77.5834C51.2612 76.2752 52.2004 75.381 53.0486 75.5802ZM44.8012 73.5899C44.9038 73.2829 45.0779 73.0224 45.3225 72.8303C46.2856 72.0832 48.0071 72.6908 49.1623 74.1916C49.3262 74.406 49.468 74.6268 49.5953 74.8471C50.541 76.1758 50.6783 77.7198 49.8458 78.4936C48.896 79.3764 47.0478 78.936 45.7145 77.5092C44.5042 76.2147 44.1411 74.5491 44.8012 73.5899Z" fill="#EF484F"/>
<path d="M54.0043 78.324C53.6897 79.6322 52.7502 80.5337 51.9058 80.331C51.6703 80.2749 51.4744 80.1324 51.3061 79.9362C51.4423 80.2117 51.6357 80.4198 51.8918 80.5133C52.6675 80.7938 53.6728 79.9935 54.1324 78.7198C54.5799 77.4787 54.3467 76.2565 53.6127 75.9372C54.0626 76.4289 54.2372 77.3528 54.0043 78.324Z" fill="#E09C26"/>
<path d="M51.3063 79.9361C51.4711 80.1285 51.6705 80.2747 51.906 80.3309C52.7504 80.5335 53.6934 79.6358 54.0046 78.3239C54.2374 77.3527 54.0591 76.4323 53.6129 75.9371C53.4549 75.7595 53.2655 75.6393 53.0446 75.5837C52.2002 75.381 51.2572 76.2787 50.946 77.5907C50.7215 78.5329 50.8826 79.4271 51.3063 79.9361Z" fill="#FAAC19"/>
<path d="M49.8454 78.5008C50.6817 77.7235 50.5406 76.183 49.5948 74.8544C50.3391 76.1939 50.3382 77.6196 49.5108 78.2547C48.5476 79.0017 46.8261 78.3942 45.671 76.8934C44.8089 75.7762 44.5051 74.4856 44.8046 73.5936C44.1482 74.5493 44.5076 76.2184 45.7178 77.5129C47.0473 78.9433 48.8956 79.3837 49.8454 78.5008Z" fill="#E09C26"/>
<path d="M45.6674 76.8971C46.8263 78.3944 48.5441 79.0055 49.5072 78.2584C50.3349 77.616 50.3358 76.1904 49.5912 74.8581C49.4678 74.6343 49.326 74.4134 49.1583 74.2026C47.9993 72.7053 46.2816 72.0942 45.3185 72.8413C45.0738 73.0334 44.8998 73.2939 44.7972 73.6009C44.5015 74.4894 44.8053 75.7799 45.6674 76.8971Z" fill="#FAAC19"/>
</g>
<g filter="url(#filter3_d)">
<path d="M33.4176 85.121C33.4814 83.5249 35.2984 82.644 36.591 83.5824L37.9067 84.5376C38.5601 85.0119 39.4346 85.0469 40.1237 84.6262L43.5631 82.5267C44.2523 82.1061 45.1268 82.141 45.7802 82.6154L49.0499 84.9891C49.6988 85.4602 50.5663 85.4982 51.2539 85.0856L54.7847 82.967C55.4772 82.5515 56.3515 82.5932 57.0013 83.0727L60.1812 85.4192C60.831 85.8987 61.7053 85.9404 62.3978 85.5249L65.9286 83.4063C66.6162 82.9937 67.4838 83.0317 68.1326 83.5028L71.3839 85.8631C72.0465 86.3442 72.9355 86.3727 73.6276 85.9351L74.7919 85.199C76.1542 84.3377 77.9235 85.3589 77.8591 86.9693L76.2218 127.929C76.1777 129.033 75.2472 129.892 74.1435 129.848L33.696 128.231C32.5923 128.187 31.7333 127.256 31.7775 126.153L33.4176 85.121Z" fill="#8B10C5"/>
</g>
<path d="M54.8779 99.963L46.8469 99.642C46.3565 99.6197 45.8948 99.4015 45.5621 99.0349C45.2293 98.6683 45.0524 98.1828 45.0697 97.6838C45.0769 97.4355 45.1328 97.1912 45.2342 96.965C45.3355 96.7389 45.4802 96.5355 45.6598 96.3669C45.8394 96.1983 46.0502 96.0678 46.2799 95.9832C46.5096 95.8985 46.7536 95.8613 46.9975 95.8738L59.0263 96.3547C59.2705 96.3617 59.5107 96.4182 59.7329 96.5209C59.9552 96.6237 60.1549 96.7706 60.3205 96.953C60.486 97.1354 60.614 97.3496 60.697 97.5831C60.7799 97.8166 60.8162 98.0647 60.8035 98.3128C60.7647 98.8145 60.5379 99.2822 60.1699 99.6192L49.918 111.097L58.4234 111.437C58.6676 111.444 58.9078 111.501 59.13 111.604C59.3523 111.706 59.552 111.853 59.7176 112.036C59.8831 112.218 60.0111 112.432 60.0941 112.666C60.177 112.899 60.2133 113.147 60.2006 113.396C60.178 113.894 59.9629 114.364 59.602 114.703C59.241 115.042 58.7634 115.222 58.2728 115.206L45.82 114.708C45.3244 114.683 44.8592 114.458 44.5263 114.085C44.1934 113.711 44.02 113.218 44.0442 112.714C44.0771 112.216 44.2903 111.748 44.6427 111.401L54.8779 99.963Z" fill="url(#paint0_linear)"/>
<path opacity="0.3" d="M75.1231 85.1508L74.138 85.5448C73.4397 85.8241 72.9571 86.4716 72.889 87.2207L69.1064 128.828C69.0506 129.442 69.5585 129.96 70.1736 129.916L74.2227 129.627C75.2357 129.555 76.0337 128.734 76.0783 127.72L77.8639 87.0955C77.9277 85.6443 76.4719 84.6113 75.1231 85.1508Z" fill="white"/>
<defs>
<filter id="filter0_d" x="41.0151" y="27.8743" width="50.2624" height="55.1761" filterUnits="userSpaceOnUse" color-interpolation-filters="sRGB">
<feFlood flood-opacity="0" result="BackgroundImageFix"/>
<feColorMatrix in="SourceAlpha" type="matrix" values="0 0 0 0 0 0 0 0 0 0 0 0 0 0 0 0 0 0 127 0" result="hardAlpha"/>
<feOffset dy="4"/>
<feGaussianBlur stdDeviation="5"/>
<feComposite in2="hardAlpha" operator="out"/>
<feColorMatrix type="matrix" values="0 0 0 0 0 0 0 0 0 0 0 0 0 0 0 0 0 0 0.25 0"/>
<feBlend mode="normal" in2="BackgroundImageFix" result="effect1_dropShadow"/>
<feBlend mode="normal" in="SourceGraphic" in2="effect1_dropShadow" result="shape"/>
</filter>
<filter id="filter1_d" x="9.31372" y="51.5764" width="30.3516" height="32.0156" filterUnits="userSpaceOnUse" color-interpolation-filters="sRGB">
<feFlood flood-opacity="0" result="BackgroundImageFix"/>
<feColorMatrix in="SourceAlpha" type="matrix" values="0 0 0 0 0 0 0 0 0 0 0 0 0 0 0 0 0 0 127 0" result="hardAlpha"/>
<feOffset dy="4"/>
<feGaussianBlur stdDeviation="2"/>
<feComposite in2="hardAlpha" operator="out"/>
<feColorMatrix type="matrix" values="0 0 0 0 0 0 0 0 0 0 0 0 0 0 0 0 0 0 0.25 0"/>
<feBlend mode="normal" in2="BackgroundImageFix" result="effect1_dropShadow"/>
<feBlend mode="normal" in="SourceGraphic" in2="effect1_dropShadow" result="shape"/>
</filter>
<filter id="filter2_d" x="29.4526" y="58.3281" width="39.2012" height="42.3841" filterUnits="userSpaceOnUse" color-interpolation-filters="sRGB">
<feFlood flood-opacity="0" result="BackgroundImageFix"/>
<feColorMatrix in="SourceAlpha" type="matrix" values="0 0 0 0 0 0 0 0 0 0 0 0 0 0 0 0 0 0 127 0" result="hardAlpha"/>
<feOffset dy="4"/>
<feGaussianBlur stdDeviation="2"/>
<feComposite in2="hardAlpha" operator="out"/>
<feColorMatrix type="matrix" values="0 0 0 0 0 0 0 0 0 0 0 0 0 0 0 0 0 0 0.25 0"/>
<feBlend mode="normal" in2="BackgroundImageFix" result="effect1_dropShadow"/>
<feBlend mode="normal" in="SourceGraphic" in2="effect1_dropShadow" result="shape"/>
</filter>
<filter id="filter3_d" x="27.7759" y="81.2339" width="54.085" height="55.6155" filterUnits="userSpaceOnUse" color-interpolation-filters="sRGB">
<feFlood flood-opacity="0" result="BackgroundImageFix"/>
<feColorMatrix in="SourceAlpha" type="matrix" values="0 0 0 0 0 0 0 0 0 0 0 0 0 0 0 0 0 0 127 0" result="hardAlpha"/>
<feOffset dy="3"/>
<feGaussianBlur stdDeviation="2"/>
<feColorMatrix type="matrix" values="0 0 0 0 0 0 0 0 0 0 0 0 0 0 0 0 0 0 0.25 0"/>
<feBlend mode="normal" in2="BackgroundImageFix" result="effect1_dropShadow"/>
<feBlend mode="normal" in="SourceGraphic" in2="effect1_dropShadow" result="shape"/>
</filter>
<linearGradient id="paint0_linear" x1="52.8" y1="96.1057" x2="52.0464" y2="114.957" gradientUnits="userSpaceOnUse">
<stop stop-color="#FF3369"/>
<stop offset="1" stop-color="#FF7151"/>
</linearGradient>
</defs>
</svg>
