<svg width="53" height="63" viewBox="0 0 53 63" fill="none" xmlns="http://www.w3.org/2000/svg">
<path d="M48.3223 24.2296C49.7173 14.3046 47.8993 5.88902 46.6186 1.5783C46.3442 1.33818 46.0583 1.12093 45.7496 0.949412C42.5251 -0.948676 37.334 0.343394 32.3143 1.82985C31.9256 1.94419 31.5368 2.05853 31.1709 2.20718C16.5465 8.27878 6.25564 18.6497 1.09878 33.6286C-1.85126 44.6283 1.16739 53.4556 9.8117 59.0355C33.9723 65.4616 45.6924 42.9818 48.3223 24.2296ZM8.96557 33.4456C12.7274 27.2711 20.4913 24.8356 27.0203 27.3854C27.0317 27.3854 27.0431 27.3969 27.066 27.4083C27.4548 27.557 27.8436 27.7285 28.2209 27.9114C28.3467 27.98 28.4724 28.0486 28.5982 28.1172C28.8269 28.243 29.067 28.3574 29.2843 28.4946C29.3414 28.5289 29.3872 28.5632 29.4329 28.5975C29.4558 28.6089 29.4901 28.6318 29.5129 28.6432C29.6387 28.7233 29.7531 28.8147 29.8788 28.9062C36.3163 33.2855 38.3059 42.0785 34.2239 48.8018C30.0046 55.731 20.8686 57.9607 13.928 53.7529C7.01031 49.5451 4.75776 40.3405 8.96557 33.4456Z" fill="#EBE3C8"/>
<path d="M34.2239 48.791C38.3059 42.0677 36.3278 33.2633 29.8789 28.8954C35.859 32.966 37.6542 41.1872 33.8008 47.316C29.8103 53.6734 21.1545 55.6401 14.9114 51.6267C8.62258 47.579 6.72448 39.1862 10.6922 32.9431C14.2825 27.2832 21.0631 25.1221 27.0089 27.3975C20.4799 24.8477 12.716 27.2832 8.95417 33.4577C4.74636 40.364 6.9989 49.5685 13.9166 53.7649C20.8687 57.9499 30.0047 55.7202 34.2239 48.791Z" fill="#C36428"/>
<path d="M29.2847 28.4838C29.056 28.3466 28.8273 28.2322 28.5986 28.1064C28.8845 28.2551 29.1589 28.4152 29.4448 28.5867C29.3876 28.5524 29.3419 28.5181 29.2847 28.4838Z" fill="#C36428"/>
<path d="M10.6919 32.9319C6.73561 39.1864 8.62228 47.5678 14.9111 51.6155C21.1542 55.6404 29.7985 53.6622 33.8005 47.3048C37.6539 41.176 35.8587 32.9662 29.8786 28.8842C29.7528 28.8041 29.6385 28.7012 29.5127 28.6212C29.4898 28.6097 29.4555 28.5869 29.4326 28.5754C29.1582 28.4039 28.8724 28.2553 28.5865 28.0952C28.4607 28.0266 28.335 27.9465 28.2092 27.8894C27.8318 27.695 27.4431 27.5349 27.0543 27.3863C27.0429 27.3863 27.0314 27.3748 27.0086 27.3634C21.0742 25.1109 14.2822 27.2719 10.6919 32.9319Z" fill="#F39932"/>
<path d="M51.2727 13.0591C50.3351 8.42823 49.2145 3.82022 46.6189 1.5791C47.8996 5.88982 49.7176 14.3054 48.3226 24.2304C45.6927 42.9826 33.9726 65.4624 9.81201 59.0363C10.0521 59.1964 10.2808 59.3565 10.5324 59.5051C19.7713 65.0622 28.9873 64.1246 37.826 55.7432C43.4745 50.392 46.7447 42.8111 47.7852 40.2041C51.2498 31.4683 53.1822 22.4581 51.2727 13.0591Z" fill="#BDB9A4"/>
</svg>
