<svg width="382" height="305" viewBox="0 0 382 305" fill="none" xmlns="http://www.w3.org/2000/svg">
<path d="M240.817 84.6781C239.081 83.9861 237.122 84.8347 236.431 86.5711C236.431 86.5711 168.881 254.936 171.427 256.254C174.195 257.677 242.697 89.0647 242.697 89.0647C243.389 87.3284 242.554 85.37 240.817 84.6781Z" fill="url(#paint0_linear)"/>
<path d="M274.853 97.3553C273.117 96.6634 271.158 97.512 270.466 99.2484C270.466 99.2484 202.917 267.613 205.463 268.931C208.231 270.354 276.733 101.742 276.733 101.742C277.425 100.006 276.589 98.0342 274.853 97.3553Z" fill="url(#paint1_linear)"/>
<path d="M249.251 97.003C248.246 96.5983 247.097 97.0944 246.692 98.0997C246.692 98.0997 207.33 196.212 208.818 196.969C210.437 197.805 250.348 99.5488 250.348 99.5488C250.752 98.5435 250.256 97.3947 249.251 97.003Z" fill="url(#paint2_linear)"/>
<path d="M221.404 198.235C223.023 199.071 262.933 100.815 262.933 100.815C263.338 99.8095 262.842 98.6606 261.837 98.2559C260.832 97.8512 259.683 98.3473 259.278 99.3526C259.278 99.3656 219.915 197.478 221.404 198.235Z" fill="url(#paint3_linear)"/>
<path d="M307.257 19.9486C300.337 18.2253 294.267 19.9095 289.11 24.8314C288.653 25.2622 288.248 25.7322 287.817 26.2022C286.224 22.4031 284.723 18.7606 283.169 15.1311C282.908 14.5306 282.49 13.9431 281.994 13.5384C281.603 13.225 280.976 13.212 280.467 13.0684C280.441 13.6559 280.193 14.3478 280.428 14.8047C281.302 16.502 282.477 18.0425 283.261 19.7659C284.919 23.4606 285.115 28.3434 284.527 32.482L285.82 33.0695C286.055 33.2131 286.277 33.3697 286.512 33.5134C286.72 33.0956 287.138 32.1686 287.243 31.9989C300.39 29.91 310.429 21.4109 310.429 21.3978C310.012 20.7972 308.993 20.3795 307.257 19.9486Z" fill="#92C95B"/>
<path d="M284.514 32.4819L283.861 32.1816C274.318 28.3303 264.878 28.2389 255.727 32.9258C246.418 37.7041 240.66 45.3678 238.624 55.6033C237.331 62.0658 238.128 68.4761 240.543 74.1683C244.394 79.7822 250.034 84.2603 256.98 86.7147C271.68 91.9239 288.705 85.0828 296.016 70.8391C300.22 62.6403 300.847 52.5875 297.047 43.5791C294.475 39.8061 290.99 36.3725 286.498 33.5264C286.263 33.3828 286.042 33.2261 285.807 33.0825L284.514 32.4819ZM253.598 42.0255C252.985 42.7958 251.862 42.9133 251.105 42.2997C250.335 41.6861 250.217 40.5633 250.831 39.8061C251.444 39.0358 252.567 38.9183 253.324 39.5319C254.095 40.1455 254.212 41.2683 253.598 42.0255ZM264.709 38.0044C265.113 37.4953 265.858 37.4169 266.367 37.8216C266.876 38.2264 266.954 38.9705 266.55 39.4797C266.145 39.9889 265.401 40.0672 264.892 39.6625C264.382 39.2578 264.304 38.5136 264.709 38.0044ZM268.312 46.9475C267.698 47.7178 266.576 47.8353 265.818 47.2216C265.048 46.608 264.931 45.4853 265.544 44.728C266.158 43.9578 267.281 43.8403 268.038 44.4539C268.795 45.0675 268.926 46.1903 268.312 46.9475ZM273.273 36.5683C272.855 37.4561 271.798 37.8347 270.91 37.4169C270.022 36.9991 269.644 35.9416 270.062 35.0539C270.479 34.1661 271.537 33.7875 272.425 34.2053C273.312 34.623 273.691 35.6805 273.273 36.5683Z" fill="#F28F23"/>
<path d="M296.029 70.8393C288.718 85.0829 271.694 91.924 256.993 86.7149C250.048 84.2604 244.395 79.7824 240.556 74.1685C240.53 74.1293 240.504 74.1032 240.478 74.0641C240.622 74.4166 240.791 74.756 240.948 75.0954C241 75.1999 241.052 75.3174 241.105 75.4349C241.457 76.1791 241.836 76.8971 242.254 77.6021C242.345 77.7588 242.423 77.9024 242.515 78.0591C242.932 78.7641 243.376 79.456 243.846 80.1218C243.925 80.2263 244.003 80.3307 244.081 80.4352C244.538 81.0749 245.034 81.7016 245.544 82.3152C245.609 82.3935 245.661 82.4588 245.726 82.5371C246.262 83.1768 246.836 83.7774 247.437 84.3779C247.554 84.4954 247.672 84.626 247.802 84.7435C248.403 85.3179 249.016 85.8793 249.656 86.4146C249.761 86.506 249.878 86.5974 249.996 86.6888C250.635 87.211 251.301 87.7202 251.993 88.2032C252.032 88.2293 252.084 88.2685 252.124 88.2946C252.842 88.7907 253.586 89.2477 254.343 89.6915C254.487 89.7699 254.63 89.8613 254.774 89.9396C255.518 90.3574 256.288 90.7491 257.085 91.1146C257.228 91.1799 257.385 91.2452 257.529 91.3104C258.364 91.676 259.2 92.0285 260.074 92.3418C262.829 93.321 265.675 93.8693 268.508 94.026C269.461 94.0782 270.401 94.0913 271.341 94.0521C280.781 93.7257 289.959 89.1432 295.925 81.4404C297.113 79.8999 298.184 78.2288 299.097 76.4532C299.385 75.9049 299.646 75.3304 299.894 74.7691C299.959 74.6124 300.024 74.4688 300.09 74.3121C300.299 73.816 300.494 73.3199 300.677 72.8107C300.716 72.7193 300.742 72.6279 300.782 72.5366C300.991 71.9491 301.173 71.3616 301.343 70.761C301.382 70.6174 301.421 70.4607 301.461 70.3171C301.591 69.821 301.722 69.3249 301.839 68.8157C301.865 68.6852 301.904 68.5546 301.931 68.4241C302.061 67.8104 302.179 67.1968 302.27 66.5832C302.283 66.4657 302.296 66.3482 302.322 66.2177C302.401 65.6954 302.453 65.1732 302.505 64.6379C302.518 64.4813 302.531 64.3377 302.544 64.181C302.596 63.5413 302.622 62.9146 302.636 62.2749C302.636 62.2227 302.636 62.1704 302.636 62.1052C302.649 61.5177 302.636 60.9302 302.609 60.3427C302.609 60.186 302.596 60.0424 302.583 59.8857C302.544 59.246 302.505 58.6063 302.427 57.9666C302.348 57.3138 302.257 56.6741 302.139 56.0213C302.113 55.8777 302.087 55.7341 302.061 55.5904C301.957 55.016 301.826 54.4546 301.682 53.8802C301.669 53.8018 301.643 53.7235 301.63 53.6452C301.461 53.0054 301.278 52.3657 301.069 51.726C301.03 51.6085 300.991 51.491 300.951 51.3735C300.769 50.8252 300.573 50.2899 300.351 49.7416C300.312 49.6371 300.259 49.5196 300.22 49.4152C299.959 48.7885 299.685 48.1618 299.385 47.5482C299.346 47.4699 299.306 47.4046 299.267 47.3263C298.993 46.7779 298.706 46.2427 298.406 45.7074C298.34 45.5899 298.262 45.4593 298.197 45.3418C297.844 44.7413 297.466 44.1407 297.074 43.5532C300.847 52.5746 300.233 62.6404 296.029 70.8393Z" fill="#D66E28"/>
<path d="M310.429 21.3979C310.416 21.411 300.377 29.9102 287.243 31.9991C288.065 32.1818 288.901 32.3385 289.71 32.5343C297.021 34.336 305.05 31.281 309.241 25.1188C310.482 23.2779 310.952 22.1813 310.429 21.3979Z" fill="#659B41"/>
<path d="M272.425 34.2051C271.537 33.7873 270.48 34.166 270.062 35.0537C269.644 35.9415 270.023 36.999 270.91 37.4168C271.798 37.8346 272.856 37.456 273.273 36.5682C273.691 35.6804 273.313 34.6229 272.425 34.2051Z" fill="#F7B718"/>
<path d="M266.55 39.4798C266.955 38.9707 266.876 38.2265 266.367 37.8218C265.858 37.417 265.114 37.4954 264.709 38.0045C264.304 38.5137 264.383 39.2579 264.892 39.6626C265.401 40.0673 266.145 39.989 266.55 39.4798Z" fill="#F7B718"/>
<path d="M265.531 44.7279C264.918 45.4982 265.035 46.6079 265.806 47.2215C266.576 47.8352 267.686 47.7177 268.299 46.9474C268.913 46.1771 268.795 45.0674 268.025 44.4538C267.268 43.8402 266.145 43.9577 265.531 44.7279Z" fill="#F7B718"/>
<path d="M250.831 39.8061C250.217 40.5763 250.335 41.6861 251.105 42.2997C251.875 42.9133 252.985 42.7958 253.598 42.0255C254.212 41.2552 254.095 40.1455 253.324 39.5319C252.567 38.9183 251.444 39.0358 250.831 39.8061Z" fill="#F7B718"/>
<path d="M112.475 187.325C111.425 186.808 110.158 187.242 109.65 188.292C109.65 188.292 59.4167 290.05 60.9417 290.992C62.6001 292.017 113.442 190.15 113.442 190.15C113.95 189.108 113.517 187.842 112.475 187.325Z" fill="url(#paint4_linear)"/>
<path d="M93.4666 172.958C92.4166 172.442 91.15 172.875 90.6416 173.925C90.6416 173.925 40.25 275.608 41.7833 276.55C43.4417 277.575 94.4333 175.783 94.4333 175.783C94.9416 174.733 94.5166 173.467 93.4666 172.958Z" fill="url(#paint5_linear)"/>
<path d="M95.0167 190.533C94.4083 190.233 93.6667 190.483 93.3667 191.1C93.3667 191.1 64.0917 250.392 64.9833 250.942C65.95 251.542 95.575 192.175 95.575 192.175C95.8833 191.567 95.625 190.833 95.0167 190.533Z" fill="url(#paint6_linear)"/>
<path d="M75.7083 240.7C76.475 241.175 99.9416 194.142 99.9416 194.142C100.175 193.658 99.975 193.075 99.4916 192.833C99.0083 192.6 98.425 192.8 98.1833 193.283C98.1916 193.283 75 240.258 75.7083 240.7Z" fill="url(#paint7_linear)"/>
<path d="M96.325 159.983C96.475 160.333 96.675 160.808 96.9 161.392C96.875 161.008 96.8666 160.633 96.8916 160.25C96.7 160.167 96.5083 160.075 96.325 159.983Z" fill="#90CA77"/>
<path d="M105.2 170.158L102 175.95L103.642 169.85C103.05 169.675 102.467 169.441 101.908 169.15C101.675 169.025 101.45 168.891 101.225 168.75L101.158 170.866L100.65 168.35C99.7499 167.675 98.9999 166.858 98.4082 165.95C99.5166 170.041 100.3 175.333 98.7749 179.741C97.3416 183.9 95.2999 186.783 94.3999 187.925L98.3916 190.033L108.825 169.866C107.658 170.191 106.425 170.3 105.2 170.158Z" fill="#90CA77"/>
<path d="M115.242 176.592L113.533 177.225L114.183 176.167C114.058 176.109 113.933 176.05 113.808 175.984C113.183 175.659 112.617 175.267 112.108 174.834L107.292 179.459L111 173.692C110.167 172.692 109.558 171.534 109.192 170.309L108.425 171.625L109.167 170.225C109.125 170.084 109.075 169.95 109.042 169.809C108.967 169.834 108.9 169.842 108.825 169.867L98.3916 190.034L102.125 192.009C102.675 190.525 104.033 187.425 106.642 184.184C109.817 180.242 115.308 178.092 119.517 176.967C118.108 177.167 116.65 177.059 115.242 176.592Z" fill="#6FAF57"/>
<path d="M125.291 175.825L123.425 175.408C122.725 175.892 121.966 176.275 121.175 176.55C123.6 176 125.291 175.825 125.291 175.825Z" fill="#6FAF57"/>
<path d="M109.033 169.8C109.016 169.716 108.991 169.641 108.975 169.558L108.816 169.858C108.891 169.833 108.966 169.816 109.033 169.8Z" fill="#286F37"/>
<path d="M100.642 168.342C100.825 168.483 101.017 168.617 101.217 168.742C101.433 168.883 101.667 169.017 101.9 169.142C102.467 169.442 103.05 169.675 103.633 169.842C104.15 169.992 104.675 170.092 105.192 170.15C106.417 170.292 107.65 170.183 108.808 169.85L108.967 169.55C108.625 167.917 108.717 166.183 109.292 164.542C107.633 164.65 105.925 164.325 104.342 163.492C103.117 162.85 102.1 161.958 101.308 160.933C99.8416 161.067 98.3249 160.85 96.8916 160.25C96.8666 160.633 96.8749 161.017 96.8999 161.392C97.0082 163.008 97.5166 164.575 98.3999 165.942C98.9916 166.85 99.7416 167.667 100.642 168.342Z" fill="#257F3E"/>
<path d="M101.308 160.933C99.8749 159.083 99.1665 156.766 99.3415 154.433C99.4332 153.2 99.7665 151.966 100.367 150.8C100.458 150.625 100.567 150.458 100.667 150.291C100.242 148.241 100.483 146.033 101.517 144.033C101.817 143.458 102.167 142.925 102.558 142.441C98.4999 141.466 94.1665 143.325 92.1582 147.208C89.7832 151.808 91.5582 157.491 96.1415 159.908C96.1999 159.941 96.2665 159.966 96.3332 159.991C96.5249 160.083 96.7082 160.175 96.8999 160.258C98.3249 160.85 99.8415 161.066 101.308 160.933Z" fill="#329946"/>
<path d="M100.667 150.283C102.242 147.658 104.917 146.067 107.783 145.808C108.85 145.708 109.942 145.8 111.008 146.083C112.183 143.9 114.092 142.367 116.275 141.65C115.65 141.042 114.925 140.5 114.117 140.075C110.117 137.958 105.3 139.05 102.558 142.433C102.167 142.917 101.817 143.45 101.517 144.025C100.483 146.025 100.242 148.233 100.667 150.283Z" fill="#3AB44A"/>
<path d="M109.292 164.542C108.725 166.192 108.625 167.917 108.967 169.55L111.608 164.45C111.567 164.35 111.533 164.242 111.492 164.133C110.783 164.367 110.042 164.5 109.292 164.542Z" fill="#257F3E"/>
<path d="M135.142 160.192C134.975 160.792 134.742 161.384 134.442 161.959C132.992 164.767 130.317 166.517 127.408 166.9C127.558 168.617 127.25 170.392 126.4 172.034C125.767 173.25 124.908 174.267 123.9 175.059C124.133 175.209 124.367 175.35 124.617 175.484C129.192 177.9 134.833 176.134 137.208 171.534C139.217 167.659 138.242 163.009 135.142 160.192Z" fill="#217038"/>
<path d="M126.4 172.034C127.25 170.392 127.558 168.617 127.408 166.9C127.367 166.909 127.333 166.917 127.292 166.917C125.475 169.05 122.825 170.217 120.092 170.175C118.667 170.159 117.233 169.817 115.883 169.1C114.85 168.559 113.975 167.842 113.242 167.017C112.558 166.242 112.008 165.375 111.608 164.442L108.967 169.542C108.983 169.625 109.008 169.7 109.025 169.784C109.058 169.925 109.108 170.059 109.15 170.2C109.158 170.225 109.167 170.259 109.175 170.284C109.542 171.517 110.15 172.667 110.983 173.667C111.325 174.075 111.683 174.459 112.092 174.809C112.608 175.25 113.175 175.634 113.792 175.959C113.917 176.025 114.042 176.084 114.167 176.142C114.517 176.309 114.867 176.45 115.225 176.567C116.633 177.034 118.092 177.142 119.5 176.934C120.067 176.85 120.625 176.709 121.158 176.525C121.95 176.25 122.717 175.867 123.408 175.384C123.567 175.275 123.725 175.159 123.875 175.042C124.9 174.267 125.767 173.25 126.4 172.034Z" fill="#257F3E"/>
<path d="M111.008 162.391C110.967 162.15 110.925 161.9 110.9 161.65C110.775 160.333 110.925 158.975 111.375 157.666C111.525 157.241 111.692 156.825 111.9 156.416C111.9 156.408 111.908 156.4 111.908 156.4C110.958 155.191 110.325 153.783 110.05 152.291C109.825 151.1 109.825 149.858 110.083 148.641C110.25 147.816 110.525 147 110.933 146.208C110.958 146.166 110.983 146.133 111 146.091C109.933 145.808 108.842 145.716 107.775 145.816C104.908 146.075 102.233 147.666 100.658 150.291C100.558 150.458 100.45 150.625 100.358 150.8C99.7583 151.966 99.4249 153.2 99.3333 154.433C99.1666 156.766 99.8749 159.091 101.3 160.933C102.1 161.966 103.117 162.85 104.333 163.491C105.917 164.325 107.625 164.65 109.283 164.541C110.033 164.491 110.775 164.358 111.483 164.133C111.275 163.575 111.117 162.983 111.008 162.391Z" fill="#33A749"/>
<path d="M111.491 164.142C111.533 164.25 111.566 164.35 111.608 164.458L111.833 164.017C111.725 164.058 111.608 164.1 111.491 164.142Z" fill="#29803F"/>
<path d="M114.833 158.85C114.75 158.809 114.675 158.75 114.591 158.7L114.441 158.992C114.566 158.942 114.7 158.9 114.833 158.85Z" fill="#29803F"/>
<path d="M111.383 157.667C110.933 158.975 110.775 160.325 110.908 161.65C110.933 161.9 110.967 162.142 111.017 162.392C111.125 162.992 111.283 163.575 111.5 164.142C111.617 164.108 111.733 164.058 111.842 164.017L112.25 163.233L114.442 159L114.592 158.708C113.917 158.317 113.3 157.858 112.767 157.333C112.467 157.042 112.183 156.725 111.925 156.4C111.925 156.408 111.917 156.417 111.917 156.417C111.7 156.825 111.525 157.242 111.383 157.667Z" fill="#249045"/>
<path d="M127.517 154.958C127.517 154.966 127.508 154.975 127.508 154.975C128.175 155.816 128.683 156.766 129.025 157.766C129.833 160.125 129.717 162.783 128.492 165.158C128.183 165.75 127.817 166.3 127.408 166.8C127.408 166.833 127.408 166.866 127.417 166.9C130.325 166.516 132.992 164.766 134.45 161.958C134.75 161.383 134.983 160.791 135.15 160.191C136.342 155.991 134.475 151.375 130.467 149.258C129.767 148.891 129.042 148.633 128.317 148.45C128.808 150.575 128.592 152.875 127.517 154.958Z" fill="#268340"/>
<path d="M127.292 166.926C127.333 166.918 127.367 166.909 127.409 166.909C127.409 166.876 127.409 166.842 127.401 166.809C127.367 166.842 127.325 166.884 127.292 166.926Z" fill="#29803F"/>
<path d="M128.483 165.167C129.708 162.792 129.825 160.125 129.016 157.775C128.675 156.775 128.166 155.825 127.5 154.983C127.091 155.758 126.591 156.45 126.025 157.058C125.033 158.117 123.825 158.908 122.508 159.4C120.8 160.033 118.908 160.167 117.075 159.717C117.008 159.7 116.941 159.683 116.875 159.667C116.366 159.533 115.866 159.35 115.383 159.117C115.233 159.05 115.075 158.983 114.925 158.908C114.891 158.892 114.866 158.875 114.833 158.858C114.7 158.908 114.566 158.95 114.433 159.008L112.241 163.242L111.833 164.025L111.608 164.467C112.008 165.4 112.558 166.267 113.241 167.042C113.975 167.867 114.85 168.583 115.883 169.125C117.233 169.833 118.666 170.175 120.091 170.2C122.816 170.242 125.475 169.075 127.291 166.942C127.325 166.9 127.366 166.867 127.4 166.825C127.808 166.308 128.175 165.758 128.483 165.167Z" fill="#249045"/>
<path d="M111.008 146.092C110.983 146.133 110.958 146.167 110.942 146.208C110.533 146.992 110.258 147.808 110.092 148.642C109.842 149.858 109.833 151.1 110.058 152.292C110.342 153.783 110.975 155.192 111.917 156.4C112.175 156.725 112.45 157.042 112.758 157.333C113.3 157.858 113.908 158.317 114.583 158.708L115.033 157.833L116.517 154.958L117.65 152.767L118.267 151.583L118.958 150.242L120.825 146.625L123.167 142.1C120.925 141.033 118.458 140.933 116.258 141.658C114.092 142.375 112.183 143.9 111.008 146.092Z" fill="#45B649"/>
<path d="M118.967 150.233L118.275 151.575L117.658 152.758L116.525 154.95L115.042 157.825L114.592 158.7C114.675 158.75 114.75 158.8 114.833 158.85C114.867 158.867 114.892 158.883 114.925 158.9C115.075 158.983 115.225 159.042 115.383 159.108C115.875 159.333 116.375 159.517 116.875 159.658C116.942 159.675 117.008 159.692 117.075 159.708C118.908 160.158 120.8 160.025 122.508 159.392C123.825 158.9 125.033 158.108 126.025 157.05C126.592 156.442 127.1 155.75 127.5 154.975C127.5 154.967 127.508 154.958 127.508 154.958C128.583 152.883 128.8 150.583 128.3 148.458C127.692 145.892 126.033 143.583 123.525 142.258C123.408 142.2 123.292 142.15 123.175 142.092L120.833 146.617L118.967 150.233ZM117 159.408C116.933 159.058 116.883 158.7 116.85 158.342C117.05 158.317 117.258 158.3 117.458 158.283C117.342 158.667 117.183 159.042 117 159.408Z" fill="#45B649"/>
<path d="M117 159.409C117.183 159.042 117.333 158.667 117.466 158.292C117.258 158.309 117.058 158.325 116.858 158.35C116.883 158.7 116.933 159.059 117 159.409Z" fill="#45B649"/>
<defs>
<linearGradient id="paint0_linear" x1="183.845" y1="173.736" x2="228.855" y2="180.586" gradientUnits="userSpaceOnUse">
<stop offset="0.0825" stop-color="#ED3895" stop-opacity="0"/>
<stop offset="0.1887" stop-color="#EE3892" stop-opacity="0.1643"/>
<stop offset="0.2932" stop-color="#EE388D" stop-opacity="0.3257"/>
<stop offset="0.3969" stop-color="#EE3984" stop-opacity="0.486"/>
<stop offset="0.4996" stop-color="#EE397A" stop-opacity="0.6447"/>
<stop offset="0.6001" stop-color="#EE3B6C" stop-opacity="0.8"/>
<stop offset="1" stop-color="#F3E841"/>
</linearGradient>
<linearGradient id="paint1_linear" x1="217.881" y1="186.405" x2="262.891" y2="193.254" gradientUnits="userSpaceOnUse">
<stop offset="0.0825" stop-color="#ED3895" stop-opacity="0"/>
<stop offset="0.1887" stop-color="#EE3892" stop-opacity="0.1643"/>
<stop offset="0.2932" stop-color="#EE388D" stop-opacity="0.3257"/>
<stop offset="0.3969" stop-color="#EE3984" stop-opacity="0.486"/>
<stop offset="0.4996" stop-color="#EE397A" stop-opacity="0.6447"/>
<stop offset="0.6001" stop-color="#EE3B6C" stop-opacity="0.8"/>
<stop offset="1" stop-color="#F3E841"/>
</linearGradient>
<linearGradient id="paint2_linear" x1="216.042" y1="148.89" x2="242.27" y2="152.881" gradientUnits="userSpaceOnUse">
<stop stop-color="#ED3895" stop-opacity="0"/>
<stop offset="0.084" stop-color="#EE3891" stop-opacity="0.1423"/>
<stop offset="0.1866" stop-color="#EE388B" stop-opacity="0.3163"/>
<stop offset="0.2989" stop-color="#EE3981" stop-opacity="0.5066"/>
<stop offset="0.4174" stop-color="#EE3A73" stop-opacity="0.7074"/>
<stop offset="0.472" stop-color="#EE3B6C" stop-opacity="0.8"/>
<stop offset="1" stop-color="#F3E841"/>
</linearGradient>
<linearGradient id="paint3_linear" x1="228.627" y1="150.153" x2="254.855" y2="154.144" gradientUnits="userSpaceOnUse">
<stop stop-color="#ED3895" stop-opacity="0"/>
<stop offset="0.084" stop-color="#EE3891" stop-opacity="0.1423"/>
<stop offset="0.1866" stop-color="#EE388B" stop-opacity="0.3163"/>
<stop offset="0.2989" stop-color="#EE3981" stop-opacity="0.5066"/>
<stop offset="0.4174" stop-color="#EE3A73" stop-opacity="0.7074"/>
<stop offset="0.472" stop-color="#EE3B6C" stop-opacity="0.8"/>
<stop offset="1" stop-color="#F3E841"/>
</linearGradient>
<linearGradient id="paint4_linear" x1="72.6545" y1="240.168" x2="100.396" y2="246.606" gradientUnits="userSpaceOnUse">
<stop offset="0.0825" stop-color="#ED3895" stop-opacity="0"/>
<stop offset="0.1887" stop-color="#EE3892" stop-opacity="0.1643"/>
<stop offset="0.2932" stop-color="#EE388D" stop-opacity="0.3257"/>
<stop offset="0.3969" stop-color="#EE3984" stop-opacity="0.486"/>
<stop offset="0.4996" stop-color="#EE397A" stop-opacity="0.6447"/>
<stop offset="0.6001" stop-color="#EE3B6C" stop-opacity="0.8"/>
<stop offset="1" stop-color="#F3E841"/>
</linearGradient>
<linearGradient id="paint5_linear" x1="53.5621" y1="225.657" x2="81.2957" y2="232.138" gradientUnits="userSpaceOnUse">
<stop offset="0.0825" stop-color="#ED3895" stop-opacity="0"/>
<stop offset="0.1887" stop-color="#EE3892" stop-opacity="0.1643"/>
<stop offset="0.2932" stop-color="#EE388D" stop-opacity="0.3257"/>
<stop offset="0.3969" stop-color="#EE3984" stop-opacity="0.486"/>
<stop offset="0.4996" stop-color="#EE397A" stop-opacity="0.6447"/>
<stop offset="0.6001" stop-color="#EE3B6C" stop-opacity="0.8"/>
<stop offset="1" stop-color="#F3E841"/>
</linearGradient>
<linearGradient id="paint6_linear" x1="71.8101" y1="221.342" x2="87.9754" y2="225.093" gradientUnits="userSpaceOnUse">
<stop stop-color="#ED3895" stop-opacity="0"/>
<stop offset="0.084" stop-color="#EE3891" stop-opacity="0.1423"/>
<stop offset="0.1866" stop-color="#EE388B" stop-opacity="0.3163"/>
<stop offset="0.2989" stop-color="#EE3981" stop-opacity="0.5066"/>
<stop offset="0.4174" stop-color="#EE3A73" stop-opacity="0.7074"/>
<stop offset="0.472" stop-color="#EE3B6C" stop-opacity="0.8"/>
<stop offset="1" stop-color="#F3E841"/>
</linearGradient>
<linearGradient id="paint7_linear" x1="81.1107" y1="217.254" x2="93.9179" y2="220.226" gradientUnits="userSpaceOnUse">
<stop stop-color="#ED3895" stop-opacity="0"/>
<stop offset="0.084" stop-color="#EE3891" stop-opacity="0.1423"/>
<stop offset="0.1866" stop-color="#EE388B" stop-opacity="0.3163"/>
<stop offset="0.2989" stop-color="#EE3981" stop-opacity="0.5066"/>
<stop offset="0.4174" stop-color="#EE3A73" stop-opacity="0.7074"/>
<stop offset="0.472" stop-color="#EE3B6C" stop-opacity="0.8"/>
<stop offset="1" stop-color="#F3E841"/>
</linearGradient>
</defs>
</svg>
