<svg width="52" height="63" viewBox="0 0 52 63" fill="none" xmlns="http://www.w3.org/2000/svg">
<path d="M50.4758 35.1677C45.4666 32.0982 40.3774 29.1787 35.3082 26.2192C33.2786 25.0294 31.2489 23.8396 29.0693 22.5698C32.5687 14.2611 30.479 7.35223 24.8 1.21323C24.0201 0.373366 23.0502 -0.656467 21.9304 0.553337C20.9106 1.65316 22.1204 2.37304 22.6903 3.2629C24.36 5.89247 26.2197 8.47206 27.3495 11.3416C28.5693 14.4511 28.0694 17.7406 26.3797 20.99C25.4498 20.4401 24.72 20.0202 23.9901 19.5903C17.6811 15.9008 11.3821 12.2214 5.07315 8.54204C4.1533 8.00213 3.03348 7.5722 2.57355 8.86199C2.38358 9.39191 3.01349 10.6217 3.60339 10.9716C18.7709 19.9202 33.9685 28.8088 49.206 37.6373C49.7859 37.9673 50.7957 37.5573 51.6056 37.4973C51.2357 36.6975 51.0957 35.5377 50.4758 35.1677Z" fill="#009367"/>
<path d="M24.2406 24.2692C21.3411 23.3193 18.0916 24.0592 15.852 26.1289C11.0228 30.5982 12.9625 38.6469 19.2415 40.5665C22.191 41.4664 25.4805 40.6365 27.6501 38.4469C32.1694 33.8876 30.2597 26.2389 24.2406 24.2692Z" fill="#EF5BA1"/>
<path d="M10.2728 33.3379C11.4626 33.1879 12.2225 32.848 12.2825 31.3082C12.3924 28.5487 14.0622 26.1591 16.3318 24.5893C17.3716 23.8794 17.3316 23.1296 16.9517 22.1397C15.6719 18.8603 13.3323 16.8706 9.79286 16.5106C6.25344 16.1507 3.57387 17.6505 1.5942 20.6C-0.0255418 23.6695 -0.0655357 26.779 1.91414 29.6885C3.88382 32.598 6.76336 33.7678 10.2728 33.3379Z" fill="#EF5BA1"/>
<path d="M32.8288 31.4583C31.719 31.6183 31.1291 32.0382 31.0291 33.298C30.8091 36.0475 29.4694 38.5971 27.1297 40.0569C25.9499 40.7968 25.9199 41.5467 26.3299 42.6065C27.6097 45.8959 29.9993 47.8756 33.4987 48.2456C37.0081 48.6155 39.7277 47.1258 41.7774 44.0462C43.3271 41.0067 43.3771 37.8672 41.2675 34.8977C39.1978 31.9982 36.3183 30.9584 32.8288 31.4583Z" fill="#EF5BA1"/>
<path d="M9.38272 48.4157C13.0221 48.1057 16.1816 45.5461 16.9615 42.1767C17.0815 41.6668 16.9415 40.9269 16.6315 40.527C15.0018 38.4573 13.2821 36.4576 11.3424 34.148C8.44287 34.6079 8.45287 34.5879 4.18356 33.2481C3.72364 33.0982 2.93377 33.3181 2.55383 33.6581C0.00424126 35.9377 -0.715645 40.027 0.754117 43.3265C2.24388 46.656 5.73332 48.7256 9.38272 48.4157Z" fill="#C8418B"/>
<path d="M4.86361 48.2558C3.6938 47.9558 3.0739 48.0358 2.30402 48.9057C1.8041 49.4656 1.40417 50.1055 1.07422 50.7754C1.76411 55.3246 4.52367 63.4033 15.5119 59.5839C16.0818 58.8141 16.5217 57.9542 16.7417 57.0144C16.8817 56.4345 16.5817 55.5846 16.2018 55.0647C14.752 53.105 13.1823 51.2353 11.6325 49.2956C9.53285 48.9957 7.14324 48.8357 4.86361 48.2558Z" fill="#EF5BA1"/>
<path d="M29.6296 49.5057C29.7396 48.9758 29.4396 48.2159 29.0897 47.746C27.5899 45.7563 25.9902 43.8366 24.1605 41.537C23.6506 41.597 22.5907 41.807 21.5309 41.807C20.4811 41.807 19.4313 41.587 18.4014 41.457C17.8015 42.7068 17.3716 44.0266 16.5817 45.0864C15.7918 46.1463 14.592 46.8962 13.6922 47.886C13.3922 48.2159 13.2722 48.9058 13.3622 49.3757C14.0221 52.7452 17.6815 55.5647 21.3709 55.6347C25.2203 55.7247 28.8797 53.0551 29.6296 49.5057Z" fill="#C8418B"/>
<path d="M43.1374 18.9005C43.1374 17.7607 42.1375 16.9108 40.1579 16.2509C36.5685 15.0611 32.3291 17.4108 29.9995 21.97C35.7086 23.6297 41.1077 20.3603 43.1374 18.9005Z" fill="#27B34B"/>
<path d="M1.06432 50.7754C-0.0454985 53.085 -0.0954929 55.9246 1.12431 58.3342C2.71405 61.4837 6.1035 63.3234 9.62293 62.9534C12.0025 62.7035 14.1622 61.4237 15.512 59.584C4.52377 63.3933 1.75421 55.3147 1.06432 50.7754Z" fill="#C8418B"/>
<path d="M29.9893 21.9697C32.3689 23.5494 35.0384 24.4493 37.828 23.8494C39.4077 23.5094 41.5174 22.0796 42.4472 20.7499C42.9272 20.06 43.1371 19.4501 43.1371 18.9102C41.1075 20.3599 35.7083 23.6294 29.9893 21.9697Z" fill="#0C8E45"/>
</svg>
