<svg width="56" height="59" viewBox="0 0 56 59" fill="none" xmlns="http://www.w3.org/2000/svg">
<path d="M13.965 48.851C14.3623 48.9834 14.7698 49.0751 15.1875 49.0955C16.6647 49.1464 17.1436 50.0837 17.1436 50.0837C17.7345 50.9191 18.4069 51.5915 19.1098 52.1416C21.7688 54.2199 25.3447 54.7191 28.5539 53.6494C45.1498 48.1072 48.6442 35.8513 49.3064 29.4534C49.7343 25.2662 47.3809 19.5305 43.7133 17.4522C39.6688 15.1599 34.9926 15.2007 33.5255 15.272H33.5154C33.2199 15.2924 33.0467 15.3025 33.0467 15.3025L33.444 15.1701L32.4762 13.7846C31.9261 13.0307 31.7019 12.7352 31.488 12.4296C25.3957 3.92277 14.3521 3.3115 7.4346 11.1357C4.44957 14.5181 2.41201 18.4709 1.31173 22.8313C0.98572 24.115 0.720838 25.3885 0.517082 26.6721C-0.0738099 43.0337 10.9188 47.8424 13.965 48.851Z" fill="#EF4458"/>
<path d="M55.9997 3.4043C55.9997 3.4043 50.6205 8.38613 36.8364 10.0569C42.8778 14.672 54.0334 10.8108 55.9997 3.4043Z" fill="#45B75A"/>
<path d="M33.5254 15.2722H33.5356L33.9635 15.1805C36.3882 10.1171 36.1131 2.09935 36.0011 0.102539C34.7581 0.224793 33.6069 0.336859 32.4965 0.448924C32.7002 2.74118 33.0262 4.87043 33.0262 6.99968C33.0262 9.10855 32.7002 11.2174 32.4761 13.7847L33.4439 15.1703L33.5254 15.2722Z" fill="#45B75A"/>
<path d="M36.8266 10.0452C36.8368 10.0146 36.847 9.98404 36.8572 9.95348C37.5907 6.66282 37.7435 3.40272 37.0508 0C36.6942 0.0407512 36.3478 0.071314 36.0014 0.101877C36.1135 2.09869 36.3886 10.1165 33.9639 15.1798L35.3698 14.8742C35.9811 13.2441 36.4701 11.6447 36.8368 10.0452C36.8266 10.0554 36.8266 10.0452 36.8266 10.0452Z" fill="#45B75A"/>
<path d="M33.536 15.2719C35.0031 15.1904 39.6793 15.1598 43.7238 17.452C47.3914 19.5304 49.7448 25.2661 49.3169 29.4533C48.6547 35.8512 45.1603 48.1071 28.5644 53.6493C25.3552 54.719 21.7895 54.23 19.1203 52.1415C18.4173 51.5914 17.7449 50.919 17.154 50.0836C17.154 50.0836 16.6752 49.1463 15.198 49.0953C14.7803 49.0852 14.3728 48.9833 13.9754 48.8508C10.9293 47.8321 -0.063338 43.0234 0.517366 26.6618C-0.511601 32.8967 -0.114278 39.0706 2.69755 45.0304C4.91849 49.727 8.59629 52.5694 13.9856 52.8648C14.5663 52.8954 15.2897 53.1705 15.6564 53.5882C19.8946 58.3459 25.182 59.1915 30.8362 57.1335C41.7168 53.1705 49.052 45.5806 52.1491 34.3434C53.8912 28.0066 52.5159 22.2403 47.1367 17.9818C44.1109 15.5775 40.5962 14.5689 36.5109 14.7828L35.38 14.8644L33.9741 15.17L33.536 15.2719Z" fill="#B73651"/>
<path d="M55.9997 3.40365C49.4693 -0.91598 39.2815 2.58862 36.8568 9.9544C36.8466 9.98496 36.8466 10.0257 36.8364 10.0563C50.6205 8.39566 55.9997 3.40365 55.9997 3.40365Z" fill="#45B75A"/>
<path opacity="0.58" d="M55.9997 3.4043C55.9997 3.4043 50.6205 8.38613 36.8364 10.0569C42.8778 14.672 54.0334 10.8108 55.9997 3.4043Z" fill="#267A3D"/>
<path opacity="0.58" d="M36.8266 10.0452C36.8368 10.0146 36.847 9.98404 36.8572 9.95348C37.5907 6.66282 37.7435 3.40272 37.0508 0C36.6942 0.0407512 36.3478 0.071314 36.0014 0.101877C36.1135 2.09869 36.3886 10.1165 33.9639 15.1798L35.3698 14.8742C35.9811 13.2441 36.4701 11.6447 36.8368 10.0452C36.8266 10.0554 36.8266 10.0452 36.8266 10.0452Z" fill="#267A3D"/>
</svg>
