<svg width="973" height="719" viewBox="0 0 973 719" fill="none" xmlns="http://www.w3.org/2000/svg">
<path d="M258.43 330.349C256.124 329.161 253.248 329.992 252.01 332.188C252.01 332.188 131.147 546.374 134.501 548.519C138.141 550.859 260.387 336.486 260.387 336.486C261.625 334.29 260.754 331.538 258.43 330.349Z" fill="url(#paint0_linear)"/>
<path d="M221.65 310.739C219.345 309.551 216.469 310.363 215.23 312.578C215.23 312.578 94.0255 526.585 97.3784 528.749C101.018 531.089 223.589 316.894 223.589 316.894C224.827 314.679 223.956 311.927 221.65 310.739Z" fill="url(#paint1_linear)"/>
<path d="M230.247 325.466C228.896 324.772 227.225 325.262 226.499 326.54C226.499 326.54 156.075 451.357 158.03 452.606C160.146 453.971 231.381 329.055 231.381 329.055C232.09 327.758 231.598 326.159 230.247 325.466Z" fill="url(#paint2_linear)"/>
<path d="M183.319 433.03C185.005 434.103 241.436 335.142 241.436 335.142C242.006 334.116 241.594 332.851 240.532 332.297C239.469 331.743 238.133 332.135 237.563 333.143C237.562 333.161 181.759 432.035 183.319 433.03Z" fill="url(#paint3_linear)"/>
<path d="M313.972 221.173C313.22 219.179 311.36 219.827 309.843 220.653C308.794 221.221 307.655 221.73 306.8 222.507C303.553 225.419 300.393 228.445 296.951 231.663C290 229.476 285.668 229.959 279.321 233.787C277.668 234.791 275.978 235.813 274.554 237.102C266.783 244.167 257.95 249.684 248.192 253.9C246.103 254.797 244.166 256.03 242.232 257.208C232.466 263.133 226.628 272.033 225.493 281.861C226.244 299.238 238.226 310.782 238.226 310.782C247.711 318.888 259.283 320.713 270.926 318.129C283.458 315.358 293.119 305.809 296.26 293.887C297.33 289.791 297.682 286.717 297.777 284.662C297.988 279.45 298.768 274.278 300.057 269.216C301.884 262.005 304.041 255.322 304.041 255.322C308.541 244.865 302.795 235.959 302.116 234.96C301.956 234.807 301.833 234.656 301.655 234.502C304.404 230.174 307.828 226.956 312.162 224.451C313.138 223.881 314.272 221.993 313.972 221.173ZM299.166 261.537C296.167 269.66 294.575 277.927 294.091 286.529C293.723 292.985 292.568 299.374 288.402 304.789C280.977 314.421 270.805 318.419 258.559 316.955C246.021 315.463 237.201 308.722 232.457 297.538C226.582 283.684 231.55 269.513 244.716 261.509C246.388 260.486 248.079 259.428 249.87 258.649C257.707 255.263 264.844 250.913 271.216 245.433C272.657 244.2 275.096 242.287 276.73 241.3C281.255 238.563 284.589 237.767 288.947 238.59C290.77 238.933 292.505 239.659 294.086 240.6C296.133 241.833 297.927 243.462 299.119 245.472C302.056 250.433 301.208 255.989 299.166 261.537Z" fill="#04954D"/>
<path d="M294.068 240.581C292.488 239.622 290.752 238.914 288.929 238.571C284.572 237.748 281.238 238.526 276.712 241.281C275.078 242.268 272.621 244.18 271.198 245.414C264.844 250.913 257.689 255.244 249.853 258.63C248.043 259.408 246.37 260.467 244.698 261.49C231.532 269.494 226.563 283.683 232.439 297.519C237.184 308.703 246.004 315.425 258.542 316.936C270.806 318.401 280.959 314.402 288.385 304.77C292.569 299.356 293.724 292.966 294.073 286.51C294.557 277.926 296.149 269.641 299.149 261.518C301.189 255.988 302.039 250.414 299.102 245.435C297.91 243.424 296.115 241.814 294.068 240.581ZM276.106 298.729C270.483 306.81 258.854 309.008 250.37 303.604C241.869 298.198 239.509 287.065 245.115 278.984C250.893 270.688 262.43 268.505 271.089 274.1C279.569 279.596 281.807 290.541 276.106 298.729Z" fill="#92C95B"/>
<path d="M271.09 274.1C262.43 268.505 250.894 270.67 245.115 278.984C239.491 287.065 241.87 298.18 250.371 303.604C258.854 309.008 270.483 306.81 276.107 298.729C281.808 290.541 279.57 279.596 271.09 274.1ZM275.621 296.469C270.541 303.761 260.058 305.745 252.382 300.866C244.723 295.988 242.562 285.947 247.642 278.655C252.858 271.165 263.267 269.197 271.084 274.246C278.74 279.198 280.76 289.087 275.621 296.469Z" fill="#712B14"/>
<path d="M271.084 274.246C263.267 269.197 252.858 271.165 247.642 278.654C242.58 285.947 244.723 295.988 252.381 300.866C260.04 305.744 270.541 303.761 275.621 296.469C280.76 289.087 278.74 279.198 271.084 274.246Z" fill="#A04022"/>
<path d="M304.023 255.321C304.023 255.321 301.866 262.005 300.038 269.215C298.749 274.277 297.97 279.449 297.759 284.661C297.682 286.717 297.33 289.791 296.242 293.886C293.119 305.809 283.439 315.357 270.908 318.129C259.283 320.713 247.693 318.888 238.208 310.781C238.208 310.781 226.227 299.219 225.475 281.86C224.831 287.331 225.646 293.096 228.059 298.809C233.529 311.711 243.705 319.494 258.199 321.224C272.346 322.905 284.083 318.303 292.664 307.189C297.486 300.935 298.824 293.559 299.247 286.113C299.798 276.19 301.657 266.647 305.107 257.272C307.986 249.458 308.791 241.603 302.079 234.977C302.794 235.978 308.523 244.864 304.023 255.321Z" fill="#047C3F"/>
<g clip-path="url(#clip0)">
<path d="M456.61 136.75L439.127 169.395L505.392 204.884L522.875 172.24L456.61 136.75Z" fill="#FBF0B6"/>
<path d="M499.564 56.5562L484.215 85.2162L550.48 120.706L565.83 92.0457L499.564 56.5562Z" fill="#FBF0B6"/>
<path d="M522.882 172.232L505.401 204.887L518.985 212.163L536.466 179.508L522.942 172.28L522.882 172.232Z" fill="#F0E88D"/>
<path d="M550.483 120.711L550.505 120.713L564.067 127.987L554.097 146.609L579.421 99.33L565.816 92.052L550.483 120.711Z" fill="#F0E88D"/>
<path d="M499.546 56.5741L565.814 92.0732L582.91 76.4883L517.624 41.487L499.546 56.5741ZM535.155 62.5316C536.758 59.5545 540.46 58.4206 543.437 60.0241C544.417 60.5432 545.18 61.3205 545.718 62.2054C547.699 64.1661 548.29 67.2611 546.893 69.8506C545.208 73.0129 541.267 74.1888 538.105 72.5039C536.086 71.4174 534.879 69.4214 534.714 67.2865C534.253 65.7879 534.349 64.0626 535.155 62.5316Z" fill="#F0E09D"/>
<path d="M579.421 99.33L582.912 76.467L565.816 92.052L579.421 99.33Z" fill="#E0CA7D"/>
<path d="M522.339 32.6333L517.609 41.4662L582.916 76.4423L587.646 67.6094L522.339 32.6333Z" fill="#E0CA7D"/>
<path d="M522.942 172.28L522.901 172.255L550.502 120.734L550.483 120.711L484.216 85.2114L456.614 136.732L522.882 172.232L522.942 172.28ZM521.344 137.341C516.192 146.947 504.254 150.55 494.646 145.42C485.04 140.268 481.437 128.33 486.567 118.722C491.697 109.114 503.657 105.513 513.265 110.643C522.871 115.794 526.472 127.754 521.344 137.341Z" fill="#1EBFEA"/>
<path d="M550.504 120.713L522.901 172.255L522.941 172.28L536.466 179.508L554.097 146.609L564.067 127.987L550.504 120.713Z" fill="#3499D5"/>
<path d="M536.466 179.508L554.097 146.609L536.466 179.508Z" fill="#3499D5"/>
<path d="M513.263 110.664C503.656 105.513 491.716 109.137 486.565 118.743C481.413 128.349 485.037 140.289 494.643 145.441C504.25 150.592 516.19 146.968 521.341 137.362C526.472 127.754 522.871 115.794 513.263 110.664ZM498.007 139.18C492.562 136.256 492.314 128.547 497.562 125.287L509.374 117.968L509.819 131.862C509.997 138.023 503.433 142.081 498.007 139.18Z" fill="#FBE6B0"/>
<path d="M509.353 117.966L497.541 125.285C492.293 128.545 492.541 136.254 497.986 139.178C503.432 142.102 509.976 138.021 509.798 131.86L509.353 117.966Z" fill="#1EBFEA"/>
<path d="M545.945 68.3067C544.341 71.2838 540.639 72.4177 537.662 70.8142C536.214 70.0376 535.219 68.7677 534.733 67.3096C534.899 69.4446 536.106 71.4405 538.124 72.527C541.287 74.2119 545.207 73.034 546.913 69.8738C548.309 67.2842 547.718 64.1893 545.738 62.2285C546.837 64.0004 547.029 66.3091 545.945 68.3067Z" fill="#3499D5"/>
<path d="M537.662 70.8143C540.639 72.4178 544.362 71.2859 545.945 68.3068C547.008 66.3073 546.837 64.0005 545.74 62.2074C545.201 61.3225 544.438 60.5452 543.459 60.0261C540.481 58.4226 536.758 59.5546 535.176 62.5336C534.349 64.0627 534.253 65.788 534.754 67.3117C535.219 68.7678 536.214 70.0377 537.662 70.8143Z" fill="#1EBFEA"/>
<path d="M441.687 185.49C439.093 184.136 435.893 185.166 434.539 187.76C434.539 187.76 302.806 440.509 306.604 442.959C310.726 445.611 443.957 192.637 443.957 192.637C445.313 190.022 444.303 186.824 441.687 185.49Z" fill="url(#paint4_linear)"/>
<path d="M491.008 209.333C488.415 207.979 485.215 209.01 483.861 211.603C483.861 211.603 352.128 464.352 355.926 466.802C360.047 469.454 493.279 216.48 493.279 216.48C494.633 213.887 493.604 210.666 491.008 209.333Z" fill="url(#paint5_linear)"/>
<path d="M455.03 204.133C453.825 203.508 452.345 203.991 451.722 205.175C451.722 205.175 390.909 321.849 392.665 322.996C394.564 324.222 456.072 207.441 456.072 207.441C456.719 206.238 456.235 204.759 455.03 204.133Z" fill="url(#paint6_linear)"/>
<path d="M402.176 336.553C404.075 337.778 465.584 220.998 465.584 220.998C466.209 219.793 465.726 218.314 464.542 217.69C463.336 217.065 461.857 217.548 461.234 218.732C461.232 218.753 400.418 335.427 402.176 336.553Z" fill="url(#paint7_linear)"/>
<path d="M504.238 224.819C503.033 224.193 501.553 224.677 500.93 225.861C500.93 225.861 440.117 342.534 441.873 343.682C443.772 344.907 505.282 228.106 505.282 228.106C505.906 226.922 505.443 225.445 504.238 224.819Z" fill="url(#paint8_linear)"/>
</g>
<path d="M547.496 374.629C547.496 374.629 548.937 391.952 525.655 408.127C525.655 408.127 512.816 418.403 519.28 430.838C519.753 430.865 520.226 430.892 520.761 430.902C521.194 430.906 521.628 430.89 522.083 430.875C525.846 430.699 528.654 431.354 530.763 433.785C531.459 434.588 532.081 435.613 532.65 436.842C532.76 437.075 532.891 437.31 533.085 437.527C533.47 438.003 534.001 438.466 534.595 438.892C536.1 439.968 538.076 440.762 539.223 440.539C545.29 439.381 548.429 441.83 551.471 446.685C552.982 449.102 554.479 450.343 556.138 450.541C556.977 450.651 557.833 450.473 558.783 450.074C559.734 449.675 560.74 449.032 561.822 448.145C562.406 447.683 562.951 447.158 563.498 446.612C564.025 446.064 564.53 445.516 565.057 444.969C566.353 443.579 567.469 442.096 568.403 440.562C570.311 437.495 571.574 434.165 572.514 430.713C572.828 429.555 573.101 428.396 573.332 427.233C573.564 426.071 573.798 424.868 573.989 423.683C574.297 421.906 574.545 420.106 574.812 418.327C576.457 406.893 581.215 397.638 590.744 390.781C593.389 388.891 595.359 386.178 597.901 383.561C598.379 383.134 598.818 382.685 599.276 382.237L549.623 356.954C548.487 362.024 547.547 367.992 547.496 374.629Z" fill="#FA2961"/>
<path d="M545.236 354.702C544.982 355.883 544.904 356.538 544.904 356.538C544.824 356.843 544.764 357.17 544.682 357.536C544.764 357.17 544.824 356.843 544.904 356.538C544.883 356.537 544.982 355.883 545.236 354.702Z" fill="#E82C47"/>
<path d="M597.515 305.751C597.515 305.751 582.79 310.805 569.723 322.532L614.628 345.399C614.844 343.431 614.994 341.522 614.877 339.618C614.314 330.367 613.359 321.115 612.405 311.863C607.676 309.447 603.307 307.237 598.619 304.845L597.515 305.751Z" fill="#FA2961"/>
<path d="M592.351 304.465C589.535 306.097 586.414 307.3 583.675 309.02C582.156 309.985 580.657 310.95 579.136 311.936C580.657 310.95 582.156 309.985 583.675 309.02C586.414 307.3 589.535 306.097 592.351 304.465Z" fill="#E82C47"/>
<path d="M529.627 396.764C528.358 398.032 527.007 399.295 525.612 400.597C524.829 401.315 524.086 402.035 523.383 402.799C524.107 402.037 524.849 401.316 525.612 400.597C527.007 399.295 528.358 398.032 529.627 396.764Z" fill="#E82C47"/>
<path d="M515.176 415.734C515.886 413.774 516.755 411.927 517.785 410.15C516.755 411.927 515.885 413.795 515.176 415.734Z" fill="#E82C47"/>
<path d="M513.627 421.893C513.956 419.747 514.486 417.695 515.175 415.754C514.486 417.695 513.956 419.747 513.627 421.893C513.032 425.798 513.448 428.256 515.227 429.595C513.448 428.256 513.033 425.778 513.627 421.893Z" fill="#E82C47"/>
<path d="M555.343 340.99C555.343 340.99 551.999 347.171 549.684 356.978L599.337 382.261C606.324 375.506 610.013 367.262 611.888 361.183C612.115 360.453 612.299 359.763 612.481 359.113C613.53 355.193 613.783 352.589 613.783 352.589C614.011 350.045 614.374 347.673 614.628 345.399L569.723 322.532C564.222 327.476 559.027 333.571 555.343 340.99Z" fill="#FCDDE2"/>
<path d="M546.857 348.731C547.132 347.881 547.452 346.972 547.796 346.002C547.452 346.972 547.132 347.881 546.857 348.731Z" fill="#FCDDE2"/>
<path d="M545.835 352.157C546.099 351.162 546.433 350.006 546.856 348.732C546.433 350.006 546.099 351.162 545.835 352.157Z" fill="#FCDDE2"/>
<path d="M545.402 353.969C545.345 354.234 545.29 354.478 545.236 354.702C545.269 354.477 545.325 354.233 545.402 353.969Z" fill="#FCDDE2"/>
<path d="M618.379 300.1C618.329 299.891 618.257 299.701 618.165 299.51C618.072 299.34 617.958 299.168 617.822 299.016C615.284 296.169 611.362 293.717 607.324 292.207C604.927 291.925 602.28 292.062 600.211 293.614L592.828 301.894L593.289 302.126L594.532 302.754C594.691 302.846 594.852 302.917 595.012 303.009L596.956 303.986C597.397 304.218 597.838 304.429 598.258 304.659L598.579 304.822C603.247 307.213 607.636 309.424 612.365 311.84C613.427 312.375 614.509 312.932 615.611 313.49C615.997 311.429 616.702 309.201 617.318 307.092C617.421 306.747 617.523 306.402 617.625 306.058C618.295 303.724 618.769 301.566 618.379 300.1Z" fill="#FCDDE2"/>
<path d="M591.343 301.168C591.938 300.501 592.516 299.772 593.076 299C592.516 299.772 591.938 300.501 591.343 301.168Z" fill="#FCDDE2"/>
<path opacity="0.37" d="M540.238 382.895C541.29 380.729 542.121 378.466 542.715 376.026C542.121 378.466 541.289 380.749 540.238 382.895Z" fill="#010101"/>
<path opacity="0.37" d="M592.845 301.935C592.345 301.68 591.863 301.446 591.364 301.17C592.345 301.68 593.287 302.146 594.228 302.633C593.928 302.472 593.606 302.33 593.306 302.168L592.845 301.935Z" fill="#010101"/>
<path opacity="0.37" d="M607.342 292.228C606.03 291.741 604.713 291.335 603.409 291.075C604.713 291.335 606.03 291.741 607.342 292.228Z" fill="#010101"/>
<path opacity="0.37" d="M564.628 321.477C562.546 322.905 560.659 324.529 558.988 326.33C560.659 324.529 562.546 322.905 564.628 321.477Z" fill="#010101"/>
<path opacity="0.37" d="M595.03 303.051C595.009 303.05 594.988 303.069 594.967 303.068C594.988 303.069 595.009 303.05 595.03 303.051Z" fill="#010101"/>
<path d="M525.656 408.106C548.937 391.952 547.497 374.609 547.497 374.609C547.547 367.992 548.488 362.003 549.685 356.958L545.236 354.702C544.982 355.884 544.904 356.539 544.904 356.539C544.824 356.844 544.764 357.17 544.681 357.537C544.599 357.903 544.536 358.271 544.452 358.658C544.303 359.454 544.152 360.291 544.002 361.107C543.744 362.742 543.551 364.298 543.602 365.209C543.807 369.2 543.48 372.749 542.716 376.005C542.142 378.447 541.31 380.73 540.239 382.875C539.537 384.319 538.737 385.697 537.834 387.047C536.501 389.074 534.968 391.007 533.249 392.93C532.104 394.205 530.896 395.476 529.628 396.744C528.359 398.011 527.008 399.274 525.613 400.576C524.83 401.294 524.087 402.015 523.384 402.779C522.659 403.542 521.976 404.307 521.311 405.114C520.003 406.71 518.814 408.394 517.785 410.15C516.756 411.906 515.886 413.774 515.176 415.734C514.465 417.693 513.957 419.726 513.628 421.873C513.033 425.778 513.449 428.235 515.228 429.574C515.624 429.865 516.084 430.118 516.629 430.315C517.175 430.511 517.786 430.649 518.46 430.749C518.726 430.785 518.994 430.801 519.28 430.838C512.816 418.403 525.656 408.106 525.656 408.106Z" fill="#BF1A46"/>
<path d="M597.515 305.75L598.617 304.865L598.297 304.702C597.855 304.491 597.415 304.26 596.995 304.03C596.353 303.704 595.712 303.379 595.071 303.053C595.049 303.073 595.029 303.071 595.008 303.07C594.902 303.126 594.795 303.182 594.689 303.238C593.968 303.588 593.223 303.999 592.412 304.468C589.596 306.101 586.475 307.304 583.737 309.023C582.217 309.988 580.719 310.954 579.198 311.939C577.677 312.924 576.157 313.91 574.635 314.915C571.957 316.659 569.234 318.462 566.428 320.302C566.278 320.396 566.127 320.511 565.956 320.605L569.783 322.556C582.789 310.804 597.515 305.75 597.515 305.75Z" fill="#BF1A46"/>
<path d="M549.684 356.978C551.999 347.171 555.343 340.99 555.343 340.99C559.027 333.571 564.222 327.476 569.722 322.553L565.895 320.601C565.638 320.772 565.38 320.943 565.123 321.114C564.952 321.228 564.799 321.363 564.627 321.498C562.545 322.925 560.657 324.549 558.987 326.351C557.163 328.309 555.574 330.486 554.185 332.778C552.225 336.027 550.664 339.155 549.429 341.992C548.811 343.42 548.28 344.772 547.795 346.023C547.432 346.971 547.132 347.882 546.855 348.753C546.432 350.028 546.097 351.184 545.834 352.179C545.651 352.849 545.513 353.46 545.38 353.989C545.323 354.254 545.268 354.498 545.214 354.722L549.684 356.978Z" fill="#FCDDE2"/>
<path opacity="0.37" d="M549.684 356.978C551.999 347.171 555.343 340.99 555.343 340.99C559.027 333.571 564.222 327.476 569.722 322.553L565.895 320.601C565.638 320.772 565.38 320.943 565.123 321.114C564.952 321.228 564.799 321.363 564.627 321.498C562.545 322.925 560.657 324.549 558.987 326.351C557.163 328.309 555.574 330.486 554.185 332.778C552.225 336.027 550.664 339.155 549.429 341.992C548.811 343.42 548.28 344.772 547.795 346.023C547.432 346.971 547.132 347.882 546.855 348.753C546.432 350.028 546.097 351.184 545.834 352.179C545.651 352.849 545.513 353.46 545.38 353.989C545.323 354.254 545.268 354.498 545.214 354.722L549.684 356.978Z" fill="#010101"/>
<path d="M565.894 320.601C565.637 320.772 565.38 320.943 565.123 321.113C564.951 321.227 564.799 321.363 564.627 321.497C564.798 321.383 564.951 321.227 565.123 321.113C565.381 320.922 565.637 320.772 565.894 320.601Z" fill="#FCDDE2"/>
<path opacity="0.37" d="M565.894 320.601C565.637 320.772 565.38 320.943 565.123 321.113C564.951 321.227 564.799 321.363 564.627 321.497C564.798 321.383 564.951 321.227 565.123 321.113C565.381 320.922 565.637 320.772 565.894 320.601Z" fill="#010101"/>
<path d="M600.23 293.636C602.3 292.063 604.927 291.925 607.343 292.229C606.031 291.741 604.713 291.335 603.408 291.075C602.654 290.929 601.917 290.825 601.199 290.763C601.014 290.752 600.807 290.761 600.62 290.791C600.224 290.872 599.843 291.036 599.458 291.282C599.072 291.528 598.662 291.855 598.267 292.265C598.07 292.46 597.872 292.676 597.674 292.891C597.277 293.343 596.857 293.834 596.456 294.368C596.054 294.902 595.629 295.475 595.225 296.05C594.665 296.823 594.125 297.616 593.544 298.387C593.389 298.585 593.253 298.783 593.097 299.001C592.516 299.772 591.938 300.502 591.364 301.17C591.865 301.426 592.345 301.68 592.846 301.936L600.23 293.636Z" fill="#FCDDE2"/>
<path opacity="0.37" d="M600.23 293.636C602.3 292.063 604.927 291.925 607.343 292.229C606.031 291.741 604.713 291.335 603.408 291.075C602.654 290.929 601.917 290.825 601.199 290.763C601.014 290.752 600.807 290.761 600.62 290.791C600.224 290.872 599.843 291.036 599.458 291.282C599.072 291.528 598.662 291.855 598.267 292.265C598.07 292.46 597.872 292.676 597.674 292.891C597.277 293.343 596.857 293.834 596.456 294.368C596.054 294.902 595.629 295.475 595.225 296.05C594.665 296.823 594.125 297.616 593.544 298.387C593.389 298.585 593.253 298.783 593.097 299.001C592.516 299.772 591.938 300.502 591.364 301.17C591.865 301.426 592.345 301.68 592.846 301.936L600.23 293.636Z" fill="#010101"/>
<path d="M594.208 302.632C594.308 302.679 594.428 302.748 594.528 302.795L593.286 302.167C593.608 302.309 593.908 302.471 594.208 302.632Z" fill="#FCDDE2"/>
<path opacity="0.37" d="M594.208 302.632C594.308 302.679 594.428 302.748 594.528 302.795L593.286 302.167C593.608 302.309 593.908 302.471 594.208 302.632Z" fill="#010101"/>
<path d="M596.974 304.028L595.03 303.051C595.692 303.377 596.333 303.703 596.974 304.028Z" fill="#FCDDE2"/>
<path opacity="0.37" d="M596.974 304.028L595.03 303.051C595.692 303.377 596.333 303.703 596.974 304.028Z" fill="#010101"/>
<path d="M594.55 302.797L595.03 303.051C594.87 302.959 594.709 302.888 594.55 302.797Z" fill="#FCDDE2"/>
<path opacity="0.37" d="M594.55 302.797L595.03 303.051C594.87 302.959 594.709 302.888 594.55 302.797Z" fill="#010101"/>
<path d="M516.988 440.976C514.612 439.603 511.555 440.417 510.181 442.793C510.181 442.793 446.054 556.013 449.5 558.5C453.244 561.189 518.803 447.803 518.803 447.803C520.178 445.407 519.383 442.351 516.988 440.976Z" fill="url(#paint9_linear)"/>
<path d="M545.479 460.2C544.081 459.398 542.322 459.875 541.521 461.252C541.521 461.252 488.5 557.045 490.5 558.5C492.679 560.069 546.53 464.179 546.53 464.179C547.352 462.782 546.875 461.023 545.479 460.2Z" fill="url(#paint10_linear)"/>
<path d="M535.647 443.201C534.25 442.399 532.49 442.875 531.689 444.253C531.689 444.253 461.001 562.545 463 564C465.179 565.568 536.698 447.179 536.698 447.179C537.5 445.782 537.024 444.001 535.647 443.201Z" fill="url(#paint11_linear)"/>
<defs>
<linearGradient id="paint0_linear" x1="163.573" y1="440.582" x2="227.553" y2="457.933" gradientUnits="userSpaceOnUse">
<stop offset="0.0825" stop-color="#ED3895" stop-opacity="0"/>
<stop offset="0.1887" stop-color="#EE3892" stop-opacity="0.1643"/>
<stop offset="0.2932" stop-color="#EE388D" stop-opacity="0.3257"/>
<stop offset="0.3969" stop-color="#EE3984" stop-opacity="0.486"/>
<stop offset="0.4996" stop-color="#EE397A" stop-opacity="0.6447"/>
<stop offset="0.6001" stop-color="#EE3B6C" stop-opacity="0.8"/>
<stop offset="1" stop-color="#F3E841"/>
</linearGradient>
<linearGradient id="paint1_linear" x1="126.653" y1="420.731" x2="190.625" y2="438.184" gradientUnits="userSpaceOnUse">
<stop offset="0.0825" stop-color="#ED3895" stop-opacity="0"/>
<stop offset="0.1887" stop-color="#EE3892" stop-opacity="0.1643"/>
<stop offset="0.2932" stop-color="#EE388D" stop-opacity="0.3257"/>
<stop offset="0.3969" stop-color="#EE3984" stop-opacity="0.486"/>
<stop offset="0.4996" stop-color="#EE397A" stop-opacity="0.6447"/>
<stop offset="0.6001" stop-color="#EE3B6C" stop-opacity="0.8"/>
<stop offset="1" stop-color="#F3E841"/>
</linearGradient>
<linearGradient id="paint2_linear" x1="174.944" y1="389.727" x2="212.226" y2="399.838" gradientUnits="userSpaceOnUse">
<stop stop-color="#ED3895" stop-opacity="0"/>
<stop offset="0.084" stop-color="#EE3891" stop-opacity="0.1423"/>
<stop offset="0.1866" stop-color="#EE388B" stop-opacity="0.3163"/>
<stop offset="0.2989" stop-color="#EE3981" stop-opacity="0.5066"/>
<stop offset="0.4174" stop-color="#EE3A73" stop-opacity="0.7074"/>
<stop offset="0.472" stop-color="#EE3B6C" stop-opacity="0.8"/>
<stop offset="1" stop-color="#F3E841"/>
</linearGradient>
<linearGradient id="paint3_linear" x1="196.705" y1="383.227" x2="226.242" y2="391.237" gradientUnits="userSpaceOnUse">
<stop stop-color="#ED3895" stop-opacity="0"/>
<stop offset="0.084" stop-color="#EE3891" stop-opacity="0.1423"/>
<stop offset="0.1866" stop-color="#EE388B" stop-opacity="0.3163"/>
<stop offset="0.2989" stop-color="#EE3981" stop-opacity="0.5066"/>
<stop offset="0.4174" stop-color="#EE3A73" stop-opacity="0.7074"/>
<stop offset="0.472" stop-color="#EE3B6C" stop-opacity="0.8"/>
<stop offset="1" stop-color="#F3E841"/>
</linearGradient>
<linearGradient id="paint4_linear" x1="338.757" y1="315.79" x2="408.064" y2="333.478" gradientUnits="userSpaceOnUse">
<stop offset="0.0825" stop-color="#ED3895" stop-opacity="0"/>
<stop offset="0.1887" stop-color="#EE3892" stop-opacity="0.1643"/>
<stop offset="0.2932" stop-color="#EE388D" stop-opacity="0.3257"/>
<stop offset="0.3969" stop-color="#EE3984" stop-opacity="0.486"/>
<stop offset="0.4996" stop-color="#EE397A" stop-opacity="0.6447"/>
<stop offset="0.6001" stop-color="#EE3B6C" stop-opacity="0.8"/>
<stop offset="1" stop-color="#F3E841"/>
</linearGradient>
<linearGradient id="paint5_linear" x1="388.073" y1="339.642" x2="457.38" y2="357.33" gradientUnits="userSpaceOnUse">
<stop offset="0.0825" stop-color="#ED3895" stop-opacity="0"/>
<stop offset="0.1887" stop-color="#EE3892" stop-opacity="0.1643"/>
<stop offset="0.2932" stop-color="#EE388D" stop-opacity="0.3257"/>
<stop offset="0.3969" stop-color="#EE3984" stop-opacity="0.486"/>
<stop offset="0.4996" stop-color="#EE397A" stop-opacity="0.6447"/>
<stop offset="0.6001" stop-color="#EE3B6C" stop-opacity="0.8"/>
<stop offset="1" stop-color="#F3E841"/>
</linearGradient>
<linearGradient id="paint6_linear" x1="407.476" y1="264.253" x2="439.472" y2="272.419" gradientUnits="userSpaceOnUse">
<stop stop-color="#ED3895" stop-opacity="0"/>
<stop offset="0.084" stop-color="#EE3891" stop-opacity="0.1423"/>
<stop offset="0.1866" stop-color="#EE388B" stop-opacity="0.3163"/>
<stop offset="0.2989" stop-color="#EE3981" stop-opacity="0.5066"/>
<stop offset="0.4174" stop-color="#EE3A73" stop-opacity="0.7074"/>
<stop offset="0.472" stop-color="#EE3B6C" stop-opacity="0.8"/>
<stop offset="1" stop-color="#F3E841"/>
</linearGradient>
<linearGradient id="paint7_linear" x1="416.978" y1="277.805" x2="448.974" y2="285.971" gradientUnits="userSpaceOnUse">
<stop stop-color="#ED3895" stop-opacity="0"/>
<stop offset="0.084" stop-color="#EE3891" stop-opacity="0.1423"/>
<stop offset="0.1866" stop-color="#EE388B" stop-opacity="0.3163"/>
<stop offset="0.2989" stop-color="#EE3981" stop-opacity="0.5066"/>
<stop offset="0.4174" stop-color="#EE3A73" stop-opacity="0.7074"/>
<stop offset="0.472" stop-color="#EE3B6C" stop-opacity="0.8"/>
<stop offset="1" stop-color="#F3E841"/>
</linearGradient>
<linearGradient id="paint8_linear" x1="456.68" y1="284.94" x2="488.676" y2="293.105" gradientUnits="userSpaceOnUse">
<stop stop-color="#ED3895" stop-opacity="0"/>
<stop offset="0.084" stop-color="#EE3891" stop-opacity="0.1423"/>
<stop offset="0.1866" stop-color="#EE388B" stop-opacity="0.3163"/>
<stop offset="0.2989" stop-color="#EE3981" stop-opacity="0.5066"/>
<stop offset="0.4174" stop-color="#EE3A73" stop-opacity="0.7074"/>
<stop offset="0.472" stop-color="#EE3B6C" stop-opacity="0.8"/>
<stop offset="1" stop-color="#F3E841"/>
</linearGradient>
<linearGradient id="paint9_linear" x1="457.5" y1="531" x2="548.13" y2="472.228" gradientUnits="userSpaceOnUse">
<stop offset="0.0825" stop-color="#ED3895" stop-opacity="0"/>
<stop offset="0.1887" stop-color="#EE3892" stop-opacity="0.1643"/>
<stop offset="0.2932" stop-color="#EE388D" stop-opacity="0.3257"/>
<stop offset="0.3969" stop-color="#EE3984" stop-opacity="0.486"/>
<stop offset="0.4996" stop-color="#EE397A" stop-opacity="0.6447"/>
<stop offset="0.6001" stop-color="#EE3B6C" stop-opacity="0.8"/>
<stop offset="1" stop-color="#F3E841"/>
</linearGradient>
<linearGradient id="paint10_linear" x1="490" y1="549" x2="571.788" y2="503.925" gradientUnits="userSpaceOnUse">
<stop stop-color="#ED3895" stop-opacity="0"/>
<stop offset="0.084" stop-color="#EE3891" stop-opacity="0.1423"/>
<stop offset="0.1866" stop-color="#EE388B" stop-opacity="0.3163"/>
<stop offset="0.2989" stop-color="#EE3981" stop-opacity="0.5066"/>
<stop offset="0.4174" stop-color="#EE3A73" stop-opacity="0.7074"/>
<stop offset="0.472" stop-color="#EE3B6C" stop-opacity="0.8"/>
<stop offset="1" stop-color="#F3E841"/>
</linearGradient>
<linearGradient id="paint11_linear" x1="468" y1="545" x2="562.242" y2="485.873" gradientUnits="userSpaceOnUse">
<stop stop-color="#ED3895" stop-opacity="0"/>
<stop offset="0.084" stop-color="#EE3891" stop-opacity="0.1423"/>
<stop offset="0.1866" stop-color="#EE388B" stop-opacity="0.3163"/>
<stop offset="0.2989" stop-color="#EE3981" stop-opacity="0.5066"/>
<stop offset="0.4174" stop-color="#EE3A73" stop-opacity="0.7074"/>
<stop offset="0.472" stop-color="#EE3B6C" stop-opacity="0.8"/>
<stop offset="1" stop-color="#F3E841"/>
</linearGradient>
<clipPath id="clip0">
<rect width="460.474" height="460.474" fill="white" transform="translate(239.527) rotate(5.29905)"/>
</clipPath>
</defs>
</svg>
