<svg width="54" height="63" viewBox="0 0 54 63" fill="none" xmlns="http://www.w3.org/2000/svg">
<path d="M20.1612 59.1821C23.231 56.2063 29.1826 53.2305 29.1826 53.2305C47.4343 42.3714 47.9668 32.7548 47.9668 32.7548C51.2141 17.7818 35.3744 11.235 35.3744 11.235C34.2989 10.9635 33.8499 9.25108 33.8499 9.25108C25.7891 7.89369 21.8527 8.23826 16.5589 10.9217C0.0926977 19.254 -2.63252 37.9755 2.05569 49.8162C13.7919 64.4446 20.1612 59.1821 20.1612 59.1821Z" fill="#FAAC19"/>
<path d="M44.5008 13.7399C46.6099 16.4338 49.5127 18.3028 52.6973 19.8168L50.7865 14.1471C48.5729 7.07826 41.149 5.63734 41.149 5.63734C38.925 4.47834 38.4865 0.583671 38.4343 0.0302734C37.9331 0.186895 37.3379 0.792499 37.1186 1.29369C35.9388 3.92494 34.9051 6.62928 33.8296 9.26053C33.8296 9.26053 34.289 10.9729 35.354 11.2444C35.8448 11.3697 36.4504 11.1922 37.2126 10.4195C37.7138 8.56095 38.1941 6.76501 38.7684 4.6454C40.7836 7.87181 42.3707 11.0251 44.5008 13.7399Z" fill="#91C83E"/>
<path d="M35.3641 11.2461C35.3641 11.2461 51.2038 17.7929 47.9565 32.766C47.9565 32.766 47.424 42.3826 29.1723 53.2417C29.1723 53.2417 23.2207 56.2175 20.1509 59.1933C20.1509 59.1933 13.7816 64.4454 2.04541 49.8274C2.37954 50.6627 2.74498 51.4667 3.14176 52.2184C5.76257 57.1573 9.62591 60.7387 15.0241 62.4511C17.9582 63.3804 20.673 63.3282 22.9805 60.7387C23.962 59.6319 25.3716 58.8697 26.6768 58.0865C30.1538 55.9878 33.7457 54.0561 37.1705 51.8843C42.3181 48.6266 46.7035 44.6275 49.3661 38.9369C53.5636 29.9886 50.3267 18.2002 42.0258 12.9377C40.5222 11.9875 38.862 11.267 37.2227 10.4004C36.4709 11.1835 35.8549 11.361 35.3641 11.2461Z" fill="#D08B2C"/>
<path d="M41.1591 5.63846C41.1591 5.63846 48.583 7.06894 50.7966 14.1483L52.7074 19.818C52.8744 19.9015 53.0415 19.985 53.2086 20.0581C53.2817 13.6471 49.7316 5.83685 42.2137 5.00153C41.2218 4.89712 40.1358 3.06986 39.6764 1.81689C39.4154 1.08599 39.8539 -0.0103674 38.6636 7.40335e-05C38.5905 7.40335e-05 38.5279 0.0105165 38.4443 0.0418408C38.4965 0.584797 38.9351 4.47946 41.1591 5.63846Z" fill="#84AF40"/>
</svg>
