<svg width="56" height="59" viewBox="0 0 56 59" fill="none" xmlns="http://www.w3.org/2000/svg">
<path d="M41.3281 22.8872C41.5567 23.1049 41.7961 23.3008 42.0464 23.5076C42.3403 23.3008 42.6342 23.094 42.928 22.8872C42.7974 22.8872 42.6668 22.8872 42.5362 22.8763C42.1553 22.8545 41.7417 22.8981 41.3281 22.8872Z" fill="#C42F49"/>
<path d="M37.3012 24.3135C37.2468 24.5094 37.1815 24.7162 37.1271 24.9121C37.1053 24.9883 37.0835 25.0753 37.0618 25.1515C37.0291 25.9025 37.0509 26.6643 37.138 27.4262C37.7583 26.882 38.4875 26.2725 39.282 25.6304C39.0861 25.5107 38.8793 25.3801 38.6943 25.2495C38.1828 25.0753 37.693 24.7162 37.3012 24.3135Z" fill="#C42F49"/>
<path d="M11.9099 14.7146C11.9099 14.7146 23.773 5.28934 27.9197 18.5783C28.4748 18.5347 29.0189 18.4803 29.574 18.4368C29.9005 18.3171 30.2379 18.1973 30.5644 18.0885C30.4447 18.0994 30.325 18.1103 30.2161 18.1212C30.227 18.0885 30.2379 18.0667 30.2161 18.0341C29.6828 17.4137 28.9428 16.9457 28.3224 16.4015C27.5496 15.7268 26.9946 14.8561 26.3307 14.0942C25.645 12.7664 25.3403 11.2427 25.3512 9.67545C17.7979 5.9859 10.8868 11.3733 10.8868 11.3733C-11.4356 33.5759 6.78366 49.7055 11.1045 53.025C4.68312 45.1017 -3.58844 29.7667 11.9099 14.7146Z" fill="#C42F49"/>
<path d="M40.5119 19.2092C42.2316 19.9819 44.1797 20.1343 46.0953 19.8622C43.2546 18.3385 40.8167 17.9793 38.8794 18.1426C39.3474 18.5235 39.8698 18.8282 40.3813 19.1547C40.4249 19.1656 40.4684 19.1874 40.5119 19.2092Z" fill="#C42F49"/>
<path d="M33.1548 22.5724C33.1657 22.5724 33.1766 22.5616 33.1766 22.5616C33.1657 22.4854 33.1548 22.4092 33.133 22.333C33.0024 22.3657 32.8718 22.3765 32.7412 22.3874L32.7304 22.3983C32.7086 22.3983 32.6977 22.3983 32.6759 22.3983C32.4256 22.431 32.1862 22.4418 31.9359 22.4201C30.8475 22.5833 29.7591 22.6378 28.6816 22.6486C29.487 26.6538 31.2937 32.5963 34.635 29.7012C34.635 29.7012 34.8853 29.4618 35.3098 29.0591C35.2554 28.9829 35.2009 28.8958 35.1465 28.8197C34.0037 27.0021 33.2092 24.7709 33.1548 22.5724Z" fill="#C42F49"/>
<path d="M37.9218 18.8395C37.998 19.547 38.1286 20.2544 38.3571 20.9401C38.3354 20.015 38.3354 19.1007 38.3789 18.1865C38.2157 18.2083 38.0415 18.2409 37.8892 18.2627C37.8892 18.3171 37.8892 18.3715 37.8892 18.4369C37.9 18.5675 37.9109 18.7089 37.9218 18.8395Z" fill="#C42F49"/>
<path d="M47.3794 22.7785C49.2731 23.8233 51.3301 25.0641 53.4525 26.5007C53.4525 26.5007 53.9966 26.9578 54.5735 27.8938C53.8443 24.694 51.4172 22.7785 49.6976 21.7881C49.5452 21.886 49.3929 21.984 49.2405 22.0602C48.6637 22.3758 48.0324 22.6044 47.3794 22.7785Z" fill="#C42F49"/>
<path d="M54.5737 27.8838C53.986 26.9478 53.4526 26.4907 53.4526 26.4907C51.3303 25.0541 49.2733 23.8242 47.3796 22.7685C46.03 23.1168 44.5607 23.1603 43.2003 22.8882C43.1132 22.8882 43.0261 22.8882 42.9391 22.8773C42.6452 23.0841 42.3405 23.2909 42.0575 23.4977C43.3091 24.5425 44.7349 25.3697 46.2912 25.9248C46.596 26.0336 46.9116 26.1533 47.2272 26.2621C47.3361 26.3057 47.4449 26.3383 47.5428 26.3819C47.8258 26.4798 48.1088 26.5778 48.3918 26.6757C48.5006 26.7193 48.6203 26.7519 48.7292 26.7846C49.0012 26.8716 49.2733 26.9587 49.5454 27.0349C49.6543 27.0675 49.7522 27.1002 49.8611 27.122C50.1985 27.209 50.5467 27.2961 50.8841 27.3505C51.9289 27.5464 52.9847 27.6008 54.0077 27.3723C53.9207 27.4049 53.8445 27.4267 53.8009 27.4485C52.6364 27.9818 51.5807 28.3192 50.2964 28.4389C48.5659 28.6021 46.8136 28.243 45.1484 27.8294C43.4288 27.4049 41.1433 26.7193 39.293 25.5874C38.4985 26.2295 37.7693 26.839 37.149 27.3832C37.3993 29.6034 38.1611 31.791 39.3692 33.663C39.1733 33.5106 38.9883 33.3474 38.7924 33.1841C38.7706 33.1515 38.7489 33.1188 38.7162 33.0862C37.3884 31.889 36.2347 30.3979 35.3314 29.0157C34.896 29.4184 34.6566 29.6578 34.6566 29.6578C31.3045 32.5529 29.5086 26.6213 28.7033 22.6052C26.8966 22.6161 25.0899 22.4311 23.2505 21.9958C21.4112 21.5604 19.7351 20.8094 18.1244 19.8299C17.3081 19.3293 16.6006 18.698 15.915 18.045C15.5341 17.6858 14.7069 17.0655 14.3586 16.4669C14.5001 16.4995 14.6416 16.5322 14.794 16.5757C14.794 16.5757 14.794 16.5866 14.8048 16.5866C15.7735 16.8696 16.7965 17.3593 17.6237 17.6097C19.2998 18.1103 21.0303 18.4042 22.7717 18.5783C24.5239 18.7524 26.2218 18.6762 27.9196 18.5348C23.773 5.24584 11.9098 14.6711 11.9098 14.6711C-3.5885 29.734 4.68306 45.0691 11.1153 52.9706C11.6595 53.3842 11.986 53.6019 11.986 53.6019C12.3996 53.8848 12.824 54.146 13.2485 54.3746C13.5315 54.5487 13.8144 54.7446 14.1083 54.897C26.6789 61.8625 42.4275 57.7594 50.8406 46.103C57.9694 36.2533 56.1192 30.3653 54.5737 27.8838Z" fill="#EF4537"/>
<path d="M13.2376 54.4075C12.8131 54.1681 12.3887 53.9177 11.9751 53.6348C12.3996 53.9177 12.824 54.1572 13.2376 54.4075Z" fill="#EF4537"/>
<path d="M45.0176 4.38672C45.1917 4.48467 45.3659 4.59351 45.54 4.70235C45.3659 4.59351 45.1917 4.48467 45.0176 4.38672Z" fill="#109C49"/>
<path d="M30.8368 18.0451C30.63 18.0668 30.4123 18.0451 30.2164 18.0233C30.2382 18.056 30.2382 18.0777 30.2164 18.1104C30.3361 18.0995 30.4558 18.0886 30.5647 18.0777C30.2273 18.1974 29.9008 18.3172 29.5743 18.426C29.0192 18.4804 28.4642 18.524 27.92 18.5675C26.2221 18.709 24.5134 18.7852 22.772 18.611C21.0306 18.4369 19.3001 18.143 17.624 17.6424C16.7969 17.3921 15.7629 16.9023 14.8052 16.6193C15.1535 17.5118 16.1983 18.0886 17.0254 18.5022C19.0933 19.5253 21.2918 20.2 23.5665 20.581C25.8521 20.9619 28.5295 21.2666 30.815 20.7986C31.5333 20.6463 33.1768 20.015 33.6121 20.9184C33.8624 21.419 33.3074 22.0067 32.7632 22.3768C32.8938 22.355 33.0244 22.3441 33.155 22.3224C33.1659 22.3985 33.1768 22.4747 33.1985 22.5509C33.1876 22.5509 33.1768 22.5618 33.1768 22.5618C33.2312 24.7603 34.0257 26.9914 35.1902 28.7981C35.2447 28.8743 35.2991 28.9614 35.3535 29.0376C36.2677 30.4307 37.4105 31.9108 38.7383 33.108C37.5302 31.6496 36.616 29.9627 36.1698 28.1016C35.8868 26.9044 35.8324 25.6527 36.0501 24.4447C36.1807 23.6828 36.5942 22.2462 37.5302 22.17C37.3561 23.106 37.1602 24.0093 37.1602 24.9018C37.2146 24.7059 37.269 24.4991 37.3343 24.3032C37.7261 24.7059 38.205 25.0541 38.7274 25.2283C38.9124 25.3589 39.1192 25.4895 39.3151 25.6092C41.1654 26.7411 43.4509 27.4268 45.1705 27.8512C46.8357 28.2648 48.588 28.6131 50.3185 28.4607C51.6028 28.341 52.6585 28.0036 53.823 27.4703C53.8666 27.4485 53.9428 27.4268 54.0298 27.3941C52.9959 27.6227 51.951 27.5683 50.9062 27.3724C50.9389 27.3832 50.9715 27.3832 51.0042 27.3941C50.4709 27.4485 49.9376 27.4812 49.4043 27.4921C47.3037 27.5356 45.1597 27.0132 43.3312 25.9901C40.6538 24.4991 38.5315 21.2666 38.4227 18.0995C38.4227 18.1213 38.4227 18.143 38.4227 18.1648C38.3791 19.079 38.3792 19.9933 38.4009 20.9184C38.1724 20.2218 38.0418 19.5253 37.9656 18.8178C37.9764 18.9375 37.9873 19.0681 37.9982 19.1879C36.3766 15.0521 37.835 10.2959 41.1436 7.35734C42.0687 6.53019 43.1571 6.27986 44.2563 5.81186C44.8223 5.57242 45.0835 5.01736 44.9855 4.41876C44.9746 4.37523 44.9637 4.34257 44.9529 4.30992C44.1801 3.90723 43.3312 3.75486 42.3952 4.22285C41.5028 4.67997 40.6321 5.45271 39.979 6.33428C39.7178 6.75874 39.4893 7.20497 39.2825 7.64032C38.7601 8.47836 38.2812 9.32728 37.8894 10.2633C37.4214 11.3734 36.986 12.5053 36.6051 13.6481C36.0283 15.3459 35.2773 17.5988 33.2638 17.6424C33.34 17.5662 33.438 17.49 33.4924 17.4682C34.3195 17.1853 34.8746 16.467 35.2991 15.6398C35.1467 15.6833 34.9943 15.7269 34.8202 15.7377C34.2978 15.7922 33.8298 15.5854 33.3618 15.3895C33.2638 15.3459 33.1768 15.3024 33.0788 15.248C33.0788 15.2589 33.0679 15.2589 33.0679 15.2697C33.0026 15.248 32.9482 15.2262 32.8829 15.1936L32.9047 15.1827C32.9264 15.1718 32.9373 15.1718 32.9482 15.1718C28.1921 12.5162 27.0493 5.57242 29.9987 1.01218C30.2164 0.663902 30.4667 0.337393 30.6844 0C30.5212 0 30.3797 0.0326511 30.2491 0.0979529C28.1812 2.35087 27.3105 5.7248 27.1146 8.67426C26.8642 12.1679 28.2138 15.7377 30.8368 18.0451Z" fill="#109C49"/>
<path d="M32.7409 22.3986L32.7518 22.3877C32.7301 22.3877 32.7083 22.3986 32.6865 22.3986C32.7083 22.3986 32.73 22.3986 32.7409 22.3986Z" fill="#C42F49"/>
<path d="M32.7409 22.3986L32.7518 22.3877C32.7301 22.3877 32.7083 22.3986 32.6865 22.3986C32.7083 22.3986 32.73 22.3986 32.7409 22.3986Z" fill="#109C49"/>
<path d="M14.7835 16.6088C14.642 16.5653 14.4896 16.5327 14.3481 16.5C14.4896 16.5327 14.642 16.5871 14.7835 16.6197C14.7944 16.6197 14.7835 16.6197 14.7835 16.6088Z" fill="#EF4537"/>
<path d="M14.7835 16.6088C14.642 16.5653 14.4896 16.5327 14.3481 16.5C14.4896 16.5327 14.642 16.5871 14.7835 16.6197C14.7944 16.6197 14.7835 16.6197 14.7835 16.6088Z" fill="#109C49"/>
<path d="M32.687 22.3988C32.7087 22.3988 32.7305 22.3879 32.7523 22.3879C33.2964 22.007 33.8515 21.4301 33.6012 20.9295C33.1549 20.0262 31.5224 20.6574 30.8041 20.8098C28.5185 21.2778 25.8303 20.973 23.5556 20.5921C21.2809 20.2112 19.0824 19.5364 17.0145 18.5133C16.1873 18.0998 15.1425 17.5229 14.7942 16.6305C14.6419 16.5869 14.5004 16.5325 14.3589 16.5107C14.7072 17.1093 15.5452 17.7297 15.9153 18.0889C16.6009 18.7419 17.3084 19.384 18.1246 19.8738C19.7245 20.8533 21.4115 21.6043 23.2508 22.0396C25.0902 22.4859 26.8969 22.66 28.7035 22.6491C29.781 22.6382 30.8694 22.5838 31.9577 22.4206C32.1972 22.4423 32.4475 22.4314 32.687 22.3988Z" fill="#109C49"/>
<path d="M32.687 22.3988C32.7087 22.3988 32.7305 22.3879 32.7523 22.3879C33.2964 22.007 33.8515 21.4301 33.6012 20.9295C33.1549 20.0262 31.5224 20.6574 30.8041 20.8098C28.5185 21.2778 25.8303 20.973 23.5556 20.5921C21.2809 20.2112 19.0824 19.5364 17.0145 18.5133C16.1873 18.0998 15.1425 17.5229 14.7942 16.6305C14.6419 16.5869 14.5004 16.5325 14.3589 16.5107C14.7072 17.1093 15.5452 17.7297 15.9153 18.0889C16.6009 18.7419 17.3084 19.384 18.1246 19.8738C19.7245 20.8533 21.4115 21.6043 23.2508 22.0396C25.0902 22.4859 26.8969 22.66 28.7035 22.6491C29.781 22.6382 30.8694 22.5838 31.9577 22.4206C32.1972 22.4423 32.4475 22.4314 32.687 22.3988Z" fill="#109C49"/>
<path d="M38.3784 18.0772C38.3784 18.0881 38.3784 18.1099 38.3784 18.1208C38.3893 17.9793 38.3784 17.8378 38.3893 17.6963C38.3893 17.8269 38.3784 17.9466 38.3784 18.0772Z" fill="#109C49"/>
<path d="M43.2872 26.0126C45.1157 27.0356 47.2598 27.5581 49.3603 27.5145C49.8936 27.5036 50.4269 27.4601 50.9602 27.4166C50.9275 27.4057 50.8949 27.4057 50.8622 27.3948C50.5249 27.3295 50.1766 27.2533 49.8392 27.1662C49.7303 27.1336 49.6215 27.1009 49.5235 27.0792C49.2515 27.003 48.9794 26.9159 48.7073 26.8289C48.5984 26.7962 48.4787 26.7527 48.3699 26.72C48.0869 26.6221 47.8039 26.5241 47.521 26.4262C47.4121 26.3826 47.3033 26.35 47.2053 26.3064C46.8897 26.1867 46.5741 26.0779 46.2693 25.969C44.713 25.414 43.2872 24.5868 42.0356 23.542C41.7962 23.3352 41.5458 23.1393 41.3173 22.9216C41.72 22.9216 42.1336 22.8781 42.5254 22.8999C42.656 22.9107 42.7866 22.9107 42.9172 22.9107C43.0043 22.9107 43.0913 22.9216 43.1784 22.9216C44.5389 23.1937 46.0081 23.1502 47.3577 22.8019C48.0107 22.6387 48.642 22.3992 49.2188 22.0836C49.3712 21.9965 49.5236 21.9094 49.6759 21.8115C50.8187 21.0823 51.9179 19.9613 52.2662 18.6444C52.473 17.8716 52.6798 16.6526 52.3859 15.7275C51.6567 17.8281 49.3712 19.1559 47.2271 19.6674C46.8462 19.7545 46.4652 19.8198 46.0734 19.8742C44.1579 20.1463 42.2097 19.9939 40.4901 19.2212C40.4466 19.1994 40.4031 19.1777 40.3595 19.1559C39.848 18.8294 39.3365 18.5246 38.8576 18.1437C38.8032 18.1002 38.7379 18.0675 38.6834 18.0131C38.5746 17.9151 38.4658 17.8172 38.3678 17.6975C38.3569 17.839 38.3569 17.9805 38.3569 18.1219C38.4875 21.2782 40.6098 24.5215 43.2872 26.0126Z" fill="#109C49"/>
<path d="M43.2872 26.0126C45.1157 27.0356 47.2598 27.5581 49.3603 27.5145C49.8936 27.5036 50.4269 27.4601 50.9602 27.4166C50.9275 27.4057 50.8949 27.4057 50.8622 27.3948C50.5249 27.3295 50.1766 27.2533 49.8392 27.1662C49.7303 27.1336 49.6215 27.1009 49.5235 27.0792C49.2515 27.003 48.9794 26.9159 48.7073 26.8289C48.5984 26.7962 48.4787 26.7527 48.3699 26.72C48.0869 26.6221 47.8039 26.5241 47.521 26.4262C47.4121 26.3826 47.3033 26.35 47.2053 26.3064C46.8897 26.1867 46.5741 26.0779 46.2693 25.969C44.713 25.414 43.2872 24.5868 42.0356 23.542C41.7962 23.3352 41.5458 23.1393 41.3173 22.9216C41.72 22.9216 42.1336 22.8781 42.5254 22.8999C42.656 22.9107 42.7866 22.9107 42.9172 22.9107C43.0043 22.9107 43.0913 22.9216 43.1784 22.9216C44.5389 23.1937 46.0081 23.1502 47.3577 22.8019C48.0107 22.6387 48.642 22.3992 49.2188 22.0836C49.3712 21.9965 49.5236 21.9094 49.6759 21.8115C50.8187 21.0823 51.9179 19.9613 52.2662 18.6444C52.473 17.8716 52.6798 16.6526 52.3859 15.7275C51.6567 17.8281 49.3712 19.1559 47.2271 19.6674C46.8462 19.7545 46.4652 19.8198 46.0734 19.8742C44.1579 20.1463 42.2097 19.9939 40.4901 19.2212C40.4466 19.1994 40.4031 19.1777 40.3595 19.1559C39.848 18.8294 39.3365 18.5246 38.8576 18.1437C38.8032 18.1002 38.7379 18.0675 38.6834 18.0131C38.5746 17.9151 38.4658 17.8172 38.3678 17.6975C38.3569 17.839 38.3569 17.9805 38.3569 18.1219C38.4875 21.2782 40.6098 24.5215 43.2872 26.0126Z" fill="#109C49"/>
<path d="M44.2125 5.83314C43.1133 6.30113 42.0249 6.55146 41.0998 7.37862C37.8021 10.3172 36.3328 15.0625 37.9545 19.2091C37.9327 19.0894 37.9327 18.9588 37.9218 18.8391C37.9109 18.7085 37.8892 18.5779 37.8892 18.4364C37.8892 18.382 37.8892 18.3276 37.8892 18.2623C37.8783 18.0555 37.8783 17.8596 37.8783 17.6528C37.8783 17.5548 37.8783 17.446 37.8783 17.348C37.8891 16.9889 37.9218 16.6297 37.9653 16.2706C37.9762 16.1835 37.998 16.0964 38.0089 16.0093C38.0524 15.7373 38.0959 15.4543 38.1503 15.1822C38.183 15.0516 38.2048 14.9319 38.2374 14.8013C38.2918 14.5618 38.3571 14.3333 38.4224 14.0938C38.466 13.9632 38.4986 13.8326 38.5422 13.702C38.6183 13.4626 38.7054 13.2231 38.7925 12.9728C38.836 12.864 38.8687 12.7551 38.9122 12.6463C39.0537 12.298 39.1952 11.9606 39.3584 11.6232C39.6088 11.2314 39.8917 10.8505 40.1856 10.4913C40.2074 10.4696 40.2509 10.4478 40.3053 10.4152C40.3706 10.339 40.4359 10.2737 40.4903 10.2084C41.6114 9.00028 42.8303 8.00987 44.354 7.35685C45.475 6.87797 48.3266 6.88885 46.2369 5.21277C46.0519 5.07128 45.8669 4.91891 45.6709 4.78831C45.6274 4.75566 45.5839 4.72301 45.5404 4.69036C45.3662 4.57064 45.1921 4.47268 45.0179 4.37473C44.9853 4.35296 44.9526 4.3312 44.9091 4.32031C44.92 4.35296 44.9309 4.3965 44.9417 4.42915C45.0397 5.03863 44.7785 5.5937 44.2125 5.83314Z" fill="#109C49"/>
<path d="M44.2125 5.83314C43.1133 6.30113 42.0249 6.55146 41.0998 7.37862C37.8021 10.3172 36.3328 15.0625 37.9545 19.2091C37.9327 19.0894 37.9327 18.9588 37.9218 18.8391C37.9109 18.7085 37.8892 18.5779 37.8892 18.4364C37.8892 18.382 37.8892 18.3276 37.8892 18.2623C37.8783 18.0555 37.8783 17.8596 37.8783 17.6528C37.8783 17.5548 37.8783 17.446 37.8783 17.348C37.8891 16.9889 37.9218 16.6297 37.9653 16.2706C37.9762 16.1835 37.998 16.0964 38.0089 16.0093C38.0524 15.7373 38.0959 15.4543 38.1503 15.1822C38.183 15.0516 38.2048 14.9319 38.2374 14.8013C38.2918 14.5618 38.3571 14.3333 38.4224 14.0938C38.466 13.9632 38.4986 13.8326 38.5422 13.702C38.6183 13.4626 38.7054 13.2231 38.7925 12.9728C38.836 12.864 38.8687 12.7551 38.9122 12.6463C39.0537 12.298 39.1952 11.9606 39.3584 11.6232C39.6088 11.2314 39.8917 10.8505 40.1856 10.4913C40.2074 10.4696 40.2509 10.4478 40.3053 10.4152C40.3706 10.339 40.4359 10.2737 40.4903 10.2084C41.6114 9.00028 42.8303 8.00987 44.354 7.35685C45.475 6.87797 48.3266 6.88885 46.2369 5.21277C46.0519 5.07128 45.8669 4.91891 45.6709 4.78831C45.6274 4.75566 45.5839 4.72301 45.5404 4.69036C45.3662 4.57064 45.1921 4.47268 45.0179 4.37473C44.9853 4.35296 44.9526 4.3312 44.9091 4.32031C44.92 4.35296 44.9309 4.3965 44.9417 4.42915C45.0397 5.03863 44.7785 5.5937 44.2125 5.83314Z" fill="#109C49"/>
<path d="M44.9087 4.32031C44.9087 4.32031 44.9087 4.3312 44.9087 4.32031C44.9413 4.34208 44.9849 4.36385 45.0175 4.38561C44.9849 4.36385 44.9522 4.34208 44.9087 4.32031Z" fill="#109C49"/>
<path d="M44.9087 4.32031C44.9087 4.32031 44.9087 4.3312 44.9087 4.32031C44.9413 4.34208 44.9849 4.36385 45.0175 4.38561C44.9849 4.36385 44.9522 4.34208 44.9087 4.32031Z" fill="#109C49"/>
<path d="M37.8894 18.2628C37.8785 18.056 37.8785 17.8601 37.8785 17.6533C37.8676 17.8601 37.8785 18.0669 37.8894 18.2628Z" fill="#109C49"/>
<path d="M37.8894 18.2628C37.8785 18.056 37.8785 17.8601 37.8785 17.6533C37.8676 17.8601 37.8785 18.0669 37.8894 18.2628Z" fill="#109C49"/>
<path d="M37.1273 24.9121C37.1055 24.9883 37.0838 25.0754 37.062 25.1516C37.0838 25.0754 37.1055 24.9883 37.1273 24.9121Z" fill="#C42F49"/>
<path d="M37.1273 24.9121C37.1055 24.9883 37.0838 25.0754 37.062 25.1516C37.0838 25.0754 37.1055 24.9883 37.1273 24.9121Z" fill="#109C49"/>
<path d="M38.7925 33.2269C38.9775 33.3901 39.1734 33.5534 39.3693 33.7057C39.1408 33.5316 38.934 33.3248 38.7163 33.1289C38.7381 33.1507 38.7599 33.1942 38.7925 33.2269Z" fill="#EF4537"/>
<path d="M38.7925 33.2269C38.9775 33.3901 39.1734 33.5534 39.3693 33.7057C39.1408 33.5316 38.934 33.3248 38.7163 33.1289C38.7381 33.1507 38.7599 33.1942 38.7925 33.2269Z" fill="#109C49"/>
<path d="M37.0619 25.1519C37.0837 25.0757 37.1054 24.9886 37.1272 24.9125C37.1163 24.02 37.3122 23.1167 37.4973 22.1807C36.5613 22.2568 36.1477 23.6935 36.0171 24.4553C35.8103 25.6634 35.8538 26.915 36.1368 28.1122C36.583 29.9734 37.4973 31.6603 38.7053 33.1187C38.923 33.3146 39.1298 33.5214 39.3583 33.6956C38.1503 31.8236 37.3884 29.636 37.1381 27.4157C37.051 26.6647 37.0292 25.9029 37.0619 25.1519Z" fill="#109C49"/>
<path d="M37.0619 25.1519C37.0837 25.0757 37.1054 24.9886 37.1272 24.9125C37.1163 24.02 37.3122 23.1167 37.4973 22.1807C36.5613 22.2568 36.1477 23.6935 36.0171 24.4553C35.8103 25.6634 35.8538 26.915 36.1368 28.1122C36.583 29.9734 37.4973 31.6603 38.7053 33.1187C38.923 33.3146 39.1298 33.5214 39.3583 33.6956C38.1503 31.8236 37.3884 29.636 37.1381 27.4157C37.051 26.6647 37.0292 25.9029 37.0619 25.1519Z" fill="#109C49"/>
<path d="M28.3223 16.3902C28.9318 16.9344 29.6828 17.4024 30.2161 18.0227C30.4229 18.0445 30.6296 18.0663 30.8364 18.0445C28.2026 15.7372 26.853 12.1673 27.0925 8.69545C27.2993 5.74598 28.159 2.37205 30.2269 0.119141C30.0855 0.184442 29.9657 0.282396 29.8569 0.412999C29.1603 1.1422 28.4747 1.91494 27.8978 2.73121C26.7006 4.4073 25.6123 6.40989 25.3946 8.48866C25.3511 8.88047 25.3511 9.27228 25.3511 9.6641C25.3511 11.2313 25.6558 12.755 26.3306 14.0829C27.0054 14.8447 27.5604 15.7154 28.3223 16.3902Z" fill="#109C49"/>
<path d="M28.3223 16.3902C28.9318 16.9344 29.6828 17.4024 30.2161 18.0227C30.4229 18.0445 30.6296 18.0663 30.8364 18.0445C28.2026 15.7372 26.853 12.1673 27.0925 8.69545C27.2993 5.74598 28.159 2.37205 30.2269 0.119141C30.0855 0.184442 29.9657 0.282396 29.8569 0.412999C29.1603 1.1422 28.4747 1.91494 27.8978 2.73121C26.7006 4.4073 25.6123 6.40989 25.3946 8.48866C25.3511 8.88047 25.3511 9.27228 25.3511 9.6641C25.3511 11.2313 25.6558 12.755 26.3306 14.0829C27.0054 14.8447 27.5604 15.7154 28.3223 16.3902Z" fill="#109C49"/>
</svg>
