<svg width="56" height="63" viewBox="0 0 56 63" fill="none" xmlns="http://www.w3.org/2000/svg">
<path d="M53.3914 5.3049C48.0563 3.97616 43.3755 5.2747 39.3993 9.06967C39.047 9.40185 38.735 9.76424 38.4028 10.1266C37.1747 7.19735 36.0171 4.38887 34.8192 1.59046C34.6179 1.12742 34.2957 0.674437 33.9132 0.362384C33.6112 0.120794 33.1281 0.110728 32.7355 0C32.7153 0.45298 32.5241 0.98649 32.7053 1.33881C33.3797 2.64742 34.2857 3.83523 34.8896 5.16397C36.1681 8.01271 36.3191 11.7775 35.8661 14.9685L36.8626 15.4215C37.0438 15.5322 37.215 15.653 37.3961 15.7637C37.5572 15.4416 37.8793 14.7269 37.9598 14.596C48.0965 12.9854 55.8375 6.43232 55.8375 6.42225C55.5153 5.9592 54.7302 5.63709 53.3914 5.3049Z" fill="#92C95B"/>
<path d="M35.8566 14.9687L35.3533 14.7372C27.9949 11.7677 20.717 11.6972 13.6605 15.311C6.48333 18.9952 2.04413 24.9041 0.473797 32.796C-0.522759 37.7788 0.0912821 42.7213 1.95353 47.1102C4.92307 51.4387 9.27167 54.8914 14.6269 56.7838C25.9615 60.8003 39.0878 55.5256 44.7249 44.5433C47.9662 38.2217 48.4494 30.4707 45.5201 23.525C43.5371 20.6159 40.8494 17.9685 37.3866 15.774C37.2055 15.6633 37.0343 15.5425 36.8531 15.4318L35.8566 14.9687ZM12.0198 22.3272C11.5466 22.9211 10.6809 23.0117 10.0971 22.5386C9.5032 22.0654 9.4126 21.1997 9.88572 20.6159C10.3588 20.022 11.2245 19.9314 11.8084 20.4045C12.4023 20.8776 12.4929 21.7433 12.0198 22.3272ZM20.5861 19.2268C20.8982 18.8342 21.4719 18.7738 21.8645 19.0858C22.2571 19.3979 22.3175 19.9717 22.0055 20.3642C21.6934 20.7568 21.1196 20.8172 20.727 20.5052C20.3345 20.1931 20.2741 19.6193 20.5861 19.2268ZM23.3644 26.1221C22.8913 26.716 22.0256 26.8066 21.4417 26.3335C20.8478 25.8604 20.7572 24.9947 21.2304 24.4109C21.7035 23.817 22.5692 23.7264 23.153 24.1995C23.7368 24.6726 23.8375 25.5383 23.3644 26.1221ZM27.1896 18.1195C26.8674 18.804 26.0521 19.0959 25.3676 18.7738C24.6831 18.4517 24.3911 17.6363 24.7133 16.9518C25.0354 16.2673 25.8508 15.9754 26.5353 16.2975C27.2198 16.6196 27.5117 17.435 27.1896 18.1195Z" fill="#F28F23"/>
<path d="M44.7346 44.5433C39.0975 55.5255 25.9712 60.8002 14.6366 56.7838C9.28138 54.8914 4.9227 51.4387 1.96323 47.1102C1.9431 47.08 1.92296 47.0598 1.90283 47.0296C2.01356 47.3014 2.14442 47.5632 2.26522 47.8249C2.30548 47.9054 2.34575 47.996 2.38601 48.0866C2.6578 48.6604 2.94972 49.214 3.27184 49.7576C3.3423 49.8784 3.4027 49.9891 3.47317 50.1099C3.79529 50.6535 4.13754 51.187 4.49992 51.7004C4.56032 51.7809 4.62071 51.8614 4.68111 51.942C5.03343 52.4352 5.41595 52.9184 5.80853 53.3915C5.85886 53.4519 5.89913 53.5022 5.94946 53.5626C6.36217 54.0559 6.80509 54.5189 7.26813 54.982C7.35873 55.0726 7.44932 55.1732 7.54998 55.2638C8.01303 55.7067 8.48614 56.1396 8.97939 56.5523C9.05992 56.6228 9.15051 56.6932 9.24111 56.7637C9.73436 57.1663 10.2477 57.5589 10.7812 57.9314C10.8114 57.9515 10.8517 57.9817 10.8819 58.0018C11.4355 58.3843 12.0093 58.7367 12.5932 59.0789C12.7039 59.1393 12.8146 59.2098 12.9254 59.2702C13.4991 59.5923 14.093 59.8943 14.7071 60.1761C14.8178 60.2265 14.9386 60.2768 15.0493 60.3271C15.6936 60.609 16.3378 60.8808 17.0122 61.1224C19.1362 61.8773 21.3307 62.3001 23.515 62.4209C24.2499 62.4612 24.9746 62.4712 25.6994 62.441C32.9773 62.1894 40.0538 58.6561 44.6541 52.7171C45.5701 51.5293 46.3955 50.2408 47.1002 48.8718C47.3216 48.449 47.523 48.0061 47.7142 47.5732C47.7646 47.4524 47.8149 47.3417 47.8652 47.2209C48.0263 46.8384 48.1773 46.4559 48.3182 46.0633C48.3484 45.9928 48.3685 45.9224 48.3987 45.8519C48.5598 45.3989 48.7007 44.9459 48.8316 44.4829C48.8618 44.3722 48.892 44.2514 48.9222 44.1406C49.0228 43.7581 49.1235 43.3756 49.2141 42.983C49.2342 42.8824 49.2644 42.7817 49.2845 42.681C49.3852 42.2079 49.4758 41.7348 49.5463 41.2617C49.5563 41.1711 49.5664 41.0805 49.5865 40.9798C49.6469 40.5772 49.6872 40.1745 49.7275 39.7618C49.7375 39.641 49.7476 39.5303 49.7577 39.4095C49.7979 38.9163 49.8181 38.4331 49.8281 37.9398C49.8281 37.8996 49.8281 37.8593 49.8281 37.809C49.8382 37.356 49.8281 36.903 49.808 36.45C49.808 36.3293 49.7979 36.2185 49.7879 36.0977C49.7577 35.6045 49.7275 35.1112 49.6671 34.618C49.6067 34.1147 49.5362 33.6214 49.4456 33.1181C49.4255 33.0074 49.4054 32.8967 49.3852 32.7859C49.3047 32.343 49.204 31.9102 49.0933 31.4673C49.0832 31.4069 49.0631 31.3465 49.053 31.2861C48.9222 30.7928 48.7812 30.2996 48.6202 29.8063C48.59 29.7157 48.5598 29.6251 48.5296 29.5345C48.3887 29.1118 48.2377 28.6991 48.0665 28.2763C48.0363 28.1957 47.9961 28.1051 47.9659 28.0246C47.7646 27.5414 47.5532 27.0583 47.3216 26.5851C47.2914 26.5247 47.2612 26.4744 47.231 26.414C47.0197 25.9912 46.7982 25.5785 46.5667 25.1658C46.5163 25.0752 46.4559 24.9746 46.4056 24.884C46.1338 24.4209 45.8419 23.9579 45.5399 23.5049C48.4491 30.4606 47.9759 38.2217 44.7346 44.5433Z" fill="#D66E28"/>
<path d="M55.8381 6.42188C55.828 6.43194 48.0871 12.9851 37.9604 14.5957C38.5946 14.7366 39.2389 14.8574 39.863 15.0084C45.5001 16.3975 51.6908 14.042 54.922 9.29075C55.8783 7.87141 56.2407 7.02585 55.8381 6.42188Z" fill="#659B41"/>
<path d="M26.5351 16.2971C25.8506 15.9749 25.0352 16.2669 24.7131 16.9514C24.391 17.6359 24.6829 18.4512 25.3674 18.7734C26.0519 19.0955 26.8673 18.8036 27.1894 18.119C27.5115 17.4345 27.2196 16.6192 26.5351 16.2971Z" fill="#F7B718"/>
<path d="M22.0047 20.3643C22.3168 19.9717 22.2564 19.3979 21.8638 19.0859C21.4712 18.7738 20.8974 18.8342 20.5854 19.2268C20.2733 19.6194 20.3337 20.1932 20.7263 20.5052C21.1189 20.8173 21.6927 20.7569 22.0047 20.3643Z" fill="#F7B718"/>
<path d="M21.2204 24.4113C20.7473 25.0052 20.8379 25.8608 21.4318 26.3339C22.0257 26.807 22.8813 26.7164 23.3544 26.1225C23.8276 25.5286 23.7369 24.673 23.143 24.1999C22.5592 23.7268 21.6935 23.8174 21.2204 24.4113Z" fill="#F7B718"/>
<path d="M9.88544 20.6164C9.41232 21.2103 9.50292 22.0659 10.0968 22.539C10.6907 23.0121 11.5464 22.9215 12.0195 22.3276C12.4926 21.7337 12.402 20.8781 11.8081 20.405C11.2242 19.9319 10.3585 20.0225 9.88544 20.6164Z" fill="#F7B718"/>
</svg>
