<svg width="56" height="51" viewBox="0 0 56 51" fill="none" xmlns="http://www.w3.org/2000/svg">
<path d="M47.8253 42.0504C44.1354 46.7946 37.711 45.6525 32.7252 42.2591C30.2433 41.6002 27.4758 40.6667 24.8622 39.5466C15.4067 37.4929 2.30535 29.9374 1.89902 22.8321C1.84411 21.3935 2.36025 19.7242 2.73364 18.3515C2.85444 17.8793 2.93131 17.3082 2.96426 16.5615C2.97524 16.3967 2.77757 16.2979 2.65676 16.4077C2.04178 16.9239 1.07537 18.1868 0.778862 17.5938C0.778862 17.5828 0.778859 17.5718 0.767877 17.5608C0.767877 17.5718 0.756902 17.5828 0.756902 17.5938C0.756902 17.5828 0.756896 17.5718 0.767877 17.5498C0.273692 20.2184 0.152892 20.5918 0.0650369 21.5253C-0.462094 26.8735 2.25044 32.606 6.91775 37.5259C16.0986 43.9174 26.2788 48.6286 32.6154 48.0795C42.2026 47.2559 45.9035 45.2901 51.1199 40.1616C51.1418 40.1066 51.1748 40.0517 51.2077 39.9858C51.1199 40.1506 51.1199 40.1506 51.2077 39.9749C51.5482 39.3489 51.8227 38.701 52.0423 38.0311C50.8234 39.887 49.2749 41.3915 47.8253 42.0504Z" fill="#DB8044"/>
<path d="M51.197 39.9639L51.186 39.9748L51.197 39.9639Z" fill="#DB8044"/>
<path d="M2.5469 14.1454C3.06305 13.6073 3.42546 12.9594 3.65608 12.2456C3.73295 11.993 3.85375 11.7514 3.96357 11.5098C2.84342 12.6299 1.99781 13.9368 1.40479 15.4083C1.69031 15.013 2.01977 14.6506 2.3053 14.387C2.37119 14.3211 2.44807 14.2333 2.5469 14.1454Z" fill="#DB8044"/>
<path d="M16.1316 31.2339C15.9229 31.0802 15.7253 30.9264 15.5166 30.7617C15.6703 30.8825 15.8131 31.0033 15.9669 31.1131C16.0218 31.1571 16.0767 31.19 16.1316 31.2339Z" fill="#F3F4F4"/>
<path d="M30.4523 19.4385L30.2437 21.4152L35.8225 23.2602L36.0641 21.3603L30.4523 19.4385Z" fill="#F3F4F4"/>
<path d="M40.4347 22.8643L40.2041 24.7202L47.7157 27.2131C47.6937 26.5652 47.5949 25.9062 47.4412 25.2693L40.4347 22.8643Z" fill="#F3F4F4"/>
<path d="M2.54694 14.1453C2.45909 14.2332 2.38221 14.3211 2.31632 14.387C1.65741 15.0568 0.734928 16.2319 0.778856 17.1654C0.844747 18.1977 1.50366 17.3081 2.33828 16.4955C2.42614 16.4076 2.50302 16.3417 2.56891 16.2868C2.79953 16.0891 3.13996 16.2539 3.12898 16.5614C3.118 16.8908 3.10702 17.2532 3.10702 17.2642C2.97524 19.7132 1.32795 21.7558 2.77756 24.9515C5.7866 31.6175 16.5049 37.0206 24.0165 38.9535C12.1451 33.6931 3.22782 23.3701 4.07342 14.2332C4.16128 13.3217 4.2711 12.9483 4.75431 10.3236C4.75431 10.3456 4.7543 10.3786 4.74332 10.4005C4.76528 10.3127 4.77627 10.2138 4.79823 10.126C4.4578 10.5543 4.20521 11.0265 3.97459 11.5207C3.86477 11.7623 3.74397 12.0039 3.6671 12.2565C3.4255 12.9593 3.06309 13.6072 2.54694 14.1453Z" fill="#F3F4F4"/>
<path d="M48.5171 40.1831C42.9164 43.5326 36.1735 42.8736 29.8809 41.0616C31.616 41.6437 32.802 41.9512 32.8569 41.9731C33.2303 42.2037 34.5042 43.1592 36.481 43.9828C40.3466 45.5752 44.3989 45.5642 47.2542 42.687C47.4409 42.4893 47.6386 42.2916 47.8143 42.061C49.2639 41.4021 50.8123 39.8976 52.0094 38.0416C52.3828 37.4596 52.7232 36.8446 53.0197 36.1967C52.9428 36.3284 52.9428 36.3175 53.0197 36.1857V36.1967C53.3931 35.5377 53.6457 34.8239 53.7884 34.0771C52.2949 36.8007 50.2852 39.1288 48.5171 40.1831Z" fill="#F3F4F4"/>
<path d="M48.2102 25.6213C48.2102 25.5774 48.2102 25.5224 48.2212 25.4785C48.1992 25.6982 48.1772 25.9288 48.1333 26.1484C48.1553 25.9837 48.1882 25.808 48.2102 25.6213Z" fill="#F3F4F4"/>
<path d="M39.0947 33.4732C40.9177 33.2425 42.543 32.7264 43.9048 31.9686L39.4681 30.4971L39.0947 33.4732Z" fill="#F3F4F4"/>
<path d="M31.3968 10.2139L31.0454 13.6183L36.7889 15.595L37.1294 12.9044C35.3613 11.8172 33.3736 10.8947 31.3968 10.2139Z" fill="#F3F4F4"/>
<path d="M20.6784 8.91809L20.5796 10.0273L26.6086 12.0919L26.9161 9.04987C24.9174 8.72041 22.732 8.63256 20.6784 8.91809Z" fill="#F3F4F4"/>
<path d="M19.2946 23.7988L19.02 26.709C19.1847 26.8628 19.3824 27.0275 19.5801 27.1813C21.1176 28.4222 22.8417 29.5424 24.7086 30.4978L25.1918 25.7536L19.2946 23.7988Z" fill="#F3F4F4"/>
<path d="M29.6507 27.2246L29.1235 32.3312C30.9905 32.9352 32.8025 33.3086 34.5266 33.4953L35.0867 29.0366L29.6507 27.2246Z" fill="#F3F4F4"/>
<path d="M41.3132 15.957L41.1704 17.0882L43.1471 17.769C42.5541 17.1321 41.9501 16.5281 41.3132 15.957Z" fill="#F3F4F4"/>
<path d="M12.8479 13.3877C12.6173 13.783 12.4196 14.1784 12.2549 14.5957C12.2549 14.8812 12.2549 15.1558 12.2768 15.4413L15.3737 16.4626L15.5714 14.3102L12.8479 13.3877Z" fill="#F3F4F4"/>
<path d="M20.0414 15.8584L19.8438 17.9669L25.7959 19.9437L26.0046 17.912L20.0414 15.8584Z" fill="#F3F4F4"/>
<path d="M45.2554 38.9307C42.9273 39.4798 40.3136 39.6774 37.5132 39.4907C40.1928 39.6774 42.8065 39.5237 45.2554 38.9307Z" fill="#F3F4F4"/>
<path d="M4.60059 13.9697C4.78728 15.9355 5.3803 17.8903 6.28081 19.7572C5.36932 17.8244 4.78728 15.8806 4.60059 13.9697Z" fill="#F3F4F4"/>
<path d="M48.8246 37.7012C48.7697 37.7231 48.7038 37.7561 48.6489 37.778C48.6819 37.7671 48.7148 37.7561 48.7478 37.7341C48.7807 37.7231 48.8027 37.7122 48.8246 37.7012Z" fill="#F3F4F4"/>
<path d="M0.768115 17.5502C0.768115 17.5612 0.768117 17.5722 0.779099 17.5832C1.07561 18.1652 2.04202 16.9023 2.657 16.3971C2.78879 16.2873 2.97548 16.3861 2.96449 16.5509C2.93155 17.2976 2.85468 17.8687 2.73388 18.3409C2.34951 19.7246 1.83337 21.3829 1.89926 22.8215C2.30559 29.9268 15.407 37.4824 24.8624 39.536C27.4761 40.6671 30.2435 41.6006 32.7254 42.2485C37.7112 45.6529 44.1356 46.795 47.8255 42.0398C47.6498 42.2705 47.4521 42.4681 47.2655 42.6658C44.4102 45.5431 40.3578 45.5541 36.4922 43.9617C34.5045 43.149 33.2416 42.1826 32.8682 41.952C32.8133 41.93 31.6272 41.6225 29.8921 41.0405C29.2771 40.8648 28.6731 40.6781 28.0691 40.4804C26.6854 40.0302 25.3346 39.503 24.0168 38.921C16.5052 36.9882 5.78684 31.5851 2.7778 24.9191C1.31721 21.7343 2.9645 19.6807 3.10726 17.2317C3.10726 17.2208 3.11824 16.8584 3.12922 16.5289C3.14021 16.2324 2.78879 16.0677 2.56915 16.2544C2.50326 16.3093 2.42638 16.3752 2.33853 16.463C1.5039 17.2867 0.844991 18.1762 0.779099 17.1329C0.72419 16.1994 1.65765 15.0244 2.31657 14.3545C2.03104 14.629 1.70158 14.9805 1.41605 15.3758C0.899902 16.1006 0.526513 16.9023 0.768115 17.5502C0.757133 17.5392 0.757133 17.5392 0.768115 17.5502C0.768115 17.5502 0.768115 17.5392 0.768115 17.5502Z" fill="#939598"/>
<path d="M6.90721 37.5149C6.89623 37.5149 6.89624 37.5039 6.88525 37.5039C6.9182 37.5369 6.95114 37.5698 6.98409 37.6027C7.47827 38.1189 7.99443 38.635 8.53254 39.1292C8.59843 39.1951 8.66431 39.25 8.7302 39.3159C9.26832 39.8101 9.8284 40.2933 10.4104 40.7655C10.4873 40.8204 10.5532 40.8863 10.6301 40.9412C11.2121 41.4135 11.8161 41.8747 12.4311 42.314C12.508 42.3689 12.5849 42.4238 12.6617 42.4787C13.2877 42.918 13.9246 43.3573 14.5836 43.7636C14.6604 43.8075 14.7263 43.8514 14.8032 43.8954C15.4731 44.3127 16.154 44.708 16.8458 45.0924C16.9117 45.1253 16.9776 45.1583 17.0435 45.2022C17.7573 45.5866 18.4821 45.96 19.2179 46.3004C19.2728 46.3224 19.3277 46.3443 19.3826 46.3773C20.1404 46.7287 20.9091 47.0582 21.6888 47.3766C21.7218 47.3876 21.7547 47.3986 21.7877 47.4096C22.5894 47.7281 23.413 48.0246 24.2367 48.2881C31.1003 50.5065 38.7327 51.6376 44.9924 47.8379C45.256 47.6731 45.5196 47.4865 45.7941 47.2778C45.8929 47.2009 46.0028 47.1021 46.1016 47.0142C46.2773 46.8715 46.442 46.7287 46.6177 46.575C46.7605 46.4432 46.9033 46.2784 47.046 46.1357C47.1778 46.0039 47.3096 45.8721 47.4414 45.7293C47.6061 45.5427 47.7818 45.334 47.9466 45.1363C48.0454 45.0155 48.1552 44.9057 48.254 44.7739C48.4298 44.5433 48.6055 44.3017 48.7812 44.0601C48.869 43.9393 48.9569 43.8295 49.0447 43.7087C49.2205 43.4561 49.3962 43.1815 49.5719 42.918C49.6487 42.7972 49.7256 42.6874 49.8025 42.5775C49.9782 42.303 50.132 42.0175 50.2967 41.7319C50.3626 41.6111 50.4394 41.4903 50.5053 41.3695C50.6591 41.095 50.7909 40.8095 50.9336 40.5239C50.9885 40.4031 51.0654 40.2823 51.1203 40.1615C51.1203 40.1615 51.1203 40.1615 51.1093 40.1725C45.9039 45.3011 42.192 47.2668 32.6048 48.0905C26.2683 48.6176 16.0771 43.9064 6.90721 37.5149Z" fill="#A96437"/>
<path d="M24.4233 5.96451C24.3355 5.96451 24.2476 5.95353 24.1597 5.95353C23.6875 5.94255 23.2153 5.95353 22.7541 5.97549C22.6772 5.97549 22.6003 5.97549 22.5234 5.98647C21.9853 6.01942 21.4582 6.07433 20.942 6.1512L20.6895 8.91864C22.7321 8.63311 24.9285 8.72096 26.9272 9.05042L26.6197 12.0924L26.8503 12.1693L27.4543 6.25004C26.8942 6.16218 26.3451 6.08531 25.807 6.04138C25.3348 5.99745 24.8736 5.97549 24.4233 5.96451Z" fill="#C36428"/>
<path d="M31.693 7.32617L31.3965 10.2144C33.3732 10.8953 35.361 11.8287 37.14 12.894L36.7996 15.5846L36.9643 15.6395L37.6672 10.0936C36.2505 9.23702 34.724 8.49025 33.2085 7.88625C32.7033 7.68857 32.1982 7.50188 31.693 7.32617Z" fill="#C36428"/>
<path d="M16.3622 8.57775L16.4501 7.65527C16.1096 7.85295 15.7911 8.05062 15.4946 8.28124L16.3622 8.57775Z" fill="#C36428"/>
<path d="M20.0415 15.858L26.0047 17.9116L25.796 19.9432L26.0266 20.0201L26.5318 15.1112L20.3051 12.9697L20.0415 15.858Z" fill="#C36428"/>
<path d="M43.136 17.7686L46.5843 18.9546C46.2878 18.4055 45.9474 17.8784 45.5959 17.3623C45.4312 17.1207 45.2445 16.89 45.0578 16.6594C44.8492 16.3849 44.6515 16.0993 44.4319 15.8358C44.1903 15.5502 43.9157 15.2647 43.6631 14.9792C43.4764 14.7815 43.3117 14.5729 43.125 14.3862C42.6638 13.9249 42.1916 13.4637 41.6864 13.0244L41.313 15.9676C41.9499 16.5276 42.5539 17.1316 43.136 17.7686Z" fill="#C36428"/>
<path d="M12.9138 11.4979C12.8808 11.5638 12.8589 11.6297 12.8369 11.6956C12.7381 11.9372 12.6612 12.1788 12.5843 12.4204C12.5294 12.6071 12.4745 12.8048 12.4306 13.0025C12.4306 13.0134 12.4306 13.0244 12.4196 13.0464C12.3647 13.3319 12.3208 13.6284 12.2878 13.9359C12.2659 14.1556 12.2549 14.3862 12.2549 14.6168C12.4196 14.1885 12.6173 13.7931 12.8479 13.4088L15.5714 14.3422L15.3737 16.4947L15.6263 16.5825L16.0985 11.5419L13.375 10.6084C13.1993 10.872 13.0456 11.1795 12.9138 11.4979Z" fill="#C36428"/>
<path d="M30.4521 19.438L36.0639 21.3599L35.8223 23.2597L35.987 23.3147L36.591 18.5595L30.7377 16.5498L30.4521 19.438Z" fill="#C36428"/>
<path d="M48.1658 23.6111C48.1548 23.5232 48.1439 23.4464 48.1329 23.3585C48.0889 23.051 48.034 22.7545 47.9682 22.458L40.797 19.998L40.4346 22.8533L47.441 25.2584C47.5948 25.8953 47.6826 26.5542 47.7156 27.2022L47.8803 27.2571C47.9901 26.9057 48.067 26.5213 48.1219 26.1479C48.1548 25.9283 48.1878 25.6976 48.2097 25.478C48.2207 25.3902 48.2207 25.3023 48.2207 25.2035C48.2317 24.9948 48.2317 24.7752 48.2317 24.5665C48.2317 24.4677 48.2317 24.3688 48.2207 24.27C48.2097 24.0613 48.1878 23.8417 48.1658 23.6111Z" fill="#C36428"/>
<path d="M19.2944 23.7974L25.2027 25.7522L24.7195 30.4964C24.7964 30.5403 24.8623 30.5732 24.9391 30.6172L25.7298 22.9518L19.569 20.9092L19.2944 23.7974Z" fill="#C36428"/>
<path d="M15.0776 22.469L15.3521 19.5148L13.0459 18.7461C13.5181 19.998 14.21 21.25 15.0776 22.469Z" fill="#C36428"/>
<path d="M39.479 30.4869L43.9157 31.9585C44.937 31.3874 45.8265 30.6846 46.5074 29.8499L39.8414 27.6426L39.479 30.4869Z" fill="#C36428"/>
<path d="M29.6504 27.2247L35.0974 29.0367L34.5373 33.4953C34.5922 33.5063 34.6472 33.5063 34.7021 33.5173L35.6245 26.2363L29.9469 24.3584L29.6504 27.2247Z" fill="#C36428"/>
<path d="M55.7654 29.2461C55.7544 29.279 55.7434 29.312 55.7434 29.3449C55.7434 29.3669 55.7324 29.3779 55.7324 29.3998C55.7324 29.334 55.7544 29.29 55.7654 29.2461Z" fill="#C36428"/>
<path d="M54.118 33.2976C53.8984 33.6271 53.6678 33.9346 53.4152 34.2311C53.3822 34.275 53.3493 34.3189 53.3164 34.3519C53.0528 34.6703 52.7563 34.9669 52.4488 35.2524C52.3939 35.3073 52.339 35.3512 52.2841 35.4061C51.9656 35.6917 51.6361 35.9662 51.2847 36.2298C51.2737 36.2408 51.2627 36.2408 51.2627 36.2517C50.9223 36.5043 50.5599 36.7349 50.1755 36.9656C50.1096 37.0095 50.0437 37.0424 49.9778 37.0864C49.6045 37.306 49.2091 37.5037 48.8028 37.7013C48.7808 37.7123 48.7589 37.7233 48.7369 37.7343C48.704 37.7453 48.671 37.7563 48.6381 37.7782C48.1219 38.0088 47.5838 38.2285 47.0127 38.4152C46.859 38.4701 46.6943 38.514 46.5295 38.5689C46.1122 38.7007 45.6839 38.8215 45.2337 38.9203C42.7847 39.5134 40.16 39.6671 37.4914 39.4804C37.4695 39.4804 37.4585 39.4804 37.4365 39.4804C36.8325 39.4365 36.2285 39.3816 35.6135 39.2937C35.2072 39.2388 34.8009 39.1839 34.3946 39.118C34.2518 39.096 34.109 39.0741 33.9553 39.0521C32.1982 38.7446 30.3862 38.2944 28.5412 37.7013C24.5767 36.4055 20.8758 34.5495 17.6252 32.3312C17.6142 32.3202 17.5923 32.3092 17.5813 32.2983C17.0761 31.9468 16.5709 31.5954 16.0877 31.233C16.0328 31.1891 15.9779 31.1561 15.923 31.1122C15.7693 31.0024 15.6265 30.8706 15.4727 30.7608C15.297 30.629 15.1103 30.4862 14.9456 30.3545C14.8797 30.2996 14.8138 30.2337 14.737 30.1787C14.715 30.1568 14.682 30.1348 14.6601 30.1129C11.662 27.6419 9.20208 24.8745 7.44498 21.9972C7.3681 21.8655 7.29123 21.7447 7.21436 21.6129C7.07159 21.3603 6.92883 21.1077 6.78606 20.8551C6.65428 20.6135 6.5225 20.3609 6.4017 20.1193C6.34679 19.9985 6.29188 19.8777 6.22598 19.7679C5.33645 17.89 4.73245 15.9462 4.54576 13.9805C4.53477 13.9036 4.5238 13.8267 4.5238 13.7389C4.50183 13.4423 4.49085 13.1348 4.47987 12.8383C4.47987 12.6516 4.47987 12.465 4.49085 12.2673C4.50183 12.0367 4.50183 11.817 4.5238 11.5864C4.5238 11.5315 4.52379 11.4766 4.53477 11.4217C4.56772 11.0702 4.62263 10.7298 4.67754 10.3894C4.67754 10.3674 4.67754 10.3345 4.68853 10.3125C4.20532 12.9372 4.0955 13.2996 4.00765 14.2221C3.16204 23.359 12.0793 33.682 23.9508 38.9423C25.2686 39.5243 26.6194 40.0515 28.0031 40.5017C28.6071 40.6994 29.2111 40.8861 29.8261 41.0618C36.1077 42.8738 42.8616 43.5327 48.4624 40.1833C50.2304 39.129 52.2401 36.8008 53.7556 34.0663C54.0412 33.5612 54.3047 33.045 54.5463 32.5069C54.4255 32.7265 54.2937 32.9462 54.162 33.1658C54.1839 33.2098 54.151 33.2537 54.118 33.2976Z" fill="#C36428"/>
<path d="M45.5079 9.20306C41.6752 6.10616 37.0189 3.51443 31.9123 1.85617C18.3716 -2.54757 6.62097 1.15333 4.77602 10.1146C4.75405 10.2024 4.73209 10.2903 4.72111 10.3891C4.65522 10.7295 4.61129 11.07 4.57834 11.4214C4.57834 11.4763 4.57835 11.5312 4.56737 11.5861C4.5454 11.8167 4.5454 12.0364 4.53441 12.267C4.53441 12.4537 4.52344 12.6404 4.52344 12.8381C4.52344 13.1346 4.53442 13.4421 4.56737 13.7386C4.57835 13.8155 4.57834 13.8923 4.58933 13.9802C4.77602 15.891 5.35806 17.8458 6.26955 19.7676C6.32446 19.8884 6.37938 20.0092 6.44527 20.1191C6.56607 20.3716 6.69785 20.6132 6.82963 20.8548C6.96142 21.1074 7.10418 21.36 7.25793 21.6126C7.3348 21.7444 7.41167 21.8762 7.48855 21.997C9.24565 24.8742 11.7056 27.6526 14.7037 30.1126C14.7256 30.1345 14.7586 30.1565 14.7805 30.1785C14.8464 30.2334 14.9123 30.2993 14.9892 30.3542C15.1649 30.4969 15.3406 30.6287 15.5163 30.7605C15.714 30.9143 15.9226 31.079 16.1313 31.2327C16.6145 31.5951 17.1197 31.9575 17.6248 32.298C17.6358 32.309 17.6578 32.3199 17.6688 32.3309C20.9194 34.5493 24.6093 36.4052 28.5848 37.7011C30.4297 38.3051 32.2417 38.7443 33.9988 39.0518C34.1416 39.0738 34.2844 39.0958 34.4381 39.1177C34.8444 39.1836 35.2618 39.2385 35.6571 39.2934C36.2611 39.3703 36.8761 39.4362 37.4801 39.4801C37.5021 39.4801 37.5131 39.4801 37.535 39.4801C40.3354 39.6668 42.9491 39.4692 45.2772 38.9201C45.7165 38.8102 46.1448 38.6894 46.5731 38.5686C46.7378 38.5137 46.8916 38.4698 47.0563 38.4149C47.6164 38.2282 48.1545 38.0086 48.6816 37.7779C48.7365 37.756 48.8024 37.723 48.8573 37.7011C49.2637 37.5144 49.648 37.3057 50.0324 37.0861C50.0983 37.0531 50.1642 37.0092 50.2301 36.9653C50.6035 36.7456 50.9659 36.504 51.3173 36.2515C51.3283 36.2405 51.3393 36.2405 51.3393 36.2295C51.6907 35.9659 52.0201 35.6914 52.3386 35.4059C52.3935 35.3509 52.4484 35.307 52.5033 35.2521C52.8108 34.9666 53.0964 34.6591 53.3709 34.3516C53.4039 34.3077 53.4368 34.2637 53.4697 34.2308C53.7223 33.9343 53.9529 33.6158 54.1726 33.2973C54.2055 33.2534 54.2385 33.2095 54.2604 33.1655C54.3922 32.9569 54.524 32.7373 54.6448 32.5066C54.7217 32.3749 54.7876 32.2321 54.8535 32.0893C54.8864 32.0124 54.9303 31.9356 54.9633 31.8587C55.139 31.4853 55.2927 31.101 55.4245 30.6946C55.4355 30.6507 55.4575 30.5958 55.4684 30.5409C55.5892 30.1675 55.6881 29.7721 55.765 29.3768C55.765 29.3548 55.7759 29.3438 55.7759 29.3219C55.8528 28.9265 55.9187 28.5312 55.9516 28.1249C56.5007 21.7993 52.3166 14.705 45.5079 9.20306ZM15.077 22.4692C14.2095 21.2502 13.5176 19.9983 13.0454 18.7463L15.3516 19.5151L15.077 22.4692ZM15.6261 16.5609L15.3735 16.4731L12.2767 15.4518C12.2547 15.1662 12.2547 14.8807 12.2547 14.6061C12.2547 14.3755 12.2657 14.1559 12.2876 13.9253C12.3206 13.6178 12.3645 13.3213 12.4194 13.0357C12.4194 13.0248 12.4304 13.0138 12.4304 12.9918C12.4743 12.7941 12.5292 12.6074 12.5841 12.4098C12.65 12.1682 12.7379 11.9266 12.8367 11.685C12.8587 11.6191 12.8807 11.5532 12.9136 11.4873C13.0564 11.1688 13.2101 10.8613 13.3748 10.5868L16.0984 11.5202L15.6261 16.5609ZM16.3619 8.57709L15.4943 8.28058C15.7909 8.06094 16.1203 7.85228 16.4498 7.65461L16.3619 8.57709ZM24.9388 30.6177C24.8619 30.5848 24.785 30.5409 24.7191 30.497C22.8522 29.5415 21.1281 28.4214 19.5906 27.1804C19.3929 27.0157 19.1952 26.8619 19.0305 26.7082L19.3051 23.798L19.5796 20.9098L25.7405 22.9524L24.9388 30.6177ZM26.026 20.0202L25.7954 19.9433L19.8322 17.9666L20.0299 15.8691L20.2934 12.9808L26.5202 15.1223L26.026 20.0202ZM26.8277 12.1682L26.597 12.0913L20.568 10.0267L20.6668 8.91753L20.9194 6.15009C21.4246 6.07321 21.9517 6.0183 22.5008 5.98536C22.5777 5.98536 22.6545 5.98536 22.7314 5.97438C23.1927 5.95241 23.6649 5.94143 24.1371 5.95241C24.2249 5.95241 24.3128 5.96339 24.4007 5.96339C24.8619 5.97438 25.3122 5.99634 25.7734 6.04027C26.3115 6.09518 26.8606 6.16107 27.4207 6.24892L26.8277 12.1682ZM41.3128 15.9569L41.6862 13.0138C42.1913 13.453 42.6745 13.9033 43.1248 14.3755C43.3115 14.5622 43.4872 14.7709 43.6629 14.9685C43.9265 15.2541 44.19 15.5396 44.4316 15.8251C44.6513 16.0887 44.849 16.3742 45.0576 16.6488C45.2333 16.8794 45.431 17.121 45.5957 17.3516C45.9471 17.8678 46.2876 18.4059 46.5841 18.944L43.1358 17.758L41.159 17.0771L41.3128 15.9569ZM34.6907 33.517C34.6358 33.517 34.5809 33.506 34.526 33.495C32.8018 33.3193 30.9898 32.9349 29.1229 32.3309L29.65 27.2243L29.9465 24.3471L35.6242 26.225L34.6907 33.517ZM35.9866 23.3148L35.8218 23.2599L30.243 21.4039L30.4407 19.4272L30.7372 16.5499L36.5796 18.5596L35.9866 23.3148ZM36.953 15.6494L36.7882 15.5945L31.0447 13.6178L31.3961 10.2134L31.6926 7.32515C32.2088 7.50086 32.714 7.68755 33.2081 7.88523C34.7786 8.51119 36.2721 9.24698 37.6668 10.0926L36.953 15.6494ZM43.9045 31.9575C42.5427 32.7153 40.9174 33.2314 39.0944 33.4621L39.4678 30.486L39.8302 27.6307L46.4962 29.838C45.8154 30.6836 44.9368 31.3865 43.9045 31.9575ZM48.2314 25.2147C48.2314 25.3025 48.2204 25.3904 48.2204 25.4892C48.2204 25.5331 48.2204 25.588 48.2094 25.632C48.1874 25.8077 48.1655 25.9834 48.1325 26.1591C48.0666 26.5435 47.9898 26.9169 47.8909 27.2683L47.7262 27.2134L40.2146 24.7205L40.4452 22.8645L40.8076 20.0092L47.9788 22.4692C48.0447 22.7657 48.0996 23.0732 48.1435 23.3697C48.1545 23.4576 48.1655 23.5344 48.1765 23.6223C48.1984 23.8419 48.2204 24.0616 48.2314 24.2812C48.2424 24.38 48.2424 24.4789 48.2424 24.5777C48.2424 24.7864 48.2314 25.006 48.2314 25.2147Z" fill="#F89C3E"/>
</svg>
