<svg width="53" height="63" viewBox="0 0 53 63" fill="none" xmlns="http://www.w3.org/2000/svg">
<path d="M52.6008 0.764291C52.0975 -0.432369 50.9791 0.00379823 50.0733 0.540617C49.447 0.90968 48.7648 1.24519 48.2615 1.73728C46.3491 3.58259 44.4926 5.49501 42.4683 7.53045C38.185 6.35616 35.5568 6.74759 31.7767 9.21919C30.7925 9.86785 29.786 10.5277 28.9472 11.3441C24.3731 15.8176 19.1167 19.374 13.2676 22.1588C12.015 22.7515 10.8631 23.5456 9.71118 24.306C3.89564 28.1309 0.540517 33.678 0.0708008 39.6837C0.920764 50.2411 8.48097 56.9961 8.48097 56.9961C14.4419 61.7156 21.5324 62.5656 28.5669 60.7314C36.1383 58.7631 41.8085 52.7351 43.4525 45.4097C44.0117 42.8934 44.1571 41.0145 44.1683 39.762C44.1794 36.5858 44.5373 33.4208 45.2083 30.3117C46.1589 25.8829 47.3221 21.7673 47.3221 21.7673C49.8272 15.3031 46.1254 10.0132 45.6892 9.4205C45.5886 9.33103 45.5103 9.24156 45.3985 9.15209C46.9754 6.45681 48.9884 4.42137 51.5719 2.79973C52.1534 2.43067 52.8021 1.25637 52.6008 0.764291ZM44.4926 25.6593C42.8486 30.6696 42.0657 35.7358 41.9651 40.981C41.8868 44.9177 41.3276 48.832 38.9119 52.2206C34.6062 58.2487 28.4998 60.9104 21.0067 60.2953C13.3347 59.669 7.80994 55.7659 4.66731 49.0668C0.775376 40.7685 3.48184 32.034 11.3216 26.8671C12.317 26.2073 13.3235 25.5251 14.3972 25.0106C19.0943 22.7739 23.3441 19.9668 27.1019 16.4886C27.9518 15.7058 29.3945 14.4867 30.3675 13.8493C33.0628 12.0822 35.0759 11.523 37.7488 11.9257C38.8672 12.0934 39.9408 12.496 40.925 13.0328C42.1999 13.7374 43.3295 14.688 44.1011 15.8847C46.0024 18.8372 45.6109 22.2371 44.4926 25.6593Z" fill="#04954D"/>
<path d="M40.9139 13.0226C39.9298 12.4746 38.8561 12.0831 37.7377 11.9154C35.0648 11.5128 33.0518 12.0608 30.3565 13.839C29.3835 14.4765 27.9296 15.6955 27.0908 16.4784C23.3443 19.9677 19.0833 22.7636 14.3861 25.0004C13.3013 25.5148 12.3059 26.197 11.3106 26.8569C3.47079 32.0237 0.764324 40.7694 4.65626 49.0566C7.79889 55.7556 13.3237 59.6475 20.9957 60.285C28.5 60.9001 34.5951 58.2384 38.9008 52.2104C41.3277 48.8217 41.8869 44.9074 41.954 40.9707C42.0547 35.7367 42.8375 30.6593 44.4815 25.649C45.5999 22.238 45.9913 18.8269 44.0901 15.8632C43.3184 14.6666 42.1889 13.7272 40.9139 13.0226ZM31.2847 48.8105C28.0414 53.8544 21.0069 55.4536 15.717 52.3558C10.4159 49.2579 8.72715 42.5364 11.9592 37.4926C15.292 32.3145 22.2706 30.7264 27.6724 33.9362C32.9623 37.09 34.5727 43.6995 31.2847 48.8105Z" fill="#92C95B"/>
<path d="M27.673 33.9359C22.2712 30.7262 15.2926 32.3031 11.9598 37.4923C8.71653 42.5362 10.4165 49.2464 15.7175 52.3555C21.0074 55.4534 28.042 53.8541 31.2853 48.8103C34.5733 43.6993 32.9629 37.0897 27.673 33.9359ZM30.9386 47.4458C28.0085 51.9976 21.6673 53.4403 16.8806 50.6444C12.1052 47.8485 10.5618 41.7869 13.492 37.2351C16.5004 32.5603 22.7968 31.1288 27.673 34.0254C32.4484 36.866 33.9023 42.8381 30.9386 47.4458Z" fill="#712B14"/>
<path d="M27.6721 34.0247C22.796 31.1281 16.4995 32.5596 13.4911 37.2344C10.5722 41.7862 12.1043 47.8478 16.8798 50.6437C21.6552 53.4396 28.0076 51.9969 30.9377 47.4452C33.9014 42.8375 32.4475 36.8654 27.6721 34.0247Z" fill="#A04022"/>
<path d="M47.3114 21.7683C47.3114 21.7683 46.1483 25.8839 45.1977 30.3126C44.5266 33.4217 44.1688 36.5867 44.1576 39.7629C44.1576 41.0155 44.0122 42.8943 43.4418 45.4107C41.809 52.736 36.1277 58.764 28.5563 60.7324C21.5329 62.5665 14.4312 61.7165 8.47029 56.997C8.47029 56.997 0.910094 50.2309 0.0601305 39.6846C-0.208279 43.0285 0.41801 46.5179 2.01728 49.9401C5.64081 57.668 12.0155 62.1751 20.8842 62.902C29.5404 63.6066 36.5862 60.5423 41.563 53.586C44.3589 49.6717 45.0075 45.1534 45.097 40.6129C45.2088 34.5625 46.1259 28.7134 48.016 22.9314C49.5929 18.1112 49.906 13.3134 45.6674 9.43262C46.1259 10.0254 49.8165 15.3041 47.3114 21.7683Z" fill="#047C3F"/>
</svg>
